%TF.GenerationSoftware,KiCad,Pcbnew,9.0.6*%
%TF.CreationDate,2026-01-14T23:40:17-08:00*%
%TF.ProjectId,ald_control_board,616c645f-636f-46e7-9472-6f6c5f626f61,rev?*%
%TF.SameCoordinates,Original*%
%TF.FileFunction,Legend,Top*%
%TF.FilePolarity,Positive*%
%FSLAX46Y46*%
G04 Gerber Fmt 4.6, Leading zero omitted, Abs format (unit mm)*
G04 Created by KiCad (PCBNEW 9.0.6) date 2026-01-14 23:40:17*
%MOMM*%
%LPD*%
G01*
G04 APERTURE LIST*
%ADD10C,0.150000*%
%ADD11C,0.120000*%
G04 APERTURE END LIST*
D10*
X60166666Y-43804819D02*
X59833333Y-43328628D01*
X59595238Y-43804819D02*
X59595238Y-42804819D01*
X59595238Y-42804819D02*
X59976190Y-42804819D01*
X59976190Y-42804819D02*
X60071428Y-42852438D01*
X60071428Y-42852438D02*
X60119047Y-42900057D01*
X60119047Y-42900057D02*
X60166666Y-42995295D01*
X60166666Y-42995295D02*
X60166666Y-43138152D01*
X60166666Y-43138152D02*
X60119047Y-43233390D01*
X60119047Y-43233390D02*
X60071428Y-43281009D01*
X60071428Y-43281009D02*
X59976190Y-43328628D01*
X59976190Y-43328628D02*
X59595238Y-43328628D01*
X60595238Y-43281009D02*
X60928571Y-43281009D01*
X61071428Y-43804819D02*
X60595238Y-43804819D01*
X60595238Y-43804819D02*
X60595238Y-42804819D01*
X60595238Y-42804819D02*
X61071428Y-42804819D01*
X61833333Y-43281009D02*
X61500000Y-43281009D01*
X61500000Y-43804819D02*
X61500000Y-42804819D01*
X61500000Y-42804819D02*
X61976190Y-42804819D01*
X62500000Y-42804819D02*
X62500000Y-43042914D01*
X62261905Y-42947676D02*
X62500000Y-43042914D01*
X62500000Y-43042914D02*
X62738095Y-42947676D01*
X62357143Y-43233390D02*
X62500000Y-43042914D01*
X62500000Y-43042914D02*
X62642857Y-43233390D01*
X63261905Y-42804819D02*
X63261905Y-43042914D01*
X63023810Y-42947676D02*
X63261905Y-43042914D01*
X63261905Y-43042914D02*
X63500000Y-42947676D01*
X63119048Y-43233390D02*
X63261905Y-43042914D01*
X63261905Y-43042914D02*
X63404762Y-43233390D01*
X60666666Y-141304819D02*
X60333333Y-140828628D01*
X60095238Y-141304819D02*
X60095238Y-140304819D01*
X60095238Y-140304819D02*
X60476190Y-140304819D01*
X60476190Y-140304819D02*
X60571428Y-140352438D01*
X60571428Y-140352438D02*
X60619047Y-140400057D01*
X60619047Y-140400057D02*
X60666666Y-140495295D01*
X60666666Y-140495295D02*
X60666666Y-140638152D01*
X60666666Y-140638152D02*
X60619047Y-140733390D01*
X60619047Y-140733390D02*
X60571428Y-140781009D01*
X60571428Y-140781009D02*
X60476190Y-140828628D01*
X60476190Y-140828628D02*
X60095238Y-140828628D01*
X61095238Y-140781009D02*
X61428571Y-140781009D01*
X61571428Y-141304819D02*
X61095238Y-141304819D01*
X61095238Y-141304819D02*
X61095238Y-140304819D01*
X61095238Y-140304819D02*
X61571428Y-140304819D01*
X62333333Y-140781009D02*
X62000000Y-140781009D01*
X62000000Y-141304819D02*
X62000000Y-140304819D01*
X62000000Y-140304819D02*
X62476190Y-140304819D01*
X63000000Y-140304819D02*
X63000000Y-140542914D01*
X62761905Y-140447676D02*
X63000000Y-140542914D01*
X63000000Y-140542914D02*
X63238095Y-140447676D01*
X62857143Y-140733390D02*
X63000000Y-140542914D01*
X63000000Y-140542914D02*
X63142857Y-140733390D01*
X63761905Y-140304819D02*
X63761905Y-140542914D01*
X63523810Y-140447676D02*
X63761905Y-140542914D01*
X63761905Y-140542914D02*
X64000000Y-140447676D01*
X63619048Y-140733390D02*
X63761905Y-140542914D01*
X63761905Y-140542914D02*
X63904762Y-140733390D01*
X251166666Y-141304819D02*
X250833333Y-140828628D01*
X250595238Y-141304819D02*
X250595238Y-140304819D01*
X250595238Y-140304819D02*
X250976190Y-140304819D01*
X250976190Y-140304819D02*
X251071428Y-140352438D01*
X251071428Y-140352438D02*
X251119047Y-140400057D01*
X251119047Y-140400057D02*
X251166666Y-140495295D01*
X251166666Y-140495295D02*
X251166666Y-140638152D01*
X251166666Y-140638152D02*
X251119047Y-140733390D01*
X251119047Y-140733390D02*
X251071428Y-140781009D01*
X251071428Y-140781009D02*
X250976190Y-140828628D01*
X250976190Y-140828628D02*
X250595238Y-140828628D01*
X251595238Y-140781009D02*
X251928571Y-140781009D01*
X252071428Y-141304819D02*
X251595238Y-141304819D01*
X251595238Y-141304819D02*
X251595238Y-140304819D01*
X251595238Y-140304819D02*
X252071428Y-140304819D01*
X252833333Y-140781009D02*
X252500000Y-140781009D01*
X252500000Y-141304819D02*
X252500000Y-140304819D01*
X252500000Y-140304819D02*
X252976190Y-140304819D01*
X253500000Y-140304819D02*
X253500000Y-140542914D01*
X253261905Y-140447676D02*
X253500000Y-140542914D01*
X253500000Y-140542914D02*
X253738095Y-140447676D01*
X253357143Y-140733390D02*
X253500000Y-140542914D01*
X253500000Y-140542914D02*
X253642857Y-140733390D01*
X254261905Y-140304819D02*
X254261905Y-140542914D01*
X254023810Y-140447676D02*
X254261905Y-140542914D01*
X254261905Y-140542914D02*
X254500000Y-140447676D01*
X254119048Y-140733390D02*
X254261905Y-140542914D01*
X254261905Y-140542914D02*
X254404762Y-140733390D01*
X250666666Y-43304819D02*
X250333333Y-42828628D01*
X250095238Y-43304819D02*
X250095238Y-42304819D01*
X250095238Y-42304819D02*
X250476190Y-42304819D01*
X250476190Y-42304819D02*
X250571428Y-42352438D01*
X250571428Y-42352438D02*
X250619047Y-42400057D01*
X250619047Y-42400057D02*
X250666666Y-42495295D01*
X250666666Y-42495295D02*
X250666666Y-42638152D01*
X250666666Y-42638152D02*
X250619047Y-42733390D01*
X250619047Y-42733390D02*
X250571428Y-42781009D01*
X250571428Y-42781009D02*
X250476190Y-42828628D01*
X250476190Y-42828628D02*
X250095238Y-42828628D01*
X251095238Y-42781009D02*
X251428571Y-42781009D01*
X251571428Y-43304819D02*
X251095238Y-43304819D01*
X251095238Y-43304819D02*
X251095238Y-42304819D01*
X251095238Y-42304819D02*
X251571428Y-42304819D01*
X252333333Y-42781009D02*
X252000000Y-42781009D01*
X252000000Y-43304819D02*
X252000000Y-42304819D01*
X252000000Y-42304819D02*
X252476190Y-42304819D01*
X253000000Y-42304819D02*
X253000000Y-42542914D01*
X252761905Y-42447676D02*
X253000000Y-42542914D01*
X253000000Y-42542914D02*
X253238095Y-42447676D01*
X252857143Y-42733390D02*
X253000000Y-42542914D01*
X253000000Y-42542914D02*
X253142857Y-42733390D01*
X253761905Y-42304819D02*
X253761905Y-42542914D01*
X253523810Y-42447676D02*
X253761905Y-42542914D01*
X253761905Y-42542914D02*
X254000000Y-42447676D01*
X253619048Y-42733390D02*
X253761905Y-42542914D01*
X253761905Y-42542914D02*
X253904762Y-42733390D01*
X219961905Y-79954819D02*
X220533333Y-79954819D01*
X220247619Y-80954819D02*
X220247619Y-79954819D01*
X220866667Y-80954819D02*
X220866667Y-79954819D01*
X220866667Y-79954819D02*
X221247619Y-79954819D01*
X221247619Y-79954819D02*
X221342857Y-80002438D01*
X221342857Y-80002438D02*
X221390476Y-80050057D01*
X221390476Y-80050057D02*
X221438095Y-80145295D01*
X221438095Y-80145295D02*
X221438095Y-80288152D01*
X221438095Y-80288152D02*
X221390476Y-80383390D01*
X221390476Y-80383390D02*
X221342857Y-80431009D01*
X221342857Y-80431009D02*
X221247619Y-80478628D01*
X221247619Y-80478628D02*
X220866667Y-80478628D01*
X222390476Y-80954819D02*
X221819048Y-80954819D01*
X222104762Y-80954819D02*
X222104762Y-79954819D01*
X222104762Y-79954819D02*
X222009524Y-80097676D01*
X222009524Y-80097676D02*
X221914286Y-80192914D01*
X221914286Y-80192914D02*
X221819048Y-80240533D01*
X222723810Y-79954819D02*
X223342857Y-79954819D01*
X223342857Y-79954819D02*
X223009524Y-80335771D01*
X223009524Y-80335771D02*
X223152381Y-80335771D01*
X223152381Y-80335771D02*
X223247619Y-80383390D01*
X223247619Y-80383390D02*
X223295238Y-80431009D01*
X223295238Y-80431009D02*
X223342857Y-80526247D01*
X223342857Y-80526247D02*
X223342857Y-80764342D01*
X223342857Y-80764342D02*
X223295238Y-80859580D01*
X223295238Y-80859580D02*
X223247619Y-80907200D01*
X223247619Y-80907200D02*
X223152381Y-80954819D01*
X223152381Y-80954819D02*
X222866667Y-80954819D01*
X222866667Y-80954819D02*
X222771429Y-80907200D01*
X222771429Y-80907200D02*
X222723810Y-80859580D01*
X237802895Y-88507219D02*
X238374323Y-88507219D01*
X238088609Y-89507219D02*
X238088609Y-88507219D01*
X238707657Y-89507219D02*
X238707657Y-88507219D01*
X238707657Y-88507219D02*
X239088609Y-88507219D01*
X239088609Y-88507219D02*
X239183847Y-88554838D01*
X239183847Y-88554838D02*
X239231466Y-88602457D01*
X239231466Y-88602457D02*
X239279085Y-88697695D01*
X239279085Y-88697695D02*
X239279085Y-88840552D01*
X239279085Y-88840552D02*
X239231466Y-88935790D01*
X239231466Y-88935790D02*
X239183847Y-88983409D01*
X239183847Y-88983409D02*
X239088609Y-89031028D01*
X239088609Y-89031028D02*
X238707657Y-89031028D01*
X239755276Y-89507219D02*
X239945752Y-89507219D01*
X239945752Y-89507219D02*
X240040990Y-89459600D01*
X240040990Y-89459600D02*
X240088609Y-89411980D01*
X240088609Y-89411980D02*
X240183847Y-89269123D01*
X240183847Y-89269123D02*
X240231466Y-89078647D01*
X240231466Y-89078647D02*
X240231466Y-88697695D01*
X240231466Y-88697695D02*
X240183847Y-88602457D01*
X240183847Y-88602457D02*
X240136228Y-88554838D01*
X240136228Y-88554838D02*
X240040990Y-88507219D01*
X240040990Y-88507219D02*
X239850514Y-88507219D01*
X239850514Y-88507219D02*
X239755276Y-88554838D01*
X239755276Y-88554838D02*
X239707657Y-88602457D01*
X239707657Y-88602457D02*
X239660038Y-88697695D01*
X239660038Y-88697695D02*
X239660038Y-88935790D01*
X239660038Y-88935790D02*
X239707657Y-89031028D01*
X239707657Y-89031028D02*
X239755276Y-89078647D01*
X239755276Y-89078647D02*
X239850514Y-89126266D01*
X239850514Y-89126266D02*
X240040990Y-89126266D01*
X240040990Y-89126266D02*
X240136228Y-89078647D01*
X240136228Y-89078647D02*
X240183847Y-89031028D01*
X240183847Y-89031028D02*
X240231466Y-88935790D01*
X219484705Y-90956419D02*
X220056133Y-90956419D01*
X219770419Y-91956419D02*
X219770419Y-90956419D01*
X220389467Y-91956419D02*
X220389467Y-90956419D01*
X220389467Y-90956419D02*
X220770419Y-90956419D01*
X220770419Y-90956419D02*
X220865657Y-91004038D01*
X220865657Y-91004038D02*
X220913276Y-91051657D01*
X220913276Y-91051657D02*
X220960895Y-91146895D01*
X220960895Y-91146895D02*
X220960895Y-91289752D01*
X220960895Y-91289752D02*
X220913276Y-91384990D01*
X220913276Y-91384990D02*
X220865657Y-91432609D01*
X220865657Y-91432609D02*
X220770419Y-91480228D01*
X220770419Y-91480228D02*
X220389467Y-91480228D01*
X221913276Y-91956419D02*
X221341848Y-91956419D01*
X221627562Y-91956419D02*
X221627562Y-90956419D01*
X221627562Y-90956419D02*
X221532324Y-91099276D01*
X221532324Y-91099276D02*
X221437086Y-91194514D01*
X221437086Y-91194514D02*
X221341848Y-91242133D01*
X222865657Y-91956419D02*
X222294229Y-91956419D01*
X222579943Y-91956419D02*
X222579943Y-90956419D01*
X222579943Y-90956419D02*
X222484705Y-91099276D01*
X222484705Y-91099276D02*
X222389467Y-91194514D01*
X222389467Y-91194514D02*
X222294229Y-91242133D01*
X204030342Y-83163580D02*
X203982723Y-83211200D01*
X203982723Y-83211200D02*
X203839866Y-83258819D01*
X203839866Y-83258819D02*
X203744628Y-83258819D01*
X203744628Y-83258819D02*
X203601771Y-83211200D01*
X203601771Y-83211200D02*
X203506533Y-83115961D01*
X203506533Y-83115961D02*
X203458914Y-83020723D01*
X203458914Y-83020723D02*
X203411295Y-82830247D01*
X203411295Y-82830247D02*
X203411295Y-82687390D01*
X203411295Y-82687390D02*
X203458914Y-82496914D01*
X203458914Y-82496914D02*
X203506533Y-82401676D01*
X203506533Y-82401676D02*
X203601771Y-82306438D01*
X203601771Y-82306438D02*
X203744628Y-82258819D01*
X203744628Y-82258819D02*
X203839866Y-82258819D01*
X203839866Y-82258819D02*
X203982723Y-82306438D01*
X203982723Y-82306438D02*
X204030342Y-82354057D01*
X204982723Y-83258819D02*
X204411295Y-83258819D01*
X204697009Y-83258819D02*
X204697009Y-82258819D01*
X204697009Y-82258819D02*
X204601771Y-82401676D01*
X204601771Y-82401676D02*
X204506533Y-82496914D01*
X204506533Y-82496914D02*
X204411295Y-82544533D01*
X205839866Y-82592152D02*
X205839866Y-83258819D01*
X205601771Y-82211200D02*
X205363676Y-82925485D01*
X205363676Y-82925485D02*
X205982723Y-82925485D01*
X225182133Y-90878819D02*
X224848800Y-90402628D01*
X224610705Y-90878819D02*
X224610705Y-89878819D01*
X224610705Y-89878819D02*
X224991657Y-89878819D01*
X224991657Y-89878819D02*
X225086895Y-89926438D01*
X225086895Y-89926438D02*
X225134514Y-89974057D01*
X225134514Y-89974057D02*
X225182133Y-90069295D01*
X225182133Y-90069295D02*
X225182133Y-90212152D01*
X225182133Y-90212152D02*
X225134514Y-90307390D01*
X225134514Y-90307390D02*
X225086895Y-90355009D01*
X225086895Y-90355009D02*
X224991657Y-90402628D01*
X224991657Y-90402628D02*
X224610705Y-90402628D01*
X225658324Y-90878819D02*
X225848800Y-90878819D01*
X225848800Y-90878819D02*
X225944038Y-90831200D01*
X225944038Y-90831200D02*
X225991657Y-90783580D01*
X225991657Y-90783580D02*
X226086895Y-90640723D01*
X226086895Y-90640723D02*
X226134514Y-90450247D01*
X226134514Y-90450247D02*
X226134514Y-90069295D01*
X226134514Y-90069295D02*
X226086895Y-89974057D01*
X226086895Y-89974057D02*
X226039276Y-89926438D01*
X226039276Y-89926438D02*
X225944038Y-89878819D01*
X225944038Y-89878819D02*
X225753562Y-89878819D01*
X225753562Y-89878819D02*
X225658324Y-89926438D01*
X225658324Y-89926438D02*
X225610705Y-89974057D01*
X225610705Y-89974057D02*
X225563086Y-90069295D01*
X225563086Y-90069295D02*
X225563086Y-90307390D01*
X225563086Y-90307390D02*
X225610705Y-90402628D01*
X225610705Y-90402628D02*
X225658324Y-90450247D01*
X225658324Y-90450247D02*
X225753562Y-90497866D01*
X225753562Y-90497866D02*
X225944038Y-90497866D01*
X225944038Y-90497866D02*
X226039276Y-90450247D01*
X226039276Y-90450247D02*
X226086895Y-90402628D01*
X226086895Y-90402628D02*
X226134514Y-90307390D01*
X235855576Y-89623619D02*
X235855576Y-90337904D01*
X235855576Y-90337904D02*
X235807957Y-90480761D01*
X235807957Y-90480761D02*
X235712719Y-90576000D01*
X235712719Y-90576000D02*
X235569862Y-90623619D01*
X235569862Y-90623619D02*
X235474624Y-90623619D01*
X236855576Y-90623619D02*
X236284148Y-90623619D01*
X236569862Y-90623619D02*
X236569862Y-89623619D01*
X236569862Y-89623619D02*
X236474624Y-89766476D01*
X236474624Y-89766476D02*
X236379386Y-89861714D01*
X236379386Y-89861714D02*
X236284148Y-89909333D01*
X237474624Y-89623619D02*
X237569862Y-89623619D01*
X237569862Y-89623619D02*
X237665100Y-89671238D01*
X237665100Y-89671238D02*
X237712719Y-89718857D01*
X237712719Y-89718857D02*
X237760338Y-89814095D01*
X237760338Y-89814095D02*
X237807957Y-90004571D01*
X237807957Y-90004571D02*
X237807957Y-90242666D01*
X237807957Y-90242666D02*
X237760338Y-90433142D01*
X237760338Y-90433142D02*
X237712719Y-90528380D01*
X237712719Y-90528380D02*
X237665100Y-90576000D01*
X237665100Y-90576000D02*
X237569862Y-90623619D01*
X237569862Y-90623619D02*
X237474624Y-90623619D01*
X237474624Y-90623619D02*
X237379386Y-90576000D01*
X237379386Y-90576000D02*
X237331767Y-90528380D01*
X237331767Y-90528380D02*
X237284148Y-90433142D01*
X237284148Y-90433142D02*
X237236529Y-90242666D01*
X237236529Y-90242666D02*
X237236529Y-90004571D01*
X237236529Y-90004571D02*
X237284148Y-89814095D01*
X237284148Y-89814095D02*
X237331767Y-89718857D01*
X237331767Y-89718857D02*
X237379386Y-89671238D01*
X237379386Y-89671238D02*
X237474624Y-89623619D01*
X203584005Y-90469219D02*
X204155433Y-90469219D01*
X203869719Y-91469219D02*
X203869719Y-90469219D01*
X204488767Y-91469219D02*
X204488767Y-90469219D01*
X204488767Y-90469219D02*
X204869719Y-90469219D01*
X204869719Y-90469219D02*
X204964957Y-90516838D01*
X204964957Y-90516838D02*
X205012576Y-90564457D01*
X205012576Y-90564457D02*
X205060195Y-90659695D01*
X205060195Y-90659695D02*
X205060195Y-90802552D01*
X205060195Y-90802552D02*
X205012576Y-90897790D01*
X205012576Y-90897790D02*
X204964957Y-90945409D01*
X204964957Y-90945409D02*
X204869719Y-90993028D01*
X204869719Y-90993028D02*
X204488767Y-90993028D01*
X206012576Y-91469219D02*
X205441148Y-91469219D01*
X205726862Y-91469219D02*
X205726862Y-90469219D01*
X205726862Y-90469219D02*
X205631624Y-90612076D01*
X205631624Y-90612076D02*
X205536386Y-90707314D01*
X205536386Y-90707314D02*
X205441148Y-90754933D01*
X206631624Y-90469219D02*
X206726862Y-90469219D01*
X206726862Y-90469219D02*
X206822100Y-90516838D01*
X206822100Y-90516838D02*
X206869719Y-90564457D01*
X206869719Y-90564457D02*
X206917338Y-90659695D01*
X206917338Y-90659695D02*
X206964957Y-90850171D01*
X206964957Y-90850171D02*
X206964957Y-91088266D01*
X206964957Y-91088266D02*
X206917338Y-91278742D01*
X206917338Y-91278742D02*
X206869719Y-91373980D01*
X206869719Y-91373980D02*
X206822100Y-91421600D01*
X206822100Y-91421600D02*
X206726862Y-91469219D01*
X206726862Y-91469219D02*
X206631624Y-91469219D01*
X206631624Y-91469219D02*
X206536386Y-91421600D01*
X206536386Y-91421600D02*
X206488767Y-91373980D01*
X206488767Y-91373980D02*
X206441148Y-91278742D01*
X206441148Y-91278742D02*
X206393529Y-91088266D01*
X206393529Y-91088266D02*
X206393529Y-90850171D01*
X206393529Y-90850171D02*
X206441148Y-90659695D01*
X206441148Y-90659695D02*
X206488767Y-90564457D01*
X206488767Y-90564457D02*
X206536386Y-90516838D01*
X206536386Y-90516838D02*
X206631624Y-90469219D01*
X214514133Y-85087619D02*
X214180800Y-84611428D01*
X213942705Y-85087619D02*
X213942705Y-84087619D01*
X213942705Y-84087619D02*
X214323657Y-84087619D01*
X214323657Y-84087619D02*
X214418895Y-84135238D01*
X214418895Y-84135238D02*
X214466514Y-84182857D01*
X214466514Y-84182857D02*
X214514133Y-84278095D01*
X214514133Y-84278095D02*
X214514133Y-84420952D01*
X214514133Y-84420952D02*
X214466514Y-84516190D01*
X214466514Y-84516190D02*
X214418895Y-84563809D01*
X214418895Y-84563809D02*
X214323657Y-84611428D01*
X214323657Y-84611428D02*
X213942705Y-84611428D01*
X215085562Y-84516190D02*
X214990324Y-84468571D01*
X214990324Y-84468571D02*
X214942705Y-84420952D01*
X214942705Y-84420952D02*
X214895086Y-84325714D01*
X214895086Y-84325714D02*
X214895086Y-84278095D01*
X214895086Y-84278095D02*
X214942705Y-84182857D01*
X214942705Y-84182857D02*
X214990324Y-84135238D01*
X214990324Y-84135238D02*
X215085562Y-84087619D01*
X215085562Y-84087619D02*
X215276038Y-84087619D01*
X215276038Y-84087619D02*
X215371276Y-84135238D01*
X215371276Y-84135238D02*
X215418895Y-84182857D01*
X215418895Y-84182857D02*
X215466514Y-84278095D01*
X215466514Y-84278095D02*
X215466514Y-84325714D01*
X215466514Y-84325714D02*
X215418895Y-84420952D01*
X215418895Y-84420952D02*
X215371276Y-84468571D01*
X215371276Y-84468571D02*
X215276038Y-84516190D01*
X215276038Y-84516190D02*
X215085562Y-84516190D01*
X215085562Y-84516190D02*
X214990324Y-84563809D01*
X214990324Y-84563809D02*
X214942705Y-84611428D01*
X214942705Y-84611428D02*
X214895086Y-84706666D01*
X214895086Y-84706666D02*
X214895086Y-84897142D01*
X214895086Y-84897142D02*
X214942705Y-84992380D01*
X214942705Y-84992380D02*
X214990324Y-85040000D01*
X214990324Y-85040000D02*
X215085562Y-85087619D01*
X215085562Y-85087619D02*
X215276038Y-85087619D01*
X215276038Y-85087619D02*
X215371276Y-85040000D01*
X215371276Y-85040000D02*
X215418895Y-84992380D01*
X215418895Y-84992380D02*
X215466514Y-84897142D01*
X215466514Y-84897142D02*
X215466514Y-84706666D01*
X215466514Y-84706666D02*
X215418895Y-84611428D01*
X215418895Y-84611428D02*
X215371276Y-84563809D01*
X215371276Y-84563809D02*
X215276038Y-84516190D01*
X234865942Y-88441199D02*
X234818323Y-88488819D01*
X234818323Y-88488819D02*
X234675466Y-88536438D01*
X234675466Y-88536438D02*
X234580228Y-88536438D01*
X234580228Y-88536438D02*
X234437371Y-88488819D01*
X234437371Y-88488819D02*
X234342133Y-88393580D01*
X234342133Y-88393580D02*
X234294514Y-88298342D01*
X234294514Y-88298342D02*
X234246895Y-88107866D01*
X234246895Y-88107866D02*
X234246895Y-87965009D01*
X234246895Y-87965009D02*
X234294514Y-87774533D01*
X234294514Y-87774533D02*
X234342133Y-87679295D01*
X234342133Y-87679295D02*
X234437371Y-87584057D01*
X234437371Y-87584057D02*
X234580228Y-87536438D01*
X234580228Y-87536438D02*
X234675466Y-87536438D01*
X234675466Y-87536438D02*
X234818323Y-87584057D01*
X234818323Y-87584057D02*
X234865942Y-87631676D01*
X235818323Y-88536438D02*
X235246895Y-88536438D01*
X235532609Y-88536438D02*
X235532609Y-87536438D01*
X235532609Y-87536438D02*
X235437371Y-87679295D01*
X235437371Y-87679295D02*
X235342133Y-87774533D01*
X235342133Y-87774533D02*
X235246895Y-87822152D01*
X236723085Y-87536438D02*
X236246895Y-87536438D01*
X236246895Y-87536438D02*
X236199276Y-88012628D01*
X236199276Y-88012628D02*
X236246895Y-87965009D01*
X236246895Y-87965009D02*
X236342133Y-87917390D01*
X236342133Y-87917390D02*
X236580228Y-87917390D01*
X236580228Y-87917390D02*
X236675466Y-87965009D01*
X236675466Y-87965009D02*
X236723085Y-88012628D01*
X236723085Y-88012628D02*
X236770704Y-88107866D01*
X236770704Y-88107866D02*
X236770704Y-88345961D01*
X236770704Y-88345961D02*
X236723085Y-88441199D01*
X236723085Y-88441199D02*
X236675466Y-88488819D01*
X236675466Y-88488819D02*
X236580228Y-88536438D01*
X236580228Y-88536438D02*
X236342133Y-88536438D01*
X236342133Y-88536438D02*
X236246895Y-88488819D01*
X236246895Y-88488819D02*
X236199276Y-88441199D01*
X212993505Y-82563619D02*
X213564933Y-82563619D01*
X213279219Y-83563619D02*
X213279219Y-82563619D01*
X213898267Y-83563619D02*
X213898267Y-82563619D01*
X213898267Y-82563619D02*
X214279219Y-82563619D01*
X214279219Y-82563619D02*
X214374457Y-82611238D01*
X214374457Y-82611238D02*
X214422076Y-82658857D01*
X214422076Y-82658857D02*
X214469695Y-82754095D01*
X214469695Y-82754095D02*
X214469695Y-82896952D01*
X214469695Y-82896952D02*
X214422076Y-82992190D01*
X214422076Y-82992190D02*
X214374457Y-83039809D01*
X214374457Y-83039809D02*
X214279219Y-83087428D01*
X214279219Y-83087428D02*
X213898267Y-83087428D01*
X215422076Y-83563619D02*
X214850648Y-83563619D01*
X215136362Y-83563619D02*
X215136362Y-82563619D01*
X215136362Y-82563619D02*
X215041124Y-82706476D01*
X215041124Y-82706476D02*
X214945886Y-82801714D01*
X214945886Y-82801714D02*
X214850648Y-82849333D01*
X215803029Y-82658857D02*
X215850648Y-82611238D01*
X215850648Y-82611238D02*
X215945886Y-82563619D01*
X215945886Y-82563619D02*
X216183981Y-82563619D01*
X216183981Y-82563619D02*
X216279219Y-82611238D01*
X216279219Y-82611238D02*
X216326838Y-82658857D01*
X216326838Y-82658857D02*
X216374457Y-82754095D01*
X216374457Y-82754095D02*
X216374457Y-82849333D01*
X216374457Y-82849333D02*
X216326838Y-82992190D01*
X216326838Y-82992190D02*
X215755410Y-83563619D01*
X215755410Y-83563619D02*
X216374457Y-83563619D01*
X139943105Y-92948819D02*
X139943105Y-91948819D01*
X140514533Y-92948819D02*
X140085962Y-92377390D01*
X140514533Y-91948819D02*
X139943105Y-92520247D01*
X141466914Y-92948819D02*
X140895486Y-92948819D01*
X141181200Y-92948819D02*
X141181200Y-91948819D01*
X141181200Y-91948819D02*
X141085962Y-92091676D01*
X141085962Y-92091676D02*
X140990724Y-92186914D01*
X140990724Y-92186914D02*
X140895486Y-92234533D01*
X195987942Y-64893619D02*
X195654609Y-64417428D01*
X195416514Y-64893619D02*
X195416514Y-63893619D01*
X195416514Y-63893619D02*
X195797466Y-63893619D01*
X195797466Y-63893619D02*
X195892704Y-63941238D01*
X195892704Y-63941238D02*
X195940323Y-63988857D01*
X195940323Y-63988857D02*
X195987942Y-64084095D01*
X195987942Y-64084095D02*
X195987942Y-64226952D01*
X195987942Y-64226952D02*
X195940323Y-64322190D01*
X195940323Y-64322190D02*
X195892704Y-64369809D01*
X195892704Y-64369809D02*
X195797466Y-64417428D01*
X195797466Y-64417428D02*
X195416514Y-64417428D01*
X196940323Y-64893619D02*
X196368895Y-64893619D01*
X196654609Y-64893619D02*
X196654609Y-63893619D01*
X196654609Y-63893619D02*
X196559371Y-64036476D01*
X196559371Y-64036476D02*
X196464133Y-64131714D01*
X196464133Y-64131714D02*
X196368895Y-64179333D01*
X197559371Y-63893619D02*
X197654609Y-63893619D01*
X197654609Y-63893619D02*
X197749847Y-63941238D01*
X197749847Y-63941238D02*
X197797466Y-63988857D01*
X197797466Y-63988857D02*
X197845085Y-64084095D01*
X197845085Y-64084095D02*
X197892704Y-64274571D01*
X197892704Y-64274571D02*
X197892704Y-64512666D01*
X197892704Y-64512666D02*
X197845085Y-64703142D01*
X197845085Y-64703142D02*
X197797466Y-64798380D01*
X197797466Y-64798380D02*
X197749847Y-64846000D01*
X197749847Y-64846000D02*
X197654609Y-64893619D01*
X197654609Y-64893619D02*
X197559371Y-64893619D01*
X197559371Y-64893619D02*
X197464133Y-64846000D01*
X197464133Y-64846000D02*
X197416514Y-64798380D01*
X197416514Y-64798380D02*
X197368895Y-64703142D01*
X197368895Y-64703142D02*
X197321276Y-64512666D01*
X197321276Y-64512666D02*
X197321276Y-64274571D01*
X197321276Y-64274571D02*
X197368895Y-64084095D01*
X197368895Y-64084095D02*
X197416514Y-63988857D01*
X197416514Y-63988857D02*
X197464133Y-63941238D01*
X197464133Y-63941238D02*
X197559371Y-63893619D01*
X224499933Y-129938419D02*
X224166600Y-129462228D01*
X223928505Y-129938419D02*
X223928505Y-128938419D01*
X223928505Y-128938419D02*
X224309457Y-128938419D01*
X224309457Y-128938419D02*
X224404695Y-128986038D01*
X224404695Y-128986038D02*
X224452314Y-129033657D01*
X224452314Y-129033657D02*
X224499933Y-129128895D01*
X224499933Y-129128895D02*
X224499933Y-129271752D01*
X224499933Y-129271752D02*
X224452314Y-129366990D01*
X224452314Y-129366990D02*
X224404695Y-129414609D01*
X224404695Y-129414609D02*
X224309457Y-129462228D01*
X224309457Y-129462228D02*
X223928505Y-129462228D01*
X225357076Y-129271752D02*
X225357076Y-129938419D01*
X225118981Y-128890800D02*
X224880886Y-129605085D01*
X224880886Y-129605085D02*
X225499933Y-129605085D01*
X96547866Y-80825009D02*
X96214533Y-80825009D01*
X96214533Y-81348819D02*
X96214533Y-80348819D01*
X96214533Y-80348819D02*
X96690723Y-80348819D01*
X97024057Y-80444057D02*
X97071676Y-80396438D01*
X97071676Y-80396438D02*
X97166914Y-80348819D01*
X97166914Y-80348819D02*
X97405009Y-80348819D01*
X97405009Y-80348819D02*
X97500247Y-80396438D01*
X97500247Y-80396438D02*
X97547866Y-80444057D01*
X97547866Y-80444057D02*
X97595485Y-80539295D01*
X97595485Y-80539295D02*
X97595485Y-80634533D01*
X97595485Y-80634533D02*
X97547866Y-80777390D01*
X97547866Y-80777390D02*
X96976438Y-81348819D01*
X96976438Y-81348819D02*
X97595485Y-81348819D01*
X130111019Y-83766094D02*
X129111019Y-83766094D01*
X129111019Y-83766094D02*
X129111019Y-83527999D01*
X129111019Y-83527999D02*
X129158638Y-83385142D01*
X129158638Y-83385142D02*
X129253876Y-83289904D01*
X129253876Y-83289904D02*
X129349114Y-83242285D01*
X129349114Y-83242285D02*
X129539590Y-83194666D01*
X129539590Y-83194666D02*
X129682447Y-83194666D01*
X129682447Y-83194666D02*
X129872923Y-83242285D01*
X129872923Y-83242285D02*
X129968161Y-83289904D01*
X129968161Y-83289904D02*
X130063400Y-83385142D01*
X130063400Y-83385142D02*
X130111019Y-83527999D01*
X130111019Y-83527999D02*
X130111019Y-83766094D01*
X130111019Y-82242285D02*
X130111019Y-82813713D01*
X130111019Y-82527999D02*
X129111019Y-82527999D01*
X129111019Y-82527999D02*
X129253876Y-82623237D01*
X129253876Y-82623237D02*
X129349114Y-82718475D01*
X129349114Y-82718475D02*
X129396733Y-82813713D01*
X129741019Y-78209904D02*
X128741019Y-78209904D01*
X129741019Y-77638476D02*
X129169590Y-78067047D01*
X128741019Y-77638476D02*
X129312447Y-78209904D01*
X183823105Y-59612819D02*
X184394533Y-59612819D01*
X184108819Y-60612819D02*
X184108819Y-59612819D01*
X184727867Y-60612819D02*
X184727867Y-59612819D01*
X184727867Y-59612819D02*
X185108819Y-59612819D01*
X185108819Y-59612819D02*
X185204057Y-59660438D01*
X185204057Y-59660438D02*
X185251676Y-59708057D01*
X185251676Y-59708057D02*
X185299295Y-59803295D01*
X185299295Y-59803295D02*
X185299295Y-59946152D01*
X185299295Y-59946152D02*
X185251676Y-60041390D01*
X185251676Y-60041390D02*
X185204057Y-60089009D01*
X185204057Y-60089009D02*
X185108819Y-60136628D01*
X185108819Y-60136628D02*
X184727867Y-60136628D01*
X186251676Y-60612819D02*
X185680248Y-60612819D01*
X185965962Y-60612819D02*
X185965962Y-59612819D01*
X185965962Y-59612819D02*
X185870724Y-59755676D01*
X185870724Y-59755676D02*
X185775486Y-59850914D01*
X185775486Y-59850914D02*
X185680248Y-59898533D01*
X187156438Y-59612819D02*
X186680248Y-59612819D01*
X186680248Y-59612819D02*
X186632629Y-60089009D01*
X186632629Y-60089009D02*
X186680248Y-60041390D01*
X186680248Y-60041390D02*
X186775486Y-59993771D01*
X186775486Y-59993771D02*
X187013581Y-59993771D01*
X187013581Y-59993771D02*
X187108819Y-60041390D01*
X187108819Y-60041390D02*
X187156438Y-60089009D01*
X187156438Y-60089009D02*
X187204057Y-60184247D01*
X187204057Y-60184247D02*
X187204057Y-60422342D01*
X187204057Y-60422342D02*
X187156438Y-60517580D01*
X187156438Y-60517580D02*
X187108819Y-60565200D01*
X187108819Y-60565200D02*
X187013581Y-60612819D01*
X187013581Y-60612819D02*
X186775486Y-60612819D01*
X186775486Y-60612819D02*
X186680248Y-60565200D01*
X186680248Y-60565200D02*
X186632629Y-60517580D01*
X174984280Y-57792857D02*
X175031900Y-57840476D01*
X175031900Y-57840476D02*
X175079519Y-57983333D01*
X175079519Y-57983333D02*
X175079519Y-58078571D01*
X175079519Y-58078571D02*
X175031900Y-58221428D01*
X175031900Y-58221428D02*
X174936661Y-58316666D01*
X174936661Y-58316666D02*
X174841423Y-58364285D01*
X174841423Y-58364285D02*
X174650947Y-58411904D01*
X174650947Y-58411904D02*
X174508090Y-58411904D01*
X174508090Y-58411904D02*
X174317614Y-58364285D01*
X174317614Y-58364285D02*
X174222376Y-58316666D01*
X174222376Y-58316666D02*
X174127138Y-58221428D01*
X174127138Y-58221428D02*
X174079519Y-58078571D01*
X174079519Y-58078571D02*
X174079519Y-57983333D01*
X174079519Y-57983333D02*
X174127138Y-57840476D01*
X174127138Y-57840476D02*
X174174757Y-57792857D01*
X174174757Y-57411904D02*
X174127138Y-57364285D01*
X174127138Y-57364285D02*
X174079519Y-57269047D01*
X174079519Y-57269047D02*
X174079519Y-57030952D01*
X174079519Y-57030952D02*
X174127138Y-56935714D01*
X174127138Y-56935714D02*
X174174757Y-56888095D01*
X174174757Y-56888095D02*
X174269995Y-56840476D01*
X174269995Y-56840476D02*
X174365233Y-56840476D01*
X174365233Y-56840476D02*
X174508090Y-56888095D01*
X174508090Y-56888095D02*
X175079519Y-57459523D01*
X175079519Y-57459523D02*
X175079519Y-56840476D01*
X174079519Y-56221428D02*
X174079519Y-56126190D01*
X174079519Y-56126190D02*
X174127138Y-56030952D01*
X174127138Y-56030952D02*
X174174757Y-55983333D01*
X174174757Y-55983333D02*
X174269995Y-55935714D01*
X174269995Y-55935714D02*
X174460471Y-55888095D01*
X174460471Y-55888095D02*
X174698566Y-55888095D01*
X174698566Y-55888095D02*
X174889042Y-55935714D01*
X174889042Y-55935714D02*
X174984280Y-55983333D01*
X174984280Y-55983333D02*
X175031900Y-56030952D01*
X175031900Y-56030952D02*
X175079519Y-56126190D01*
X175079519Y-56126190D02*
X175079519Y-56221428D01*
X175079519Y-56221428D02*
X175031900Y-56316666D01*
X175031900Y-56316666D02*
X174984280Y-56364285D01*
X174984280Y-56364285D02*
X174889042Y-56411904D01*
X174889042Y-56411904D02*
X174698566Y-56459523D01*
X174698566Y-56459523D02*
X174460471Y-56459523D01*
X174460471Y-56459523D02*
X174269995Y-56411904D01*
X174269995Y-56411904D02*
X174174757Y-56364285D01*
X174174757Y-56364285D02*
X174127138Y-56316666D01*
X174127138Y-56316666D02*
X174079519Y-56221428D01*
X82250945Y-101679580D02*
X82203326Y-101727200D01*
X82203326Y-101727200D02*
X82060469Y-101774819D01*
X82060469Y-101774819D02*
X81965231Y-101774819D01*
X81965231Y-101774819D02*
X81822374Y-101727200D01*
X81822374Y-101727200D02*
X81727136Y-101631961D01*
X81727136Y-101631961D02*
X81679517Y-101536723D01*
X81679517Y-101536723D02*
X81631898Y-101346247D01*
X81631898Y-101346247D02*
X81631898Y-101203390D01*
X81631898Y-101203390D02*
X81679517Y-101012914D01*
X81679517Y-101012914D02*
X81727136Y-100917676D01*
X81727136Y-100917676D02*
X81822374Y-100822438D01*
X81822374Y-100822438D02*
X81965231Y-100774819D01*
X81965231Y-100774819D02*
X82060469Y-100774819D01*
X82060469Y-100774819D02*
X82203326Y-100822438D01*
X82203326Y-100822438D02*
X82250945Y-100870057D01*
X83155707Y-100774819D02*
X82679517Y-100774819D01*
X82679517Y-100774819D02*
X82631898Y-101251009D01*
X82631898Y-101251009D02*
X82679517Y-101203390D01*
X82679517Y-101203390D02*
X82774755Y-101155771D01*
X82774755Y-101155771D02*
X83012850Y-101155771D01*
X83012850Y-101155771D02*
X83108088Y-101203390D01*
X83108088Y-101203390D02*
X83155707Y-101251009D01*
X83155707Y-101251009D02*
X83203326Y-101346247D01*
X83203326Y-101346247D02*
X83203326Y-101584342D01*
X83203326Y-101584342D02*
X83155707Y-101679580D01*
X83155707Y-101679580D02*
X83108088Y-101727200D01*
X83108088Y-101727200D02*
X83012850Y-101774819D01*
X83012850Y-101774819D02*
X82774755Y-101774819D01*
X82774755Y-101774819D02*
X82679517Y-101727200D01*
X82679517Y-101727200D02*
X82631898Y-101679580D01*
X228972842Y-131542380D02*
X228925223Y-131590000D01*
X228925223Y-131590000D02*
X228782366Y-131637619D01*
X228782366Y-131637619D02*
X228687128Y-131637619D01*
X228687128Y-131637619D02*
X228544271Y-131590000D01*
X228544271Y-131590000D02*
X228449033Y-131494761D01*
X228449033Y-131494761D02*
X228401414Y-131399523D01*
X228401414Y-131399523D02*
X228353795Y-131209047D01*
X228353795Y-131209047D02*
X228353795Y-131066190D01*
X228353795Y-131066190D02*
X228401414Y-130875714D01*
X228401414Y-130875714D02*
X228449033Y-130780476D01*
X228449033Y-130780476D02*
X228544271Y-130685238D01*
X228544271Y-130685238D02*
X228687128Y-130637619D01*
X228687128Y-130637619D02*
X228782366Y-130637619D01*
X228782366Y-130637619D02*
X228925223Y-130685238D01*
X228925223Y-130685238D02*
X228972842Y-130732857D01*
X229925223Y-131637619D02*
X229353795Y-131637619D01*
X229639509Y-131637619D02*
X229639509Y-130637619D01*
X229639509Y-130637619D02*
X229544271Y-130780476D01*
X229544271Y-130780476D02*
X229449033Y-130875714D01*
X229449033Y-130875714D02*
X229353795Y-130923333D01*
X230877604Y-131637619D02*
X230306176Y-131637619D01*
X230591890Y-131637619D02*
X230591890Y-130637619D01*
X230591890Y-130637619D02*
X230496652Y-130780476D01*
X230496652Y-130780476D02*
X230401414Y-130875714D01*
X230401414Y-130875714D02*
X230306176Y-130923333D01*
X224550733Y-134967619D02*
X224217400Y-134491428D01*
X223979305Y-134967619D02*
X223979305Y-133967619D01*
X223979305Y-133967619D02*
X224360257Y-133967619D01*
X224360257Y-133967619D02*
X224455495Y-134015238D01*
X224455495Y-134015238D02*
X224503114Y-134062857D01*
X224503114Y-134062857D02*
X224550733Y-134158095D01*
X224550733Y-134158095D02*
X224550733Y-134300952D01*
X224550733Y-134300952D02*
X224503114Y-134396190D01*
X224503114Y-134396190D02*
X224455495Y-134443809D01*
X224455495Y-134443809D02*
X224360257Y-134491428D01*
X224360257Y-134491428D02*
X223979305Y-134491428D01*
X225455495Y-133967619D02*
X224979305Y-133967619D01*
X224979305Y-133967619D02*
X224931686Y-134443809D01*
X224931686Y-134443809D02*
X224979305Y-134396190D01*
X224979305Y-134396190D02*
X225074543Y-134348571D01*
X225074543Y-134348571D02*
X225312638Y-134348571D01*
X225312638Y-134348571D02*
X225407876Y-134396190D01*
X225407876Y-134396190D02*
X225455495Y-134443809D01*
X225455495Y-134443809D02*
X225503114Y-134539047D01*
X225503114Y-134539047D02*
X225503114Y-134777142D01*
X225503114Y-134777142D02*
X225455495Y-134872380D01*
X225455495Y-134872380D02*
X225407876Y-134920000D01*
X225407876Y-134920000D02*
X225312638Y-134967619D01*
X225312638Y-134967619D02*
X225074543Y-134967619D01*
X225074543Y-134967619D02*
X224979305Y-134920000D01*
X224979305Y-134920000D02*
X224931686Y-134872380D01*
X130106219Y-103781294D02*
X129106219Y-103781294D01*
X129106219Y-103781294D02*
X129106219Y-103543199D01*
X129106219Y-103543199D02*
X129153838Y-103400342D01*
X129153838Y-103400342D02*
X129249076Y-103305104D01*
X129249076Y-103305104D02*
X129344314Y-103257485D01*
X129344314Y-103257485D02*
X129534790Y-103209866D01*
X129534790Y-103209866D02*
X129677647Y-103209866D01*
X129677647Y-103209866D02*
X129868123Y-103257485D01*
X129868123Y-103257485D02*
X129963361Y-103305104D01*
X129963361Y-103305104D02*
X130058600Y-103400342D01*
X130058600Y-103400342D02*
X130106219Y-103543199D01*
X130106219Y-103543199D02*
X130106219Y-103781294D01*
X129106219Y-102876532D02*
X129106219Y-102257485D01*
X129106219Y-102257485D02*
X129487171Y-102590818D01*
X129487171Y-102590818D02*
X129487171Y-102447961D01*
X129487171Y-102447961D02*
X129534790Y-102352723D01*
X129534790Y-102352723D02*
X129582409Y-102305104D01*
X129582409Y-102305104D02*
X129677647Y-102257485D01*
X129677647Y-102257485D02*
X129915742Y-102257485D01*
X129915742Y-102257485D02*
X130010980Y-102305104D01*
X130010980Y-102305104D02*
X130058600Y-102352723D01*
X130058600Y-102352723D02*
X130106219Y-102447961D01*
X130106219Y-102447961D02*
X130106219Y-102733675D01*
X130106219Y-102733675D02*
X130058600Y-102828913D01*
X130058600Y-102828913D02*
X130010980Y-102876532D01*
X129736219Y-98225104D02*
X128736219Y-98225104D01*
X129736219Y-97653676D02*
X129164790Y-98082247D01*
X128736219Y-97653676D02*
X129307647Y-98225104D01*
X130111019Y-124253694D02*
X129111019Y-124253694D01*
X129111019Y-124253694D02*
X129111019Y-124015599D01*
X129111019Y-124015599D02*
X129158638Y-123872742D01*
X129158638Y-123872742D02*
X129253876Y-123777504D01*
X129253876Y-123777504D02*
X129349114Y-123729885D01*
X129349114Y-123729885D02*
X129539590Y-123682266D01*
X129539590Y-123682266D02*
X129682447Y-123682266D01*
X129682447Y-123682266D02*
X129872923Y-123729885D01*
X129872923Y-123729885D02*
X129968161Y-123777504D01*
X129968161Y-123777504D02*
X130063400Y-123872742D01*
X130063400Y-123872742D02*
X130111019Y-124015599D01*
X130111019Y-124015599D02*
X130111019Y-124253694D01*
X129444352Y-122825123D02*
X130111019Y-122825123D01*
X129063400Y-123063218D02*
X129777685Y-123301313D01*
X129777685Y-123301313D02*
X129777685Y-122682266D01*
X129741019Y-118697504D02*
X128741019Y-118697504D01*
X129741019Y-118126076D02*
X129169590Y-118554647D01*
X128741019Y-118126076D02*
X129312447Y-118697504D01*
X65870833Y-58039580D02*
X65823214Y-58087200D01*
X65823214Y-58087200D02*
X65680357Y-58134819D01*
X65680357Y-58134819D02*
X65585119Y-58134819D01*
X65585119Y-58134819D02*
X65442262Y-58087200D01*
X65442262Y-58087200D02*
X65347024Y-57991961D01*
X65347024Y-57991961D02*
X65299405Y-57896723D01*
X65299405Y-57896723D02*
X65251786Y-57706247D01*
X65251786Y-57706247D02*
X65251786Y-57563390D01*
X65251786Y-57563390D02*
X65299405Y-57372914D01*
X65299405Y-57372914D02*
X65347024Y-57277676D01*
X65347024Y-57277676D02*
X65442262Y-57182438D01*
X65442262Y-57182438D02*
X65585119Y-57134819D01*
X65585119Y-57134819D02*
X65680357Y-57134819D01*
X65680357Y-57134819D02*
X65823214Y-57182438D01*
X65823214Y-57182438D02*
X65870833Y-57230057D01*
X66251786Y-57230057D02*
X66299405Y-57182438D01*
X66299405Y-57182438D02*
X66394643Y-57134819D01*
X66394643Y-57134819D02*
X66632738Y-57134819D01*
X66632738Y-57134819D02*
X66727976Y-57182438D01*
X66727976Y-57182438D02*
X66775595Y-57230057D01*
X66775595Y-57230057D02*
X66823214Y-57325295D01*
X66823214Y-57325295D02*
X66823214Y-57420533D01*
X66823214Y-57420533D02*
X66775595Y-57563390D01*
X66775595Y-57563390D02*
X66204167Y-58134819D01*
X66204167Y-58134819D02*
X66823214Y-58134819D01*
X172246363Y-60272380D02*
X172198744Y-60320000D01*
X172198744Y-60320000D02*
X172055887Y-60367619D01*
X172055887Y-60367619D02*
X171960649Y-60367619D01*
X171960649Y-60367619D02*
X171817792Y-60320000D01*
X171817792Y-60320000D02*
X171722554Y-60224761D01*
X171722554Y-60224761D02*
X171674935Y-60129523D01*
X171674935Y-60129523D02*
X171627316Y-59939047D01*
X171627316Y-59939047D02*
X171627316Y-59796190D01*
X171627316Y-59796190D02*
X171674935Y-59605714D01*
X171674935Y-59605714D02*
X171722554Y-59510476D01*
X171722554Y-59510476D02*
X171817792Y-59415238D01*
X171817792Y-59415238D02*
X171960649Y-59367619D01*
X171960649Y-59367619D02*
X172055887Y-59367619D01*
X172055887Y-59367619D02*
X172198744Y-59415238D01*
X172198744Y-59415238D02*
X172246363Y-59462857D01*
X172627316Y-59462857D02*
X172674935Y-59415238D01*
X172674935Y-59415238D02*
X172770173Y-59367619D01*
X172770173Y-59367619D02*
X173008268Y-59367619D01*
X173008268Y-59367619D02*
X173103506Y-59415238D01*
X173103506Y-59415238D02*
X173151125Y-59462857D01*
X173151125Y-59462857D02*
X173198744Y-59558095D01*
X173198744Y-59558095D02*
X173198744Y-59653333D01*
X173198744Y-59653333D02*
X173151125Y-59796190D01*
X173151125Y-59796190D02*
X172579697Y-60367619D01*
X172579697Y-60367619D02*
X173198744Y-60367619D01*
X174151125Y-60367619D02*
X173579697Y-60367619D01*
X173865411Y-60367619D02*
X173865411Y-59367619D01*
X173865411Y-59367619D02*
X173770173Y-59510476D01*
X173770173Y-59510476D02*
X173674935Y-59605714D01*
X173674935Y-59605714D02*
X173579697Y-59653333D01*
X220341866Y-119706019D02*
X220341866Y-120420304D01*
X220341866Y-120420304D02*
X220294247Y-120563161D01*
X220294247Y-120563161D02*
X220199009Y-120658400D01*
X220199009Y-120658400D02*
X220056152Y-120706019D01*
X220056152Y-120706019D02*
X219960914Y-120706019D01*
X220865676Y-120706019D02*
X221056152Y-120706019D01*
X221056152Y-120706019D02*
X221151390Y-120658400D01*
X221151390Y-120658400D02*
X221199009Y-120610780D01*
X221199009Y-120610780D02*
X221294247Y-120467923D01*
X221294247Y-120467923D02*
X221341866Y-120277447D01*
X221341866Y-120277447D02*
X221341866Y-119896495D01*
X221341866Y-119896495D02*
X221294247Y-119801257D01*
X221294247Y-119801257D02*
X221246628Y-119753638D01*
X221246628Y-119753638D02*
X221151390Y-119706019D01*
X221151390Y-119706019D02*
X220960914Y-119706019D01*
X220960914Y-119706019D02*
X220865676Y-119753638D01*
X220865676Y-119753638D02*
X220818057Y-119801257D01*
X220818057Y-119801257D02*
X220770438Y-119896495D01*
X220770438Y-119896495D02*
X220770438Y-120134590D01*
X220770438Y-120134590D02*
X220818057Y-120229828D01*
X220818057Y-120229828D02*
X220865676Y-120277447D01*
X220865676Y-120277447D02*
X220960914Y-120325066D01*
X220960914Y-120325066D02*
X221151390Y-120325066D01*
X221151390Y-120325066D02*
X221246628Y-120277447D01*
X221246628Y-120277447D02*
X221294247Y-120229828D01*
X221294247Y-120229828D02*
X221341866Y-120134590D01*
X171477629Y-136804780D02*
X171430010Y-136852400D01*
X171430010Y-136852400D02*
X171287153Y-136900019D01*
X171287153Y-136900019D02*
X171191915Y-136900019D01*
X171191915Y-136900019D02*
X171049058Y-136852400D01*
X171049058Y-136852400D02*
X170953820Y-136757161D01*
X170953820Y-136757161D02*
X170906201Y-136661923D01*
X170906201Y-136661923D02*
X170858582Y-136471447D01*
X170858582Y-136471447D02*
X170858582Y-136328590D01*
X170858582Y-136328590D02*
X170906201Y-136138114D01*
X170906201Y-136138114D02*
X170953820Y-136042876D01*
X170953820Y-136042876D02*
X171049058Y-135947638D01*
X171049058Y-135947638D02*
X171191915Y-135900019D01*
X171191915Y-135900019D02*
X171287153Y-135900019D01*
X171287153Y-135900019D02*
X171430010Y-135947638D01*
X171430010Y-135947638D02*
X171477629Y-135995257D01*
X172430010Y-136900019D02*
X171858582Y-136900019D01*
X172144296Y-136900019D02*
X172144296Y-135900019D01*
X172144296Y-135900019D02*
X172049058Y-136042876D01*
X172049058Y-136042876D02*
X171953820Y-136138114D01*
X171953820Y-136138114D02*
X171858582Y-136185733D01*
X173001439Y-136328590D02*
X172906201Y-136280971D01*
X172906201Y-136280971D02*
X172858582Y-136233352D01*
X172858582Y-136233352D02*
X172810963Y-136138114D01*
X172810963Y-136138114D02*
X172810963Y-136090495D01*
X172810963Y-136090495D02*
X172858582Y-135995257D01*
X172858582Y-135995257D02*
X172906201Y-135947638D01*
X172906201Y-135947638D02*
X173001439Y-135900019D01*
X173001439Y-135900019D02*
X173191915Y-135900019D01*
X173191915Y-135900019D02*
X173287153Y-135947638D01*
X173287153Y-135947638D02*
X173334772Y-135995257D01*
X173334772Y-135995257D02*
X173382391Y-136090495D01*
X173382391Y-136090495D02*
X173382391Y-136138114D01*
X173382391Y-136138114D02*
X173334772Y-136233352D01*
X173334772Y-136233352D02*
X173287153Y-136280971D01*
X173287153Y-136280971D02*
X173191915Y-136328590D01*
X173191915Y-136328590D02*
X173001439Y-136328590D01*
X173001439Y-136328590D02*
X172906201Y-136376209D01*
X172906201Y-136376209D02*
X172858582Y-136423828D01*
X172858582Y-136423828D02*
X172810963Y-136519066D01*
X172810963Y-136519066D02*
X172810963Y-136709542D01*
X172810963Y-136709542D02*
X172858582Y-136804780D01*
X172858582Y-136804780D02*
X172906201Y-136852400D01*
X172906201Y-136852400D02*
X173001439Y-136900019D01*
X173001439Y-136900019D02*
X173191915Y-136900019D01*
X173191915Y-136900019D02*
X173287153Y-136852400D01*
X173287153Y-136852400D02*
X173334772Y-136804780D01*
X173334772Y-136804780D02*
X173382391Y-136709542D01*
X173382391Y-136709542D02*
X173382391Y-136519066D01*
X173382391Y-136519066D02*
X173334772Y-136423828D01*
X173334772Y-136423828D02*
X173287153Y-136376209D01*
X173287153Y-136376209D02*
X173191915Y-136328590D01*
X71774819Y-89328333D02*
X72489104Y-89328333D01*
X72489104Y-89328333D02*
X72631961Y-89375952D01*
X72631961Y-89375952D02*
X72727200Y-89471190D01*
X72727200Y-89471190D02*
X72774819Y-89614047D01*
X72774819Y-89614047D02*
X72774819Y-89709285D01*
X71870057Y-88899761D02*
X71822438Y-88852142D01*
X71822438Y-88852142D02*
X71774819Y-88756904D01*
X71774819Y-88756904D02*
X71774819Y-88518809D01*
X71774819Y-88518809D02*
X71822438Y-88423571D01*
X71822438Y-88423571D02*
X71870057Y-88375952D01*
X71870057Y-88375952D02*
X71965295Y-88328333D01*
X71965295Y-88328333D02*
X72060533Y-88328333D01*
X72060533Y-88328333D02*
X72203390Y-88375952D01*
X72203390Y-88375952D02*
X72774819Y-88947380D01*
X72774819Y-88947380D02*
X72774819Y-88328333D01*
X174357142Y-117859580D02*
X174309523Y-117907200D01*
X174309523Y-117907200D02*
X174166666Y-117954819D01*
X174166666Y-117954819D02*
X174071428Y-117954819D01*
X174071428Y-117954819D02*
X173928571Y-117907200D01*
X173928571Y-117907200D02*
X173833333Y-117811961D01*
X173833333Y-117811961D02*
X173785714Y-117716723D01*
X173785714Y-117716723D02*
X173738095Y-117526247D01*
X173738095Y-117526247D02*
X173738095Y-117383390D01*
X173738095Y-117383390D02*
X173785714Y-117192914D01*
X173785714Y-117192914D02*
X173833333Y-117097676D01*
X173833333Y-117097676D02*
X173928571Y-117002438D01*
X173928571Y-117002438D02*
X174071428Y-116954819D01*
X174071428Y-116954819D02*
X174166666Y-116954819D01*
X174166666Y-116954819D02*
X174309523Y-117002438D01*
X174309523Y-117002438D02*
X174357142Y-117050057D01*
X175309523Y-117954819D02*
X174738095Y-117954819D01*
X175023809Y-117954819D02*
X175023809Y-116954819D01*
X175023809Y-116954819D02*
X174928571Y-117097676D01*
X174928571Y-117097676D02*
X174833333Y-117192914D01*
X174833333Y-117192914D02*
X174738095Y-117240533D01*
X175642857Y-116954819D02*
X176309523Y-116954819D01*
X176309523Y-116954819D02*
X175880952Y-117954819D01*
X216286333Y-134207619D02*
X215953000Y-133731428D01*
X215714905Y-134207619D02*
X215714905Y-133207619D01*
X215714905Y-133207619D02*
X216095857Y-133207619D01*
X216095857Y-133207619D02*
X216191095Y-133255238D01*
X216191095Y-133255238D02*
X216238714Y-133302857D01*
X216238714Y-133302857D02*
X216286333Y-133398095D01*
X216286333Y-133398095D02*
X216286333Y-133540952D01*
X216286333Y-133540952D02*
X216238714Y-133636190D01*
X216238714Y-133636190D02*
X216191095Y-133683809D01*
X216191095Y-133683809D02*
X216095857Y-133731428D01*
X216095857Y-133731428D02*
X215714905Y-133731428D01*
X217143476Y-133207619D02*
X216953000Y-133207619D01*
X216953000Y-133207619D02*
X216857762Y-133255238D01*
X216857762Y-133255238D02*
X216810143Y-133302857D01*
X216810143Y-133302857D02*
X216714905Y-133445714D01*
X216714905Y-133445714D02*
X216667286Y-133636190D01*
X216667286Y-133636190D02*
X216667286Y-134017142D01*
X216667286Y-134017142D02*
X216714905Y-134112380D01*
X216714905Y-134112380D02*
X216762524Y-134160000D01*
X216762524Y-134160000D02*
X216857762Y-134207619D01*
X216857762Y-134207619D02*
X217048238Y-134207619D01*
X217048238Y-134207619D02*
X217143476Y-134160000D01*
X217143476Y-134160000D02*
X217191095Y-134112380D01*
X217191095Y-134112380D02*
X217238714Y-134017142D01*
X217238714Y-134017142D02*
X217238714Y-133779047D01*
X217238714Y-133779047D02*
X217191095Y-133683809D01*
X217191095Y-133683809D02*
X217143476Y-133636190D01*
X217143476Y-133636190D02*
X217048238Y-133588571D01*
X217048238Y-133588571D02*
X216857762Y-133588571D01*
X216857762Y-133588571D02*
X216762524Y-133636190D01*
X216762524Y-133636190D02*
X216714905Y-133683809D01*
X216714905Y-133683809D02*
X216667286Y-133779047D01*
X214859095Y-141675619D02*
X215430523Y-141675619D01*
X215144809Y-142675619D02*
X215144809Y-141675619D01*
X215763857Y-142675619D02*
X215763857Y-141675619D01*
X215763857Y-141675619D02*
X216144809Y-141675619D01*
X216144809Y-141675619D02*
X216240047Y-141723238D01*
X216240047Y-141723238D02*
X216287666Y-141770857D01*
X216287666Y-141770857D02*
X216335285Y-141866095D01*
X216335285Y-141866095D02*
X216335285Y-142008952D01*
X216335285Y-142008952D02*
X216287666Y-142104190D01*
X216287666Y-142104190D02*
X216240047Y-142151809D01*
X216240047Y-142151809D02*
X216144809Y-142199428D01*
X216144809Y-142199428D02*
X215763857Y-142199428D01*
X216906714Y-142104190D02*
X216811476Y-142056571D01*
X216811476Y-142056571D02*
X216763857Y-142008952D01*
X216763857Y-142008952D02*
X216716238Y-141913714D01*
X216716238Y-141913714D02*
X216716238Y-141866095D01*
X216716238Y-141866095D02*
X216763857Y-141770857D01*
X216763857Y-141770857D02*
X216811476Y-141723238D01*
X216811476Y-141723238D02*
X216906714Y-141675619D01*
X216906714Y-141675619D02*
X217097190Y-141675619D01*
X217097190Y-141675619D02*
X217192428Y-141723238D01*
X217192428Y-141723238D02*
X217240047Y-141770857D01*
X217240047Y-141770857D02*
X217287666Y-141866095D01*
X217287666Y-141866095D02*
X217287666Y-141913714D01*
X217287666Y-141913714D02*
X217240047Y-142008952D01*
X217240047Y-142008952D02*
X217192428Y-142056571D01*
X217192428Y-142056571D02*
X217097190Y-142104190D01*
X217097190Y-142104190D02*
X216906714Y-142104190D01*
X216906714Y-142104190D02*
X216811476Y-142151809D01*
X216811476Y-142151809D02*
X216763857Y-142199428D01*
X216763857Y-142199428D02*
X216716238Y-142294666D01*
X216716238Y-142294666D02*
X216716238Y-142485142D01*
X216716238Y-142485142D02*
X216763857Y-142580380D01*
X216763857Y-142580380D02*
X216811476Y-142628000D01*
X216811476Y-142628000D02*
X216906714Y-142675619D01*
X216906714Y-142675619D02*
X217097190Y-142675619D01*
X217097190Y-142675619D02*
X217192428Y-142628000D01*
X217192428Y-142628000D02*
X217240047Y-142580380D01*
X217240047Y-142580380D02*
X217287666Y-142485142D01*
X217287666Y-142485142D02*
X217287666Y-142294666D01*
X217287666Y-142294666D02*
X217240047Y-142199428D01*
X217240047Y-142199428D02*
X217192428Y-142151809D01*
X217192428Y-142151809D02*
X217097190Y-142104190D01*
X216230695Y-132176019D02*
X216802123Y-132176019D01*
X216516409Y-133176019D02*
X216516409Y-132176019D01*
X217135457Y-133176019D02*
X217135457Y-132176019D01*
X217135457Y-132176019D02*
X217516409Y-132176019D01*
X217516409Y-132176019D02*
X217611647Y-132223638D01*
X217611647Y-132223638D02*
X217659266Y-132271257D01*
X217659266Y-132271257D02*
X217706885Y-132366495D01*
X217706885Y-132366495D02*
X217706885Y-132509352D01*
X217706885Y-132509352D02*
X217659266Y-132604590D01*
X217659266Y-132604590D02*
X217611647Y-132652209D01*
X217611647Y-132652209D02*
X217516409Y-132699828D01*
X217516409Y-132699828D02*
X217135457Y-132699828D01*
X218611647Y-132176019D02*
X218135457Y-132176019D01*
X218135457Y-132176019D02*
X218087838Y-132652209D01*
X218087838Y-132652209D02*
X218135457Y-132604590D01*
X218135457Y-132604590D02*
X218230695Y-132556971D01*
X218230695Y-132556971D02*
X218468790Y-132556971D01*
X218468790Y-132556971D02*
X218564028Y-132604590D01*
X218564028Y-132604590D02*
X218611647Y-132652209D01*
X218611647Y-132652209D02*
X218659266Y-132747447D01*
X218659266Y-132747447D02*
X218659266Y-132985542D01*
X218659266Y-132985542D02*
X218611647Y-133080780D01*
X218611647Y-133080780D02*
X218564028Y-133128400D01*
X218564028Y-133128400D02*
X218468790Y-133176019D01*
X218468790Y-133176019D02*
X218230695Y-133176019D01*
X218230695Y-133176019D02*
X218135457Y-133128400D01*
X218135457Y-133128400D02*
X218087838Y-133080780D01*
X83795833Y-116179580D02*
X83748214Y-116227200D01*
X83748214Y-116227200D02*
X83605357Y-116274819D01*
X83605357Y-116274819D02*
X83510119Y-116274819D01*
X83510119Y-116274819D02*
X83367262Y-116227200D01*
X83367262Y-116227200D02*
X83272024Y-116131961D01*
X83272024Y-116131961D02*
X83224405Y-116036723D01*
X83224405Y-116036723D02*
X83176786Y-115846247D01*
X83176786Y-115846247D02*
X83176786Y-115703390D01*
X83176786Y-115703390D02*
X83224405Y-115512914D01*
X83224405Y-115512914D02*
X83272024Y-115417676D01*
X83272024Y-115417676D02*
X83367262Y-115322438D01*
X83367262Y-115322438D02*
X83510119Y-115274819D01*
X83510119Y-115274819D02*
X83605357Y-115274819D01*
X83605357Y-115274819D02*
X83748214Y-115322438D01*
X83748214Y-115322438D02*
X83795833Y-115370057D01*
X84272024Y-116274819D02*
X84462500Y-116274819D01*
X84462500Y-116274819D02*
X84557738Y-116227200D01*
X84557738Y-116227200D02*
X84605357Y-116179580D01*
X84605357Y-116179580D02*
X84700595Y-116036723D01*
X84700595Y-116036723D02*
X84748214Y-115846247D01*
X84748214Y-115846247D02*
X84748214Y-115465295D01*
X84748214Y-115465295D02*
X84700595Y-115370057D01*
X84700595Y-115370057D02*
X84652976Y-115322438D01*
X84652976Y-115322438D02*
X84557738Y-115274819D01*
X84557738Y-115274819D02*
X84367262Y-115274819D01*
X84367262Y-115274819D02*
X84272024Y-115322438D01*
X84272024Y-115322438D02*
X84224405Y-115370057D01*
X84224405Y-115370057D02*
X84176786Y-115465295D01*
X84176786Y-115465295D02*
X84176786Y-115703390D01*
X84176786Y-115703390D02*
X84224405Y-115798628D01*
X84224405Y-115798628D02*
X84272024Y-115846247D01*
X84272024Y-115846247D02*
X84367262Y-115893866D01*
X84367262Y-115893866D02*
X84557738Y-115893866D01*
X84557738Y-115893866D02*
X84652976Y-115846247D01*
X84652976Y-115846247D02*
X84700595Y-115798628D01*
X84700595Y-115798628D02*
X84748214Y-115703390D01*
X171432742Y-136799180D02*
X171385123Y-136846800D01*
X171385123Y-136846800D02*
X171242266Y-136894419D01*
X171242266Y-136894419D02*
X171147028Y-136894419D01*
X171147028Y-136894419D02*
X171004171Y-136846800D01*
X171004171Y-136846800D02*
X170908933Y-136751561D01*
X170908933Y-136751561D02*
X170861314Y-136656323D01*
X170861314Y-136656323D02*
X170813695Y-136465847D01*
X170813695Y-136465847D02*
X170813695Y-136322990D01*
X170813695Y-136322990D02*
X170861314Y-136132514D01*
X170861314Y-136132514D02*
X170908933Y-136037276D01*
X170908933Y-136037276D02*
X171004171Y-135942038D01*
X171004171Y-135942038D02*
X171147028Y-135894419D01*
X171147028Y-135894419D02*
X171242266Y-135894419D01*
X171242266Y-135894419D02*
X171385123Y-135942038D01*
X171385123Y-135942038D02*
X171432742Y-135989657D01*
X172385123Y-136894419D02*
X171813695Y-136894419D01*
X172099409Y-136894419D02*
X172099409Y-135894419D01*
X172099409Y-135894419D02*
X172004171Y-136037276D01*
X172004171Y-136037276D02*
X171908933Y-136132514D01*
X171908933Y-136132514D02*
X171813695Y-136180133D01*
X172861314Y-136894419D02*
X173051790Y-136894419D01*
X173051790Y-136894419D02*
X173147028Y-136846800D01*
X173147028Y-136846800D02*
X173194647Y-136799180D01*
X173194647Y-136799180D02*
X173289885Y-136656323D01*
X173289885Y-136656323D02*
X173337504Y-136465847D01*
X173337504Y-136465847D02*
X173337504Y-136084895D01*
X173337504Y-136084895D02*
X173289885Y-135989657D01*
X173289885Y-135989657D02*
X173242266Y-135942038D01*
X173242266Y-135942038D02*
X173147028Y-135894419D01*
X173147028Y-135894419D02*
X172956552Y-135894419D01*
X172956552Y-135894419D02*
X172861314Y-135942038D01*
X172861314Y-135942038D02*
X172813695Y-135989657D01*
X172813695Y-135989657D02*
X172766076Y-136084895D01*
X172766076Y-136084895D02*
X172766076Y-136322990D01*
X172766076Y-136322990D02*
X172813695Y-136418228D01*
X172813695Y-136418228D02*
X172861314Y-136465847D01*
X172861314Y-136465847D02*
X172956552Y-136513466D01*
X172956552Y-136513466D02*
X173147028Y-136513466D01*
X173147028Y-136513466D02*
X173242266Y-136465847D01*
X173242266Y-136465847D02*
X173289885Y-136418228D01*
X173289885Y-136418228D02*
X173337504Y-136322990D01*
X153134819Y-103873333D02*
X153849104Y-103873333D01*
X153849104Y-103873333D02*
X153991961Y-103920952D01*
X153991961Y-103920952D02*
X154087200Y-104016190D01*
X154087200Y-104016190D02*
X154134819Y-104159047D01*
X154134819Y-104159047D02*
X154134819Y-104254285D01*
X153134819Y-103492380D02*
X153134819Y-102825714D01*
X153134819Y-102825714D02*
X154134819Y-103254285D01*
X71774819Y-102873333D02*
X72489104Y-102873333D01*
X72489104Y-102873333D02*
X72631961Y-102920952D01*
X72631961Y-102920952D02*
X72727200Y-103016190D01*
X72727200Y-103016190D02*
X72774819Y-103159047D01*
X72774819Y-103159047D02*
X72774819Y-103254285D01*
X71774819Y-102492380D02*
X71774819Y-101873333D01*
X71774819Y-101873333D02*
X72155771Y-102206666D01*
X72155771Y-102206666D02*
X72155771Y-102063809D01*
X72155771Y-102063809D02*
X72203390Y-101968571D01*
X72203390Y-101968571D02*
X72251009Y-101920952D01*
X72251009Y-101920952D02*
X72346247Y-101873333D01*
X72346247Y-101873333D02*
X72584342Y-101873333D01*
X72584342Y-101873333D02*
X72679580Y-101920952D01*
X72679580Y-101920952D02*
X72727200Y-101968571D01*
X72727200Y-101968571D02*
X72774819Y-102063809D01*
X72774819Y-102063809D02*
X72774819Y-102349523D01*
X72774819Y-102349523D02*
X72727200Y-102444761D01*
X72727200Y-102444761D02*
X72679580Y-102492380D01*
X216305133Y-123996819D02*
X215971800Y-123520628D01*
X215733705Y-123996819D02*
X215733705Y-122996819D01*
X215733705Y-122996819D02*
X216114657Y-122996819D01*
X216114657Y-122996819D02*
X216209895Y-123044438D01*
X216209895Y-123044438D02*
X216257514Y-123092057D01*
X216257514Y-123092057D02*
X216305133Y-123187295D01*
X216305133Y-123187295D02*
X216305133Y-123330152D01*
X216305133Y-123330152D02*
X216257514Y-123425390D01*
X216257514Y-123425390D02*
X216209895Y-123473009D01*
X216209895Y-123473009D02*
X216114657Y-123520628D01*
X216114657Y-123520628D02*
X215733705Y-123520628D01*
X216638467Y-122996819D02*
X217257514Y-122996819D01*
X217257514Y-122996819D02*
X216924181Y-123377771D01*
X216924181Y-123377771D02*
X217067038Y-123377771D01*
X217067038Y-123377771D02*
X217162276Y-123425390D01*
X217162276Y-123425390D02*
X217209895Y-123473009D01*
X217209895Y-123473009D02*
X217257514Y-123568247D01*
X217257514Y-123568247D02*
X217257514Y-123806342D01*
X217257514Y-123806342D02*
X217209895Y-123901580D01*
X217209895Y-123901580D02*
X217162276Y-123949200D01*
X217162276Y-123949200D02*
X217067038Y-123996819D01*
X217067038Y-123996819D02*
X216781324Y-123996819D01*
X216781324Y-123996819D02*
X216686086Y-123949200D01*
X216686086Y-123949200D02*
X216638467Y-123901580D01*
X71102319Y-65828333D02*
X71816604Y-65828333D01*
X71816604Y-65828333D02*
X71959461Y-65875952D01*
X71959461Y-65875952D02*
X72054700Y-65971190D01*
X72054700Y-65971190D02*
X72102319Y-66114047D01*
X72102319Y-66114047D02*
X72102319Y-66209285D01*
X72102319Y-64828333D02*
X72102319Y-65399761D01*
X72102319Y-65114047D02*
X71102319Y-65114047D01*
X71102319Y-65114047D02*
X71245176Y-65209285D01*
X71245176Y-65209285D02*
X71340414Y-65304523D01*
X71340414Y-65304523D02*
X71388033Y-65399761D01*
X229379242Y-139822780D02*
X229331623Y-139870400D01*
X229331623Y-139870400D02*
X229188766Y-139918019D01*
X229188766Y-139918019D02*
X229093528Y-139918019D01*
X229093528Y-139918019D02*
X228950671Y-139870400D01*
X228950671Y-139870400D02*
X228855433Y-139775161D01*
X228855433Y-139775161D02*
X228807814Y-139679923D01*
X228807814Y-139679923D02*
X228760195Y-139489447D01*
X228760195Y-139489447D02*
X228760195Y-139346590D01*
X228760195Y-139346590D02*
X228807814Y-139156114D01*
X228807814Y-139156114D02*
X228855433Y-139060876D01*
X228855433Y-139060876D02*
X228950671Y-138965638D01*
X228950671Y-138965638D02*
X229093528Y-138918019D01*
X229093528Y-138918019D02*
X229188766Y-138918019D01*
X229188766Y-138918019D02*
X229331623Y-138965638D01*
X229331623Y-138965638D02*
X229379242Y-139013257D01*
X230331623Y-139918019D02*
X229760195Y-139918019D01*
X230045909Y-139918019D02*
X230045909Y-138918019D01*
X230045909Y-138918019D02*
X229950671Y-139060876D01*
X229950671Y-139060876D02*
X229855433Y-139156114D01*
X229855433Y-139156114D02*
X229760195Y-139203733D01*
X230664957Y-138918019D02*
X231284004Y-138918019D01*
X231284004Y-138918019D02*
X230950671Y-139298971D01*
X230950671Y-139298971D02*
X231093528Y-139298971D01*
X231093528Y-139298971D02*
X231188766Y-139346590D01*
X231188766Y-139346590D02*
X231236385Y-139394209D01*
X231236385Y-139394209D02*
X231284004Y-139489447D01*
X231284004Y-139489447D02*
X231284004Y-139727542D01*
X231284004Y-139727542D02*
X231236385Y-139822780D01*
X231236385Y-139822780D02*
X231188766Y-139870400D01*
X231188766Y-139870400D02*
X231093528Y-139918019D01*
X231093528Y-139918019D02*
X230807814Y-139918019D01*
X230807814Y-139918019D02*
X230712576Y-139870400D01*
X230712576Y-139870400D02*
X230664957Y-139822780D01*
X201359442Y-61468380D02*
X201311823Y-61516000D01*
X201311823Y-61516000D02*
X201168966Y-61563619D01*
X201168966Y-61563619D02*
X201073728Y-61563619D01*
X201073728Y-61563619D02*
X200930871Y-61516000D01*
X200930871Y-61516000D02*
X200835633Y-61420761D01*
X200835633Y-61420761D02*
X200788014Y-61325523D01*
X200788014Y-61325523D02*
X200740395Y-61135047D01*
X200740395Y-61135047D02*
X200740395Y-60992190D01*
X200740395Y-60992190D02*
X200788014Y-60801714D01*
X200788014Y-60801714D02*
X200835633Y-60706476D01*
X200835633Y-60706476D02*
X200930871Y-60611238D01*
X200930871Y-60611238D02*
X201073728Y-60563619D01*
X201073728Y-60563619D02*
X201168966Y-60563619D01*
X201168966Y-60563619D02*
X201311823Y-60611238D01*
X201311823Y-60611238D02*
X201359442Y-60658857D01*
X201740395Y-60658857D02*
X201788014Y-60611238D01*
X201788014Y-60611238D02*
X201883252Y-60563619D01*
X201883252Y-60563619D02*
X202121347Y-60563619D01*
X202121347Y-60563619D02*
X202216585Y-60611238D01*
X202216585Y-60611238D02*
X202264204Y-60658857D01*
X202264204Y-60658857D02*
X202311823Y-60754095D01*
X202311823Y-60754095D02*
X202311823Y-60849333D01*
X202311823Y-60849333D02*
X202264204Y-60992190D01*
X202264204Y-60992190D02*
X201692776Y-61563619D01*
X201692776Y-61563619D02*
X202311823Y-61563619D01*
X202692776Y-60658857D02*
X202740395Y-60611238D01*
X202740395Y-60611238D02*
X202835633Y-60563619D01*
X202835633Y-60563619D02*
X203073728Y-60563619D01*
X203073728Y-60563619D02*
X203168966Y-60611238D01*
X203168966Y-60611238D02*
X203216585Y-60658857D01*
X203216585Y-60658857D02*
X203264204Y-60754095D01*
X203264204Y-60754095D02*
X203264204Y-60849333D01*
X203264204Y-60849333D02*
X203216585Y-60992190D01*
X203216585Y-60992190D02*
X202645157Y-61563619D01*
X202645157Y-61563619D02*
X203264204Y-61563619D01*
X75833333Y-99609580D02*
X75785714Y-99657200D01*
X75785714Y-99657200D02*
X75642857Y-99704819D01*
X75642857Y-99704819D02*
X75547619Y-99704819D01*
X75547619Y-99704819D02*
X75404762Y-99657200D01*
X75404762Y-99657200D02*
X75309524Y-99561961D01*
X75309524Y-99561961D02*
X75261905Y-99466723D01*
X75261905Y-99466723D02*
X75214286Y-99276247D01*
X75214286Y-99276247D02*
X75214286Y-99133390D01*
X75214286Y-99133390D02*
X75261905Y-98942914D01*
X75261905Y-98942914D02*
X75309524Y-98847676D01*
X75309524Y-98847676D02*
X75404762Y-98752438D01*
X75404762Y-98752438D02*
X75547619Y-98704819D01*
X75547619Y-98704819D02*
X75642857Y-98704819D01*
X75642857Y-98704819D02*
X75785714Y-98752438D01*
X75785714Y-98752438D02*
X75833333Y-98800057D01*
X76690476Y-98704819D02*
X76500000Y-98704819D01*
X76500000Y-98704819D02*
X76404762Y-98752438D01*
X76404762Y-98752438D02*
X76357143Y-98800057D01*
X76357143Y-98800057D02*
X76261905Y-98942914D01*
X76261905Y-98942914D02*
X76214286Y-99133390D01*
X76214286Y-99133390D02*
X76214286Y-99514342D01*
X76214286Y-99514342D02*
X76261905Y-99609580D01*
X76261905Y-99609580D02*
X76309524Y-99657200D01*
X76309524Y-99657200D02*
X76404762Y-99704819D01*
X76404762Y-99704819D02*
X76595238Y-99704819D01*
X76595238Y-99704819D02*
X76690476Y-99657200D01*
X76690476Y-99657200D02*
X76738095Y-99609580D01*
X76738095Y-99609580D02*
X76785714Y-99514342D01*
X76785714Y-99514342D02*
X76785714Y-99276247D01*
X76785714Y-99276247D02*
X76738095Y-99181009D01*
X76738095Y-99181009D02*
X76690476Y-99133390D01*
X76690476Y-99133390D02*
X76595238Y-99085771D01*
X76595238Y-99085771D02*
X76404762Y-99085771D01*
X76404762Y-99085771D02*
X76309524Y-99133390D01*
X76309524Y-99133390D02*
X76261905Y-99181009D01*
X76261905Y-99181009D02*
X76214286Y-99276247D01*
X140093105Y-132998819D02*
X140093105Y-131998819D01*
X140664533Y-132998819D02*
X140235962Y-132427390D01*
X140664533Y-131998819D02*
X140093105Y-132570247D01*
X141521676Y-132332152D02*
X141521676Y-132998819D01*
X141283581Y-131951200D02*
X141045486Y-132665485D01*
X141045486Y-132665485D02*
X141664533Y-132665485D01*
X166357142Y-112859580D02*
X166309523Y-112907200D01*
X166309523Y-112907200D02*
X166166666Y-112954819D01*
X166166666Y-112954819D02*
X166071428Y-112954819D01*
X166071428Y-112954819D02*
X165928571Y-112907200D01*
X165928571Y-112907200D02*
X165833333Y-112811961D01*
X165833333Y-112811961D02*
X165785714Y-112716723D01*
X165785714Y-112716723D02*
X165738095Y-112526247D01*
X165738095Y-112526247D02*
X165738095Y-112383390D01*
X165738095Y-112383390D02*
X165785714Y-112192914D01*
X165785714Y-112192914D02*
X165833333Y-112097676D01*
X165833333Y-112097676D02*
X165928571Y-112002438D01*
X165928571Y-112002438D02*
X166071428Y-111954819D01*
X166071428Y-111954819D02*
X166166666Y-111954819D01*
X166166666Y-111954819D02*
X166309523Y-112002438D01*
X166309523Y-112002438D02*
X166357142Y-112050057D01*
X167309523Y-112954819D02*
X166738095Y-112954819D01*
X167023809Y-112954819D02*
X167023809Y-111954819D01*
X167023809Y-111954819D02*
X166928571Y-112097676D01*
X166928571Y-112097676D02*
X166833333Y-112192914D01*
X166833333Y-112192914D02*
X166738095Y-112240533D01*
X168166666Y-111954819D02*
X167976190Y-111954819D01*
X167976190Y-111954819D02*
X167880952Y-112002438D01*
X167880952Y-112002438D02*
X167833333Y-112050057D01*
X167833333Y-112050057D02*
X167738095Y-112192914D01*
X167738095Y-112192914D02*
X167690476Y-112383390D01*
X167690476Y-112383390D02*
X167690476Y-112764342D01*
X167690476Y-112764342D02*
X167738095Y-112859580D01*
X167738095Y-112859580D02*
X167785714Y-112907200D01*
X167785714Y-112907200D02*
X167880952Y-112954819D01*
X167880952Y-112954819D02*
X168071428Y-112954819D01*
X168071428Y-112954819D02*
X168166666Y-112907200D01*
X168166666Y-112907200D02*
X168214285Y-112859580D01*
X168214285Y-112859580D02*
X168261904Y-112764342D01*
X168261904Y-112764342D02*
X168261904Y-112526247D01*
X168261904Y-112526247D02*
X168214285Y-112431009D01*
X168214285Y-112431009D02*
X168166666Y-112383390D01*
X168166666Y-112383390D02*
X168071428Y-112335771D01*
X168071428Y-112335771D02*
X167880952Y-112335771D01*
X167880952Y-112335771D02*
X167785714Y-112383390D01*
X167785714Y-112383390D02*
X167738095Y-112431009D01*
X167738095Y-112431009D02*
X167690476Y-112526247D01*
X189052476Y-54818019D02*
X189052476Y-55532304D01*
X189052476Y-55532304D02*
X189004857Y-55675161D01*
X189004857Y-55675161D02*
X188909619Y-55770400D01*
X188909619Y-55770400D02*
X188766762Y-55818019D01*
X188766762Y-55818019D02*
X188671524Y-55818019D01*
X190052476Y-55818019D02*
X189481048Y-55818019D01*
X189766762Y-55818019D02*
X189766762Y-54818019D01*
X189766762Y-54818019D02*
X189671524Y-54960876D01*
X189671524Y-54960876D02*
X189576286Y-55056114D01*
X189576286Y-55056114D02*
X189481048Y-55103733D01*
X191004857Y-55818019D02*
X190433429Y-55818019D01*
X190719143Y-55818019D02*
X190719143Y-54818019D01*
X190719143Y-54818019D02*
X190623905Y-54960876D01*
X190623905Y-54960876D02*
X190528667Y-55056114D01*
X190528667Y-55056114D02*
X190433429Y-55103733D01*
X128611019Y-62754594D02*
X127611019Y-62754594D01*
X127611019Y-62754594D02*
X127611019Y-62516499D01*
X127611019Y-62516499D02*
X127658638Y-62373642D01*
X127658638Y-62373642D02*
X127753876Y-62278404D01*
X127753876Y-62278404D02*
X127849114Y-62230785D01*
X127849114Y-62230785D02*
X128039590Y-62183166D01*
X128039590Y-62183166D02*
X128182447Y-62183166D01*
X128182447Y-62183166D02*
X128372923Y-62230785D01*
X128372923Y-62230785D02*
X128468161Y-62278404D01*
X128468161Y-62278404D02*
X128563400Y-62373642D01*
X128563400Y-62373642D02*
X128611019Y-62516499D01*
X128611019Y-62516499D02*
X128611019Y-62754594D01*
X127706257Y-61802213D02*
X127658638Y-61754594D01*
X127658638Y-61754594D02*
X127611019Y-61659356D01*
X127611019Y-61659356D02*
X127611019Y-61421261D01*
X127611019Y-61421261D02*
X127658638Y-61326023D01*
X127658638Y-61326023D02*
X127706257Y-61278404D01*
X127706257Y-61278404D02*
X127801495Y-61230785D01*
X127801495Y-61230785D02*
X127896733Y-61230785D01*
X127896733Y-61230785D02*
X128039590Y-61278404D01*
X128039590Y-61278404D02*
X128611019Y-61849832D01*
X128611019Y-61849832D02*
X128611019Y-61230785D01*
X128241019Y-57198404D02*
X127241019Y-57198404D01*
X128241019Y-56626976D02*
X127669590Y-57055547D01*
X127241019Y-56626976D02*
X127812447Y-57198404D01*
X225144333Y-143248019D02*
X224811000Y-142771828D01*
X224572905Y-143248019D02*
X224572905Y-142248019D01*
X224572905Y-142248019D02*
X224953857Y-142248019D01*
X224953857Y-142248019D02*
X225049095Y-142295638D01*
X225049095Y-142295638D02*
X225096714Y-142343257D01*
X225096714Y-142343257D02*
X225144333Y-142438495D01*
X225144333Y-142438495D02*
X225144333Y-142581352D01*
X225144333Y-142581352D02*
X225096714Y-142676590D01*
X225096714Y-142676590D02*
X225049095Y-142724209D01*
X225049095Y-142724209D02*
X224953857Y-142771828D01*
X224953857Y-142771828D02*
X224572905Y-142771828D01*
X225477667Y-142248019D02*
X226144333Y-142248019D01*
X226144333Y-142248019D02*
X225715762Y-143248019D01*
X139593105Y-112998819D02*
X139593105Y-111998819D01*
X140164533Y-112998819D02*
X139735962Y-112427390D01*
X140164533Y-111998819D02*
X139593105Y-112570247D01*
X140497867Y-111998819D02*
X141116914Y-111998819D01*
X141116914Y-111998819D02*
X140783581Y-112379771D01*
X140783581Y-112379771D02*
X140926438Y-112379771D01*
X140926438Y-112379771D02*
X141021676Y-112427390D01*
X141021676Y-112427390D02*
X141069295Y-112475009D01*
X141069295Y-112475009D02*
X141116914Y-112570247D01*
X141116914Y-112570247D02*
X141116914Y-112808342D01*
X141116914Y-112808342D02*
X141069295Y-112903580D01*
X141069295Y-112903580D02*
X141021676Y-112951200D01*
X141021676Y-112951200D02*
X140926438Y-112998819D01*
X140926438Y-112998819D02*
X140640724Y-112998819D01*
X140640724Y-112998819D02*
X140545486Y-112951200D01*
X140545486Y-112951200D02*
X140497867Y-112903580D01*
X83282142Y-128609580D02*
X83234523Y-128657200D01*
X83234523Y-128657200D02*
X83091666Y-128704819D01*
X83091666Y-128704819D02*
X82996428Y-128704819D01*
X82996428Y-128704819D02*
X82853571Y-128657200D01*
X82853571Y-128657200D02*
X82758333Y-128561961D01*
X82758333Y-128561961D02*
X82710714Y-128466723D01*
X82710714Y-128466723D02*
X82663095Y-128276247D01*
X82663095Y-128276247D02*
X82663095Y-128133390D01*
X82663095Y-128133390D02*
X82710714Y-127942914D01*
X82710714Y-127942914D02*
X82758333Y-127847676D01*
X82758333Y-127847676D02*
X82853571Y-127752438D01*
X82853571Y-127752438D02*
X82996428Y-127704819D01*
X82996428Y-127704819D02*
X83091666Y-127704819D01*
X83091666Y-127704819D02*
X83234523Y-127752438D01*
X83234523Y-127752438D02*
X83282142Y-127800057D01*
X84234523Y-128704819D02*
X83663095Y-128704819D01*
X83948809Y-128704819D02*
X83948809Y-127704819D01*
X83948809Y-127704819D02*
X83853571Y-127847676D01*
X83853571Y-127847676D02*
X83758333Y-127942914D01*
X83758333Y-127942914D02*
X83663095Y-127990533D01*
X84853571Y-127704819D02*
X84948809Y-127704819D01*
X84948809Y-127704819D02*
X85044047Y-127752438D01*
X85044047Y-127752438D02*
X85091666Y-127800057D01*
X85091666Y-127800057D02*
X85139285Y-127895295D01*
X85139285Y-127895295D02*
X85186904Y-128085771D01*
X85186904Y-128085771D02*
X85186904Y-128323866D01*
X85186904Y-128323866D02*
X85139285Y-128514342D01*
X85139285Y-128514342D02*
X85091666Y-128609580D01*
X85091666Y-128609580D02*
X85044047Y-128657200D01*
X85044047Y-128657200D02*
X84948809Y-128704819D01*
X84948809Y-128704819D02*
X84853571Y-128704819D01*
X84853571Y-128704819D02*
X84758333Y-128657200D01*
X84758333Y-128657200D02*
X84710714Y-128609580D01*
X84710714Y-128609580D02*
X84663095Y-128514342D01*
X84663095Y-128514342D02*
X84615476Y-128323866D01*
X84615476Y-128323866D02*
X84615476Y-128085771D01*
X84615476Y-128085771D02*
X84663095Y-127895295D01*
X84663095Y-127895295D02*
X84710714Y-127800057D01*
X84710714Y-127800057D02*
X84758333Y-127752438D01*
X84758333Y-127752438D02*
X84853571Y-127704819D01*
X227813095Y-126994419D02*
X228384523Y-126994419D01*
X228098809Y-127994419D02*
X228098809Y-126994419D01*
X228717857Y-127994419D02*
X228717857Y-126994419D01*
X228717857Y-126994419D02*
X229098809Y-126994419D01*
X229098809Y-126994419D02*
X229194047Y-127042038D01*
X229194047Y-127042038D02*
X229241666Y-127089657D01*
X229241666Y-127089657D02*
X229289285Y-127184895D01*
X229289285Y-127184895D02*
X229289285Y-127327752D01*
X229289285Y-127327752D02*
X229241666Y-127422990D01*
X229241666Y-127422990D02*
X229194047Y-127470609D01*
X229194047Y-127470609D02*
X229098809Y-127518228D01*
X229098809Y-127518228D02*
X228717857Y-127518228D01*
X229622619Y-126994419D02*
X230241666Y-126994419D01*
X230241666Y-126994419D02*
X229908333Y-127375371D01*
X229908333Y-127375371D02*
X230051190Y-127375371D01*
X230051190Y-127375371D02*
X230146428Y-127422990D01*
X230146428Y-127422990D02*
X230194047Y-127470609D01*
X230194047Y-127470609D02*
X230241666Y-127565847D01*
X230241666Y-127565847D02*
X230241666Y-127803942D01*
X230241666Y-127803942D02*
X230194047Y-127899180D01*
X230194047Y-127899180D02*
X230146428Y-127946800D01*
X230146428Y-127946800D02*
X230051190Y-127994419D01*
X230051190Y-127994419D02*
X229765476Y-127994419D01*
X229765476Y-127994419D02*
X229670238Y-127946800D01*
X229670238Y-127946800D02*
X229622619Y-127899180D01*
X158626666Y-67274819D02*
X158626666Y-67989104D01*
X158626666Y-67989104D02*
X158579047Y-68131961D01*
X158579047Y-68131961D02*
X158483809Y-68227200D01*
X158483809Y-68227200D02*
X158340952Y-68274819D01*
X158340952Y-68274819D02*
X158245714Y-68274819D01*
X159579047Y-67274819D02*
X159102857Y-67274819D01*
X159102857Y-67274819D02*
X159055238Y-67751009D01*
X159055238Y-67751009D02*
X159102857Y-67703390D01*
X159102857Y-67703390D02*
X159198095Y-67655771D01*
X159198095Y-67655771D02*
X159436190Y-67655771D01*
X159436190Y-67655771D02*
X159531428Y-67703390D01*
X159531428Y-67703390D02*
X159579047Y-67751009D01*
X159579047Y-67751009D02*
X159626666Y-67846247D01*
X159626666Y-67846247D02*
X159626666Y-68084342D01*
X159626666Y-68084342D02*
X159579047Y-68179580D01*
X159579047Y-68179580D02*
X159531428Y-68227200D01*
X159531428Y-68227200D02*
X159436190Y-68274819D01*
X159436190Y-68274819D02*
X159198095Y-68274819D01*
X159198095Y-68274819D02*
X159102857Y-68227200D01*
X159102857Y-68227200D02*
X159055238Y-68179580D01*
X72889533Y-58653580D02*
X72841914Y-58701200D01*
X72841914Y-58701200D02*
X72699057Y-58748819D01*
X72699057Y-58748819D02*
X72603819Y-58748819D01*
X72603819Y-58748819D02*
X72460962Y-58701200D01*
X72460962Y-58701200D02*
X72365724Y-58605961D01*
X72365724Y-58605961D02*
X72318105Y-58510723D01*
X72318105Y-58510723D02*
X72270486Y-58320247D01*
X72270486Y-58320247D02*
X72270486Y-58177390D01*
X72270486Y-58177390D02*
X72318105Y-57986914D01*
X72318105Y-57986914D02*
X72365724Y-57891676D01*
X72365724Y-57891676D02*
X72460962Y-57796438D01*
X72460962Y-57796438D02*
X72603819Y-57748819D01*
X72603819Y-57748819D02*
X72699057Y-57748819D01*
X72699057Y-57748819D02*
X72841914Y-57796438D01*
X72841914Y-57796438D02*
X72889533Y-57844057D01*
X73841914Y-58748819D02*
X73270486Y-58748819D01*
X73556200Y-58748819D02*
X73556200Y-57748819D01*
X73556200Y-57748819D02*
X73460962Y-57891676D01*
X73460962Y-57891676D02*
X73365724Y-57986914D01*
X73365724Y-57986914D02*
X73270486Y-58034533D01*
X224104695Y-138983219D02*
X224676123Y-138983219D01*
X224390409Y-139983219D02*
X224390409Y-138983219D01*
X225009457Y-139983219D02*
X225009457Y-138983219D01*
X225009457Y-138983219D02*
X225390409Y-138983219D01*
X225390409Y-138983219D02*
X225485647Y-139030838D01*
X225485647Y-139030838D02*
X225533266Y-139078457D01*
X225533266Y-139078457D02*
X225580885Y-139173695D01*
X225580885Y-139173695D02*
X225580885Y-139316552D01*
X225580885Y-139316552D02*
X225533266Y-139411790D01*
X225533266Y-139411790D02*
X225485647Y-139459409D01*
X225485647Y-139459409D02*
X225390409Y-139507028D01*
X225390409Y-139507028D02*
X225009457Y-139507028D01*
X225914219Y-138983219D02*
X226580885Y-138983219D01*
X226580885Y-138983219D02*
X226152314Y-139983219D01*
X183772305Y-64845219D02*
X184343733Y-64845219D01*
X184058019Y-65845219D02*
X184058019Y-64845219D01*
X184677067Y-65845219D02*
X184677067Y-64845219D01*
X184677067Y-64845219D02*
X185058019Y-64845219D01*
X185058019Y-64845219D02*
X185153257Y-64892838D01*
X185153257Y-64892838D02*
X185200876Y-64940457D01*
X185200876Y-64940457D02*
X185248495Y-65035695D01*
X185248495Y-65035695D02*
X185248495Y-65178552D01*
X185248495Y-65178552D02*
X185200876Y-65273790D01*
X185200876Y-65273790D02*
X185153257Y-65321409D01*
X185153257Y-65321409D02*
X185058019Y-65369028D01*
X185058019Y-65369028D02*
X184677067Y-65369028D01*
X186200876Y-65845219D02*
X185629448Y-65845219D01*
X185915162Y-65845219D02*
X185915162Y-64845219D01*
X185915162Y-64845219D02*
X185819924Y-64988076D01*
X185819924Y-64988076D02*
X185724686Y-65083314D01*
X185724686Y-65083314D02*
X185629448Y-65130933D01*
X187058019Y-64845219D02*
X186867543Y-64845219D01*
X186867543Y-64845219D02*
X186772305Y-64892838D01*
X186772305Y-64892838D02*
X186724686Y-64940457D01*
X186724686Y-64940457D02*
X186629448Y-65083314D01*
X186629448Y-65083314D02*
X186581829Y-65273790D01*
X186581829Y-65273790D02*
X186581829Y-65654742D01*
X186581829Y-65654742D02*
X186629448Y-65749980D01*
X186629448Y-65749980D02*
X186677067Y-65797600D01*
X186677067Y-65797600D02*
X186772305Y-65845219D01*
X186772305Y-65845219D02*
X186962781Y-65845219D01*
X186962781Y-65845219D02*
X187058019Y-65797600D01*
X187058019Y-65797600D02*
X187105638Y-65749980D01*
X187105638Y-65749980D02*
X187153257Y-65654742D01*
X187153257Y-65654742D02*
X187153257Y-65416647D01*
X187153257Y-65416647D02*
X187105638Y-65321409D01*
X187105638Y-65321409D02*
X187058019Y-65273790D01*
X187058019Y-65273790D02*
X186962781Y-65226171D01*
X186962781Y-65226171D02*
X186772305Y-65226171D01*
X186772305Y-65226171D02*
X186677067Y-65273790D01*
X186677067Y-65273790D02*
X186629448Y-65321409D01*
X186629448Y-65321409D02*
X186581829Y-65416647D01*
X64677033Y-81261080D02*
X64629414Y-81308700D01*
X64629414Y-81308700D02*
X64486557Y-81356319D01*
X64486557Y-81356319D02*
X64391319Y-81356319D01*
X64391319Y-81356319D02*
X64248462Y-81308700D01*
X64248462Y-81308700D02*
X64153224Y-81213461D01*
X64153224Y-81213461D02*
X64105605Y-81118223D01*
X64105605Y-81118223D02*
X64057986Y-80927747D01*
X64057986Y-80927747D02*
X64057986Y-80784890D01*
X64057986Y-80784890D02*
X64105605Y-80594414D01*
X64105605Y-80594414D02*
X64153224Y-80499176D01*
X64153224Y-80499176D02*
X64248462Y-80403938D01*
X64248462Y-80403938D02*
X64391319Y-80356319D01*
X64391319Y-80356319D02*
X64486557Y-80356319D01*
X64486557Y-80356319D02*
X64629414Y-80403938D01*
X64629414Y-80403938D02*
X64677033Y-80451557D01*
X65010367Y-80356319D02*
X65629414Y-80356319D01*
X65629414Y-80356319D02*
X65296081Y-80737271D01*
X65296081Y-80737271D02*
X65438938Y-80737271D01*
X65438938Y-80737271D02*
X65534176Y-80784890D01*
X65534176Y-80784890D02*
X65581795Y-80832509D01*
X65581795Y-80832509D02*
X65629414Y-80927747D01*
X65629414Y-80927747D02*
X65629414Y-81165842D01*
X65629414Y-81165842D02*
X65581795Y-81261080D01*
X65581795Y-81261080D02*
X65534176Y-81308700D01*
X65534176Y-81308700D02*
X65438938Y-81356319D01*
X65438938Y-81356319D02*
X65153224Y-81356319D01*
X65153224Y-81356319D02*
X65057986Y-81308700D01*
X65057986Y-81308700D02*
X65010367Y-81261080D01*
X215925895Y-124149619D02*
X216497323Y-124149619D01*
X216211609Y-125149619D02*
X216211609Y-124149619D01*
X216830657Y-125149619D02*
X216830657Y-124149619D01*
X216830657Y-124149619D02*
X217211609Y-124149619D01*
X217211609Y-124149619D02*
X217306847Y-124197238D01*
X217306847Y-124197238D02*
X217354466Y-124244857D01*
X217354466Y-124244857D02*
X217402085Y-124340095D01*
X217402085Y-124340095D02*
X217402085Y-124482952D01*
X217402085Y-124482952D02*
X217354466Y-124578190D01*
X217354466Y-124578190D02*
X217306847Y-124625809D01*
X217306847Y-124625809D02*
X217211609Y-124673428D01*
X217211609Y-124673428D02*
X216830657Y-124673428D01*
X218354466Y-125149619D02*
X217783038Y-125149619D01*
X218068752Y-125149619D02*
X218068752Y-124149619D01*
X218068752Y-124149619D02*
X217973514Y-124292476D01*
X217973514Y-124292476D02*
X217878276Y-124387714D01*
X217878276Y-124387714D02*
X217783038Y-124435333D01*
X139593105Y-71998819D02*
X139593105Y-70998819D01*
X140164533Y-71998819D02*
X139735962Y-71427390D01*
X140164533Y-70998819D02*
X139593105Y-71570247D01*
X140545486Y-71094057D02*
X140593105Y-71046438D01*
X140593105Y-71046438D02*
X140688343Y-70998819D01*
X140688343Y-70998819D02*
X140926438Y-70998819D01*
X140926438Y-70998819D02*
X141021676Y-71046438D01*
X141021676Y-71046438D02*
X141069295Y-71094057D01*
X141069295Y-71094057D02*
X141116914Y-71189295D01*
X141116914Y-71189295D02*
X141116914Y-71284533D01*
X141116914Y-71284533D02*
X141069295Y-71427390D01*
X141069295Y-71427390D02*
X140497867Y-71998819D01*
X140497867Y-71998819D02*
X141116914Y-71998819D01*
X93297866Y-63325009D02*
X92964533Y-63325009D01*
X92964533Y-63848819D02*
X92964533Y-62848819D01*
X92964533Y-62848819D02*
X93440723Y-62848819D01*
X94345485Y-63848819D02*
X93774057Y-63848819D01*
X94059771Y-63848819D02*
X94059771Y-62848819D01*
X94059771Y-62848819D02*
X93964533Y-62991676D01*
X93964533Y-62991676D02*
X93869295Y-63086914D01*
X93869295Y-63086914D02*
X93774057Y-63134533D01*
X224499933Y-124553619D02*
X224166600Y-124077428D01*
X223928505Y-124553619D02*
X223928505Y-123553619D01*
X223928505Y-123553619D02*
X224309457Y-123553619D01*
X224309457Y-123553619D02*
X224404695Y-123601238D01*
X224404695Y-123601238D02*
X224452314Y-123648857D01*
X224452314Y-123648857D02*
X224499933Y-123744095D01*
X224499933Y-123744095D02*
X224499933Y-123886952D01*
X224499933Y-123886952D02*
X224452314Y-123982190D01*
X224452314Y-123982190D02*
X224404695Y-124029809D01*
X224404695Y-124029809D02*
X224309457Y-124077428D01*
X224309457Y-124077428D02*
X223928505Y-124077428D01*
X224880886Y-123648857D02*
X224928505Y-123601238D01*
X224928505Y-123601238D02*
X225023743Y-123553619D01*
X225023743Y-123553619D02*
X225261838Y-123553619D01*
X225261838Y-123553619D02*
X225357076Y-123601238D01*
X225357076Y-123601238D02*
X225404695Y-123648857D01*
X225404695Y-123648857D02*
X225452314Y-123744095D01*
X225452314Y-123744095D02*
X225452314Y-123839333D01*
X225452314Y-123839333D02*
X225404695Y-123982190D01*
X225404695Y-123982190D02*
X224833267Y-124553619D01*
X224833267Y-124553619D02*
X225452314Y-124553619D01*
X72283133Y-81894780D02*
X72235514Y-81942400D01*
X72235514Y-81942400D02*
X72092657Y-81990019D01*
X72092657Y-81990019D02*
X71997419Y-81990019D01*
X71997419Y-81990019D02*
X71854562Y-81942400D01*
X71854562Y-81942400D02*
X71759324Y-81847161D01*
X71759324Y-81847161D02*
X71711705Y-81751923D01*
X71711705Y-81751923D02*
X71664086Y-81561447D01*
X71664086Y-81561447D02*
X71664086Y-81418590D01*
X71664086Y-81418590D02*
X71711705Y-81228114D01*
X71711705Y-81228114D02*
X71759324Y-81132876D01*
X71759324Y-81132876D02*
X71854562Y-81037638D01*
X71854562Y-81037638D02*
X71997419Y-80990019D01*
X71997419Y-80990019D02*
X72092657Y-80990019D01*
X72092657Y-80990019D02*
X72235514Y-81037638D01*
X72235514Y-81037638D02*
X72283133Y-81085257D01*
X73140276Y-81323352D02*
X73140276Y-81990019D01*
X72902181Y-80942400D02*
X72664086Y-81656685D01*
X72664086Y-81656685D02*
X73283133Y-81656685D01*
X183721505Y-75259219D02*
X184292933Y-75259219D01*
X184007219Y-76259219D02*
X184007219Y-75259219D01*
X184626267Y-76259219D02*
X184626267Y-75259219D01*
X184626267Y-75259219D02*
X185007219Y-75259219D01*
X185007219Y-75259219D02*
X185102457Y-75306838D01*
X185102457Y-75306838D02*
X185150076Y-75354457D01*
X185150076Y-75354457D02*
X185197695Y-75449695D01*
X185197695Y-75449695D02*
X185197695Y-75592552D01*
X185197695Y-75592552D02*
X185150076Y-75687790D01*
X185150076Y-75687790D02*
X185102457Y-75735409D01*
X185102457Y-75735409D02*
X185007219Y-75783028D01*
X185007219Y-75783028D02*
X184626267Y-75783028D01*
X186150076Y-76259219D02*
X185578648Y-76259219D01*
X185864362Y-76259219D02*
X185864362Y-75259219D01*
X185864362Y-75259219D02*
X185769124Y-75402076D01*
X185769124Y-75402076D02*
X185673886Y-75497314D01*
X185673886Y-75497314D02*
X185578648Y-75544933D01*
X186721505Y-75687790D02*
X186626267Y-75640171D01*
X186626267Y-75640171D02*
X186578648Y-75592552D01*
X186578648Y-75592552D02*
X186531029Y-75497314D01*
X186531029Y-75497314D02*
X186531029Y-75449695D01*
X186531029Y-75449695D02*
X186578648Y-75354457D01*
X186578648Y-75354457D02*
X186626267Y-75306838D01*
X186626267Y-75306838D02*
X186721505Y-75259219D01*
X186721505Y-75259219D02*
X186911981Y-75259219D01*
X186911981Y-75259219D02*
X187007219Y-75306838D01*
X187007219Y-75306838D02*
X187054838Y-75354457D01*
X187054838Y-75354457D02*
X187102457Y-75449695D01*
X187102457Y-75449695D02*
X187102457Y-75497314D01*
X187102457Y-75497314D02*
X187054838Y-75592552D01*
X187054838Y-75592552D02*
X187007219Y-75640171D01*
X187007219Y-75640171D02*
X186911981Y-75687790D01*
X186911981Y-75687790D02*
X186721505Y-75687790D01*
X186721505Y-75687790D02*
X186626267Y-75735409D01*
X186626267Y-75735409D02*
X186578648Y-75783028D01*
X186578648Y-75783028D02*
X186531029Y-75878266D01*
X186531029Y-75878266D02*
X186531029Y-76068742D01*
X186531029Y-76068742D02*
X186578648Y-76163980D01*
X186578648Y-76163980D02*
X186626267Y-76211600D01*
X186626267Y-76211600D02*
X186721505Y-76259219D01*
X186721505Y-76259219D02*
X186911981Y-76259219D01*
X186911981Y-76259219D02*
X187007219Y-76211600D01*
X187007219Y-76211600D02*
X187054838Y-76163980D01*
X187054838Y-76163980D02*
X187102457Y-76068742D01*
X187102457Y-76068742D02*
X187102457Y-75878266D01*
X187102457Y-75878266D02*
X187054838Y-75783028D01*
X187054838Y-75783028D02*
X187007219Y-75735409D01*
X187007219Y-75735409D02*
X186911981Y-75687790D01*
X183721505Y-70077619D02*
X184292933Y-70077619D01*
X184007219Y-71077619D02*
X184007219Y-70077619D01*
X184626267Y-71077619D02*
X184626267Y-70077619D01*
X184626267Y-70077619D02*
X185007219Y-70077619D01*
X185007219Y-70077619D02*
X185102457Y-70125238D01*
X185102457Y-70125238D02*
X185150076Y-70172857D01*
X185150076Y-70172857D02*
X185197695Y-70268095D01*
X185197695Y-70268095D02*
X185197695Y-70410952D01*
X185197695Y-70410952D02*
X185150076Y-70506190D01*
X185150076Y-70506190D02*
X185102457Y-70553809D01*
X185102457Y-70553809D02*
X185007219Y-70601428D01*
X185007219Y-70601428D02*
X184626267Y-70601428D01*
X186150076Y-71077619D02*
X185578648Y-71077619D01*
X185864362Y-71077619D02*
X185864362Y-70077619D01*
X185864362Y-70077619D02*
X185769124Y-70220476D01*
X185769124Y-70220476D02*
X185673886Y-70315714D01*
X185673886Y-70315714D02*
X185578648Y-70363333D01*
X186483410Y-70077619D02*
X187150076Y-70077619D01*
X187150076Y-70077619D02*
X186721505Y-71077619D01*
X211556242Y-137442380D02*
X211508623Y-137490000D01*
X211508623Y-137490000D02*
X211365766Y-137537619D01*
X211365766Y-137537619D02*
X211270528Y-137537619D01*
X211270528Y-137537619D02*
X211127671Y-137490000D01*
X211127671Y-137490000D02*
X211032433Y-137394761D01*
X211032433Y-137394761D02*
X210984814Y-137299523D01*
X210984814Y-137299523D02*
X210937195Y-137109047D01*
X210937195Y-137109047D02*
X210937195Y-136966190D01*
X210937195Y-136966190D02*
X210984814Y-136775714D01*
X210984814Y-136775714D02*
X211032433Y-136680476D01*
X211032433Y-136680476D02*
X211127671Y-136585238D01*
X211127671Y-136585238D02*
X211270528Y-136537619D01*
X211270528Y-136537619D02*
X211365766Y-136537619D01*
X211365766Y-136537619D02*
X211508623Y-136585238D01*
X211508623Y-136585238D02*
X211556242Y-136632857D01*
X212508623Y-137537619D02*
X211937195Y-137537619D01*
X212222909Y-137537619D02*
X212222909Y-136537619D01*
X212222909Y-136537619D02*
X212127671Y-136680476D01*
X212127671Y-136680476D02*
X212032433Y-136775714D01*
X212032433Y-136775714D02*
X211937195Y-136823333D01*
X212889576Y-136632857D02*
X212937195Y-136585238D01*
X212937195Y-136585238D02*
X213032433Y-136537619D01*
X213032433Y-136537619D02*
X213270528Y-136537619D01*
X213270528Y-136537619D02*
X213365766Y-136585238D01*
X213365766Y-136585238D02*
X213413385Y-136632857D01*
X213413385Y-136632857D02*
X213461004Y-136728095D01*
X213461004Y-136728095D02*
X213461004Y-136823333D01*
X213461004Y-136823333D02*
X213413385Y-136966190D01*
X213413385Y-136966190D02*
X212841957Y-137537619D01*
X212841957Y-137537619D02*
X213461004Y-137537619D01*
X152634819Y-81873333D02*
X153349104Y-81873333D01*
X153349104Y-81873333D02*
X153491961Y-81920952D01*
X153491961Y-81920952D02*
X153587200Y-82016190D01*
X153587200Y-82016190D02*
X153634819Y-82159047D01*
X153634819Y-82159047D02*
X153634819Y-82254285D01*
X152634819Y-80968571D02*
X152634819Y-81159047D01*
X152634819Y-81159047D02*
X152682438Y-81254285D01*
X152682438Y-81254285D02*
X152730057Y-81301904D01*
X152730057Y-81301904D02*
X152872914Y-81397142D01*
X152872914Y-81397142D02*
X153063390Y-81444761D01*
X153063390Y-81444761D02*
X153444342Y-81444761D01*
X153444342Y-81444761D02*
X153539580Y-81397142D01*
X153539580Y-81397142D02*
X153587200Y-81349523D01*
X153587200Y-81349523D02*
X153634819Y-81254285D01*
X153634819Y-81254285D02*
X153634819Y-81063809D01*
X153634819Y-81063809D02*
X153587200Y-80968571D01*
X153587200Y-80968571D02*
X153539580Y-80920952D01*
X153539580Y-80920952D02*
X153444342Y-80873333D01*
X153444342Y-80873333D02*
X153206247Y-80873333D01*
X153206247Y-80873333D02*
X153111009Y-80920952D01*
X153111009Y-80920952D02*
X153063390Y-80968571D01*
X153063390Y-80968571D02*
X153015771Y-81063809D01*
X153015771Y-81063809D02*
X153015771Y-81254285D01*
X153015771Y-81254285D02*
X153063390Y-81349523D01*
X153063390Y-81349523D02*
X153111009Y-81397142D01*
X153111009Y-81397142D02*
X153206247Y-81444761D01*
X159892866Y-116651319D02*
X159892866Y-117365604D01*
X159892866Y-117365604D02*
X159845247Y-117508461D01*
X159845247Y-117508461D02*
X159750009Y-117603700D01*
X159750009Y-117603700D02*
X159607152Y-117651319D01*
X159607152Y-117651319D02*
X159511914Y-117651319D01*
X160511914Y-117079890D02*
X160416676Y-117032271D01*
X160416676Y-117032271D02*
X160369057Y-116984652D01*
X160369057Y-116984652D02*
X160321438Y-116889414D01*
X160321438Y-116889414D02*
X160321438Y-116841795D01*
X160321438Y-116841795D02*
X160369057Y-116746557D01*
X160369057Y-116746557D02*
X160416676Y-116698938D01*
X160416676Y-116698938D02*
X160511914Y-116651319D01*
X160511914Y-116651319D02*
X160702390Y-116651319D01*
X160702390Y-116651319D02*
X160797628Y-116698938D01*
X160797628Y-116698938D02*
X160845247Y-116746557D01*
X160845247Y-116746557D02*
X160892866Y-116841795D01*
X160892866Y-116841795D02*
X160892866Y-116889414D01*
X160892866Y-116889414D02*
X160845247Y-116984652D01*
X160845247Y-116984652D02*
X160797628Y-117032271D01*
X160797628Y-117032271D02*
X160702390Y-117079890D01*
X160702390Y-117079890D02*
X160511914Y-117079890D01*
X160511914Y-117079890D02*
X160416676Y-117127509D01*
X160416676Y-117127509D02*
X160369057Y-117175128D01*
X160369057Y-117175128D02*
X160321438Y-117270366D01*
X160321438Y-117270366D02*
X160321438Y-117460842D01*
X160321438Y-117460842D02*
X160369057Y-117556080D01*
X160369057Y-117556080D02*
X160416676Y-117603700D01*
X160416676Y-117603700D02*
X160511914Y-117651319D01*
X160511914Y-117651319D02*
X160702390Y-117651319D01*
X160702390Y-117651319D02*
X160797628Y-117603700D01*
X160797628Y-117603700D02*
X160845247Y-117556080D01*
X160845247Y-117556080D02*
X160892866Y-117460842D01*
X160892866Y-117460842D02*
X160892866Y-117270366D01*
X160892866Y-117270366D02*
X160845247Y-117175128D01*
X160845247Y-117175128D02*
X160797628Y-117127509D01*
X160797628Y-117127509D02*
X160702390Y-117079890D01*
X209677495Y-127807219D02*
X210248923Y-127807219D01*
X209963209Y-128807219D02*
X209963209Y-127807219D01*
X210582257Y-128807219D02*
X210582257Y-127807219D01*
X210582257Y-127807219D02*
X210963209Y-127807219D01*
X210963209Y-127807219D02*
X211058447Y-127854838D01*
X211058447Y-127854838D02*
X211106066Y-127902457D01*
X211106066Y-127902457D02*
X211153685Y-127997695D01*
X211153685Y-127997695D02*
X211153685Y-128140552D01*
X211153685Y-128140552D02*
X211106066Y-128235790D01*
X211106066Y-128235790D02*
X211058447Y-128283409D01*
X211058447Y-128283409D02*
X210963209Y-128331028D01*
X210963209Y-128331028D02*
X210582257Y-128331028D01*
X212010828Y-128140552D02*
X212010828Y-128807219D01*
X211772733Y-127759600D02*
X211534638Y-128473885D01*
X211534638Y-128473885D02*
X212153685Y-128473885D01*
X206070695Y-134665219D02*
X206642123Y-134665219D01*
X206356409Y-135665219D02*
X206356409Y-134665219D01*
X206975457Y-135665219D02*
X206975457Y-134665219D01*
X206975457Y-134665219D02*
X207356409Y-134665219D01*
X207356409Y-134665219D02*
X207451647Y-134712838D01*
X207451647Y-134712838D02*
X207499266Y-134760457D01*
X207499266Y-134760457D02*
X207546885Y-134855695D01*
X207546885Y-134855695D02*
X207546885Y-134998552D01*
X207546885Y-134998552D02*
X207499266Y-135093790D01*
X207499266Y-135093790D02*
X207451647Y-135141409D01*
X207451647Y-135141409D02*
X207356409Y-135189028D01*
X207356409Y-135189028D02*
X206975457Y-135189028D01*
X208404028Y-134665219D02*
X208213552Y-134665219D01*
X208213552Y-134665219D02*
X208118314Y-134712838D01*
X208118314Y-134712838D02*
X208070695Y-134760457D01*
X208070695Y-134760457D02*
X207975457Y-134903314D01*
X207975457Y-134903314D02*
X207927838Y-135093790D01*
X207927838Y-135093790D02*
X207927838Y-135474742D01*
X207927838Y-135474742D02*
X207975457Y-135569980D01*
X207975457Y-135569980D02*
X208023076Y-135617600D01*
X208023076Y-135617600D02*
X208118314Y-135665219D01*
X208118314Y-135665219D02*
X208308790Y-135665219D01*
X208308790Y-135665219D02*
X208404028Y-135617600D01*
X208404028Y-135617600D02*
X208451647Y-135569980D01*
X208451647Y-135569980D02*
X208499266Y-135474742D01*
X208499266Y-135474742D02*
X208499266Y-135236647D01*
X208499266Y-135236647D02*
X208451647Y-135141409D01*
X208451647Y-135141409D02*
X208404028Y-135093790D01*
X208404028Y-135093790D02*
X208308790Y-135046171D01*
X208308790Y-135046171D02*
X208118314Y-135046171D01*
X208118314Y-135046171D02*
X208023076Y-135093790D01*
X208023076Y-135093790D02*
X207975457Y-135141409D01*
X207975457Y-135141409D02*
X207927838Y-135236647D01*
X76333333Y-122109580D02*
X76285714Y-122157200D01*
X76285714Y-122157200D02*
X76142857Y-122204819D01*
X76142857Y-122204819D02*
X76047619Y-122204819D01*
X76047619Y-122204819D02*
X75904762Y-122157200D01*
X75904762Y-122157200D02*
X75809524Y-122061961D01*
X75809524Y-122061961D02*
X75761905Y-121966723D01*
X75761905Y-121966723D02*
X75714286Y-121776247D01*
X75714286Y-121776247D02*
X75714286Y-121633390D01*
X75714286Y-121633390D02*
X75761905Y-121442914D01*
X75761905Y-121442914D02*
X75809524Y-121347676D01*
X75809524Y-121347676D02*
X75904762Y-121252438D01*
X75904762Y-121252438D02*
X76047619Y-121204819D01*
X76047619Y-121204819D02*
X76142857Y-121204819D01*
X76142857Y-121204819D02*
X76285714Y-121252438D01*
X76285714Y-121252438D02*
X76333333Y-121300057D01*
X76904762Y-121633390D02*
X76809524Y-121585771D01*
X76809524Y-121585771D02*
X76761905Y-121538152D01*
X76761905Y-121538152D02*
X76714286Y-121442914D01*
X76714286Y-121442914D02*
X76714286Y-121395295D01*
X76714286Y-121395295D02*
X76761905Y-121300057D01*
X76761905Y-121300057D02*
X76809524Y-121252438D01*
X76809524Y-121252438D02*
X76904762Y-121204819D01*
X76904762Y-121204819D02*
X77095238Y-121204819D01*
X77095238Y-121204819D02*
X77190476Y-121252438D01*
X77190476Y-121252438D02*
X77238095Y-121300057D01*
X77238095Y-121300057D02*
X77285714Y-121395295D01*
X77285714Y-121395295D02*
X77285714Y-121442914D01*
X77285714Y-121442914D02*
X77238095Y-121538152D01*
X77238095Y-121538152D02*
X77190476Y-121585771D01*
X77190476Y-121585771D02*
X77095238Y-121633390D01*
X77095238Y-121633390D02*
X76904762Y-121633390D01*
X76904762Y-121633390D02*
X76809524Y-121681009D01*
X76809524Y-121681009D02*
X76761905Y-121728628D01*
X76761905Y-121728628D02*
X76714286Y-121823866D01*
X76714286Y-121823866D02*
X76714286Y-122014342D01*
X76714286Y-122014342D02*
X76761905Y-122109580D01*
X76761905Y-122109580D02*
X76809524Y-122157200D01*
X76809524Y-122157200D02*
X76904762Y-122204819D01*
X76904762Y-122204819D02*
X77095238Y-122204819D01*
X77095238Y-122204819D02*
X77190476Y-122157200D01*
X77190476Y-122157200D02*
X77238095Y-122109580D01*
X77238095Y-122109580D02*
X77285714Y-122014342D01*
X77285714Y-122014342D02*
X77285714Y-121823866D01*
X77285714Y-121823866D02*
X77238095Y-121728628D01*
X77238095Y-121728628D02*
X77190476Y-121681009D01*
X77190476Y-121681009D02*
X77095238Y-121633390D01*
X72274819Y-121833333D02*
X72989104Y-121833333D01*
X72989104Y-121833333D02*
X73131961Y-121880952D01*
X73131961Y-121880952D02*
X73227200Y-121976190D01*
X73227200Y-121976190D02*
X73274819Y-122119047D01*
X73274819Y-122119047D02*
X73274819Y-122214285D01*
X72608152Y-120928571D02*
X73274819Y-120928571D01*
X72227200Y-121166666D02*
X72941485Y-121404761D01*
X72941485Y-121404761D02*
X72941485Y-120785714D01*
X76295833Y-115679580D02*
X76248214Y-115727200D01*
X76248214Y-115727200D02*
X76105357Y-115774819D01*
X76105357Y-115774819D02*
X76010119Y-115774819D01*
X76010119Y-115774819D02*
X75867262Y-115727200D01*
X75867262Y-115727200D02*
X75772024Y-115631961D01*
X75772024Y-115631961D02*
X75724405Y-115536723D01*
X75724405Y-115536723D02*
X75676786Y-115346247D01*
X75676786Y-115346247D02*
X75676786Y-115203390D01*
X75676786Y-115203390D02*
X75724405Y-115012914D01*
X75724405Y-115012914D02*
X75772024Y-114917676D01*
X75772024Y-114917676D02*
X75867262Y-114822438D01*
X75867262Y-114822438D02*
X76010119Y-114774819D01*
X76010119Y-114774819D02*
X76105357Y-114774819D01*
X76105357Y-114774819D02*
X76248214Y-114822438D01*
X76248214Y-114822438D02*
X76295833Y-114870057D01*
X76629167Y-114774819D02*
X77295833Y-114774819D01*
X77295833Y-114774819D02*
X76867262Y-115774819D01*
D11*
%TO.C,TP13*%
X222500000Y-78000000D02*
G75*
G02*
X219500000Y-78000000I-1500000J0D01*
G01*
X219500000Y-78000000D02*
G75*
G02*
X222500000Y-78000000I1500000J0D01*
G01*
%TO.C,TP9*%
X232334900Y-86126800D02*
G75*
G02*
X229334900Y-86126800I-1500000J0D01*
G01*
X229334900Y-86126800D02*
G75*
G02*
X232334900Y-86126800I1500000J0D01*
G01*
%TO.C,TP11*%
X222022800Y-89001600D02*
G75*
G02*
X219022800Y-89001600I-1500000J0D01*
G01*
X219022800Y-89001600D02*
G75*
G02*
X222022800Y-89001600I1500000J0D01*
G01*
%TO.C,C14*%
X207544700Y-89516152D02*
X207544700Y-88993648D01*
X209014700Y-89516152D02*
X209014700Y-88993648D01*
%TO.C,R9*%
X227051900Y-89014536D02*
X227051900Y-89468664D01*
X228521900Y-89014536D02*
X228521900Y-89468664D01*
%TO.C,J10*%
X240440100Y-91808800D02*
X240440100Y-101388800D01*
X230725100Y-90914462D02*
X230475100Y-91347475D01*
X230475100Y-91347475D02*
X230225100Y-90914462D01*
X230225100Y-90914462D02*
X230725100Y-90914462D01*
X201120100Y-101388800D02*
X201120100Y-91808800D01*
X201120100Y-91808800D02*
X240440100Y-91808800D01*
%TO.C,TP10*%
X206122100Y-88514400D02*
G75*
G02*
X203122100Y-88514400I-1500000J0D01*
G01*
X203122100Y-88514400D02*
G75*
G02*
X206122100Y-88514400I1500000J0D01*
G01*
%TO.C,R8*%
X210287900Y-89065336D02*
X210287900Y-89519464D01*
X211757900Y-89065336D02*
X211757900Y-89519464D01*
%TO.C,C15*%
X230696748Y-89354200D02*
X231219252Y-89354200D01*
X230696748Y-90824200D02*
X231219252Y-90824200D01*
%TO.C,TP12*%
X216231600Y-89103200D02*
G75*
G02*
X213231600Y-89103200I-1500000J0D01*
G01*
X213231600Y-89103200D02*
G75*
G02*
X216231600Y-89103200I1500000J0D01*
G01*
%TO.C,K1*%
X150981200Y-91094000D02*
X131181200Y-91094000D01*
X150981200Y-75494000D02*
X150981200Y-91094000D01*
X146731200Y-84794000D02*
X146731200Y-87294000D01*
X143531200Y-83344000D02*
X148131200Y-80844000D01*
X142031200Y-86944000D02*
X135231200Y-86944000D01*
X142031200Y-83344000D02*
X143531200Y-83344000D01*
X142031200Y-83344000D02*
X142031200Y-86944000D01*
X140631200Y-85144000D02*
X136631200Y-85144000D01*
X140631200Y-85144000D02*
X136631200Y-81544000D01*
X140631200Y-81544000D02*
X140631200Y-85144000D01*
X138631200Y-85144000D02*
X138631200Y-89344000D01*
X138631200Y-77344000D02*
X138631200Y-81544000D01*
X138631200Y-77344000D02*
X136131200Y-77344000D01*
X136631200Y-85144000D02*
X136631200Y-81544000D01*
X136631200Y-81544000D02*
X140631200Y-81544000D01*
X136131200Y-89344000D02*
X138631200Y-89344000D01*
X135231200Y-83344000D02*
X135231200Y-86944000D01*
X135231200Y-83344000D02*
X134431200Y-83344000D01*
X131181200Y-84494000D02*
X131181200Y-91094000D01*
X131181200Y-75494000D02*
X150981200Y-75494000D01*
X131181200Y-75494000D02*
X131181200Y-82094000D01*
%TO.C,R10*%
X196857864Y-62053800D02*
X196403736Y-62053800D01*
X196857864Y-63523800D02*
X196403736Y-63523800D01*
%TO.C,R4*%
X224893664Y-127098600D02*
X224439536Y-127098600D01*
X224893664Y-128568600D02*
X224439536Y-128568600D01*
%TO.C,F2*%
X85521200Y-69984000D02*
X85521200Y-73144000D01*
X85521200Y-76644000D02*
X85521200Y-79804000D01*
X108241200Y-69984000D02*
X85521200Y-69984000D01*
X108241200Y-69984000D02*
X108241200Y-73144000D01*
X108241200Y-76644000D02*
X108241200Y-79804000D01*
X108241200Y-79804000D02*
X85521200Y-79804000D01*
%TO.C,D1*%
X127186200Y-79288000D02*
X127186200Y-80308000D01*
X127186200Y-86768000D02*
X127186200Y-85748000D01*
X128656200Y-81088000D02*
X125716200Y-81088000D01*
X128656200Y-81208000D02*
X125716200Y-81208000D01*
X128656200Y-81328000D02*
X125716200Y-81328000D01*
X128656200Y-80308000D02*
X125716200Y-80308000D01*
X125716200Y-85748000D01*
X128656200Y-85748000D01*
X128656200Y-80308000D01*
%TO.C,TP15*%
X186361200Y-57658000D02*
G75*
G02*
X183361200Y-57658000I-1500000J0D01*
G01*
X183361200Y-57658000D02*
G75*
G02*
X186361200Y-57658000I1500000J0D01*
G01*
%TO.C,C20*%
X172209700Y-56888748D02*
X172209700Y-57411252D01*
X173679700Y-56888748D02*
X173679700Y-57411252D01*
%TO.C,C5*%
X82156360Y-102265000D02*
X82678864Y-102265000D01*
X82156360Y-103735000D02*
X82678864Y-103735000D01*
%TO.C,C11*%
X229354448Y-132127800D02*
X229876952Y-132127800D01*
X229354448Y-133597800D02*
X229876952Y-133597800D01*
%TO.C,R5*%
X224944464Y-132127800D02*
X224490336Y-132127800D01*
X224944464Y-133597800D02*
X224490336Y-133597800D01*
%TO.C,D3*%
X127181400Y-99303200D02*
X127181400Y-100323200D01*
X127181400Y-106783200D02*
X127181400Y-105763200D01*
X128651400Y-101103200D02*
X125711400Y-101103200D01*
X128651400Y-101223200D02*
X125711400Y-101223200D01*
X128651400Y-101343200D02*
X125711400Y-101343200D01*
X128651400Y-100323200D02*
X125711400Y-100323200D01*
X125711400Y-105763200D01*
X128651400Y-105763200D01*
X128651400Y-100323200D01*
%TO.C,D4*%
X127186200Y-119775600D02*
X127186200Y-120795600D01*
X127186200Y-127255600D02*
X127186200Y-126235600D01*
X128656200Y-121575600D02*
X125716200Y-121575600D01*
X128656200Y-121695600D02*
X125716200Y-121695600D01*
X128656200Y-121815600D02*
X125716200Y-121815600D01*
X128656200Y-120795600D02*
X125716200Y-120795600D01*
X125716200Y-126235600D01*
X128656200Y-126235600D01*
X128656200Y-120795600D01*
%TO.C,C2*%
X66298752Y-55265000D02*
X65776248Y-55265000D01*
X66298752Y-56735000D02*
X65776248Y-56735000D01*
%TO.C,C21*%
X169388980Y-62473800D02*
X170018980Y-62473800D01*
X169703980Y-62158800D02*
X169703980Y-62788800D01*
X172889221Y-61082800D02*
X172889221Y-67542800D01*
X172929221Y-61082800D02*
X172929221Y-67542800D01*
X172969221Y-61083800D02*
X172969221Y-67541800D01*
X173009221Y-61084800D02*
X173009221Y-67540800D01*
X173049221Y-61086800D02*
X173049221Y-67538800D01*
X173089221Y-61088800D02*
X173089221Y-67536800D01*
X173129221Y-61091800D02*
X173129221Y-63272800D01*
X173129221Y-65352800D02*
X173129221Y-67533800D01*
X173169221Y-61094800D02*
X173169221Y-63272800D01*
X173169221Y-65352800D02*
X173169221Y-67530800D01*
X173209221Y-61098800D02*
X173209221Y-63272800D01*
X173209221Y-65352800D02*
X173209221Y-67526800D01*
X173249221Y-61102800D02*
X173249221Y-63272800D01*
X173249221Y-65352800D02*
X173249221Y-67522800D01*
X173289221Y-61107800D02*
X173289221Y-63272800D01*
X173289221Y-65352800D02*
X173289221Y-67517800D01*
X173329221Y-61112800D02*
X173329221Y-63272800D01*
X173329221Y-65352800D02*
X173329221Y-67512800D01*
X173369221Y-61117800D02*
X173369221Y-63272800D01*
X173369221Y-65352800D02*
X173369221Y-67507800D01*
X173409221Y-61124800D02*
X173409221Y-63272800D01*
X173409221Y-65352800D02*
X173409221Y-67500800D01*
X173449221Y-61130800D02*
X173449221Y-63272800D01*
X173449221Y-65352800D02*
X173449221Y-67494800D01*
X173489221Y-61138800D02*
X173489221Y-63272800D01*
X173489221Y-65352800D02*
X173489221Y-67486800D01*
X173529221Y-61145800D02*
X173529221Y-63272800D01*
X173529221Y-65352800D02*
X173529221Y-67479800D01*
X173569221Y-61153800D02*
X173569221Y-63272800D01*
X173569221Y-65352800D02*
X173569221Y-67471800D01*
X173609221Y-61162800D02*
X173609221Y-63272800D01*
X173609221Y-65352800D02*
X173609221Y-67462800D01*
X173649221Y-61172800D02*
X173649221Y-63272800D01*
X173649221Y-65352800D02*
X173649221Y-67452800D01*
X173689221Y-61181800D02*
X173689221Y-63272800D01*
X173689221Y-65352800D02*
X173689221Y-67443800D01*
X173729221Y-61192800D02*
X173729221Y-63272800D01*
X173729221Y-65352800D02*
X173729221Y-67432800D01*
X173769221Y-61203800D02*
X173769221Y-63272800D01*
X173769221Y-65352800D02*
X173769221Y-67421800D01*
X173809221Y-61214800D02*
X173809221Y-63272800D01*
X173809221Y-65352800D02*
X173809221Y-67410800D01*
X173849221Y-61226800D02*
X173849221Y-63272800D01*
X173849221Y-65352800D02*
X173849221Y-67398800D01*
X173889221Y-61239800D02*
X173889221Y-63272800D01*
X173889221Y-65352800D02*
X173889221Y-67385800D01*
X173929221Y-61252800D02*
X173929221Y-63272800D01*
X173929221Y-65352800D02*
X173929221Y-67372800D01*
X173969221Y-61265800D02*
X173969221Y-63272800D01*
X173969221Y-65352800D02*
X173969221Y-67359800D01*
X174009221Y-61280800D02*
X174009221Y-63272800D01*
X174009221Y-65352800D02*
X174009221Y-67344800D01*
X174049221Y-61295800D02*
X174049221Y-63272800D01*
X174049221Y-65352800D02*
X174049221Y-67329800D01*
X174089221Y-61310800D02*
X174089221Y-63272800D01*
X174089221Y-65352800D02*
X174089221Y-67314800D01*
X174129221Y-61326800D02*
X174129221Y-63272800D01*
X174129221Y-65352800D02*
X174129221Y-67298800D01*
X174169221Y-61343800D02*
X174169221Y-63272800D01*
X174169221Y-65352800D02*
X174169221Y-67281800D01*
X174209221Y-61360800D02*
X174209221Y-63272800D01*
X174209221Y-65352800D02*
X174209221Y-67264800D01*
X174249221Y-61378800D02*
X174249221Y-63272800D01*
X174249221Y-65352800D02*
X174249221Y-67246800D01*
X174289221Y-61397800D02*
X174289221Y-63272800D01*
X174289221Y-65352800D02*
X174289221Y-67227800D01*
X174329221Y-61416800D02*
X174329221Y-63272800D01*
X174329221Y-65352800D02*
X174329221Y-67208800D01*
X174369221Y-61436800D02*
X174369221Y-63272800D01*
X174369221Y-65352800D02*
X174369221Y-67188800D01*
X174409221Y-61457800D02*
X174409221Y-63272800D01*
X174409221Y-65352800D02*
X174409221Y-67167800D01*
X174449221Y-61478800D02*
X174449221Y-63272800D01*
X174449221Y-65352800D02*
X174449221Y-67146800D01*
X174489221Y-61500800D02*
X174489221Y-63272800D01*
X174489221Y-65352800D02*
X174489221Y-67124800D01*
X174529221Y-61523800D02*
X174529221Y-63272800D01*
X174529221Y-65352800D02*
X174529221Y-67101800D01*
X174569221Y-61547800D02*
X174569221Y-63272800D01*
X174569221Y-65352800D02*
X174569221Y-67077800D01*
X174609221Y-61571800D02*
X174609221Y-63272800D01*
X174609221Y-65352800D02*
X174609221Y-67053800D01*
X174649221Y-61596800D02*
X174649221Y-63272800D01*
X174649221Y-65352800D02*
X174649221Y-67028800D01*
X174689221Y-61622800D02*
X174689221Y-63272800D01*
X174689221Y-65352800D02*
X174689221Y-67002800D01*
X174729221Y-61649800D02*
X174729221Y-63272800D01*
X174729221Y-65352800D02*
X174729221Y-66975800D01*
X174769221Y-61676800D02*
X174769221Y-63272800D01*
X174769221Y-65352800D02*
X174769221Y-66948800D01*
X174809221Y-61705800D02*
X174809221Y-63272800D01*
X174809221Y-65352800D02*
X174809221Y-66919800D01*
X174849221Y-61735800D02*
X174849221Y-63272800D01*
X174849221Y-65352800D02*
X174849221Y-66889800D01*
X174889221Y-61765800D02*
X174889221Y-63272800D01*
X174889221Y-65352800D02*
X174889221Y-66859800D01*
X174929221Y-61796800D02*
X174929221Y-63272800D01*
X174929221Y-65352800D02*
X174929221Y-66828800D01*
X174969221Y-61829800D02*
X174969221Y-63272800D01*
X174969221Y-65352800D02*
X174969221Y-66795800D01*
X175009221Y-61862800D02*
X175009221Y-63272800D01*
X175009221Y-65352800D02*
X175009221Y-66762800D01*
X175049221Y-61897800D02*
X175049221Y-63272800D01*
X175049221Y-65352800D02*
X175049221Y-66727800D01*
X175089221Y-61933800D02*
X175089221Y-63272800D01*
X175089221Y-65352800D02*
X175089221Y-66691800D01*
X175129221Y-61970800D02*
X175129221Y-63272800D01*
X175129221Y-65352800D02*
X175129221Y-66654800D01*
X175169221Y-62008800D02*
X175169221Y-63272800D01*
X175169221Y-65352800D02*
X175169221Y-66616800D01*
X175209221Y-62048800D02*
X175209221Y-66576800D01*
X175249221Y-62089800D02*
X175249221Y-66535800D01*
X175289221Y-62131800D02*
X175289221Y-66493800D01*
X175329221Y-62175800D02*
X175329221Y-66449800D01*
X175369221Y-62221800D02*
X175369221Y-66403800D01*
X175409221Y-62268800D02*
X175409221Y-66356800D01*
X175449221Y-62317800D02*
X175449221Y-66307800D01*
X175489221Y-62369800D02*
X175489221Y-66255800D01*
X175529221Y-62422800D02*
X175529221Y-66202800D01*
X175569221Y-62478800D02*
X175569221Y-66146800D01*
X175609221Y-62537800D02*
X175609221Y-66087800D01*
X175649221Y-62598800D02*
X175649221Y-66026800D01*
X175689221Y-62663800D02*
X175689221Y-65961800D01*
X175729221Y-62731800D02*
X175729221Y-65893800D01*
X175769221Y-62803800D02*
X175769221Y-65821800D01*
X175809221Y-62880800D02*
X175809221Y-65744800D01*
X175849221Y-62962800D02*
X175849221Y-65662800D01*
X175889221Y-63051800D02*
X175889221Y-65573800D01*
X175929221Y-63147800D02*
X175929221Y-65477800D01*
X175969221Y-63254800D02*
X175969221Y-65370800D01*
X176009221Y-63373800D02*
X176009221Y-65251800D01*
X176049221Y-63511800D02*
X176049221Y-65113800D01*
X176089221Y-63679800D02*
X176089221Y-64945800D01*
X176129221Y-63910800D02*
X176129221Y-64714800D01*
X176159221Y-64312800D02*
G75*
G02*
X169619221Y-64312800I-3270000J0D01*
G01*
X169619221Y-64312800D02*
G75*
G02*
X176159221Y-64312800I3270000J0D01*
G01*
%TO.C,J9*%
X219295200Y-121251200D02*
X220675200Y-121251200D01*
X219295200Y-122631200D02*
X219295200Y-121251200D01*
X219295200Y-123901200D02*
X219295200Y-141791200D01*
X219295200Y-123901200D02*
X222055200Y-123901200D01*
X219295200Y-141791200D02*
X222055200Y-141791200D01*
X222055200Y-123901200D02*
X222055200Y-141791200D01*
%TO.C,C18*%
X171859235Y-137390200D02*
X172381739Y-137390200D01*
X171859235Y-138860200D02*
X172381739Y-138860200D01*
%TO.C,J2*%
X61280000Y-94195000D02*
X61280000Y-86755000D01*
X71320000Y-94195000D02*
X61280000Y-94195000D01*
X61280000Y-86155000D02*
X61280000Y-83795000D01*
X61280000Y-83795000D02*
X71320000Y-83795000D01*
X61900000Y-83795000D02*
X61900000Y-94195000D01*
X63400000Y-83795000D02*
X63400000Y-94195000D01*
X68300000Y-83795000D02*
X68300000Y-94195000D01*
X71320000Y-83795000D02*
X71320000Y-94195000D01*
X61280000Y-86455000D02*
X60670000Y-86895000D01*
X60670000Y-86015000D01*
X61280000Y-86455000D01*
G36*
X61280000Y-86455000D02*
G01*
X60670000Y-86895000D01*
X60670000Y-86015000D01*
X61280000Y-86455000D01*
G37*
%TO.C,C17*%
X171351648Y-116460600D02*
X171874152Y-116460600D01*
X171351648Y-117930600D02*
X171874152Y-117930600D01*
%TO.C,R6*%
X216225936Y-134667800D02*
X216680064Y-134667800D01*
X216225936Y-136137800D02*
X216680064Y-136137800D01*
%TO.C,TP8*%
X216921000Y-139720800D02*
G75*
G02*
X213921000Y-139720800I-1500000J0D01*
G01*
X213921000Y-139720800D02*
G75*
G02*
X216921000Y-139720800I1500000J0D01*
G01*
%TO.C,TP5*%
X218292600Y-130221200D02*
G75*
G02*
X215292600Y-130221200I-1500000J0D01*
G01*
X215292600Y-130221200D02*
G75*
G02*
X218292600Y-130221200I1500000J0D01*
G01*
%TO.C,C9*%
X83701248Y-116765000D02*
X84223752Y-116765000D01*
X83701248Y-118235000D02*
X84223752Y-118235000D01*
%TO.C,C19*%
X169475600Y-132972600D02*
X169475600Y-132406600D01*
X169515600Y-133206600D02*
X169515600Y-132172600D01*
X169555600Y-133366600D02*
X169555600Y-132012600D01*
X169595600Y-133494600D02*
X169595600Y-131884600D01*
X169635600Y-133603600D02*
X169635600Y-131775600D01*
X169675600Y-133700600D02*
X169675600Y-131678600D01*
X169715600Y-133787600D02*
X169715600Y-131591600D01*
X169755600Y-133866600D02*
X169755600Y-131512600D01*
X169795600Y-133940600D02*
X169795600Y-131438600D01*
X169835600Y-134008600D02*
X169835600Y-131370600D01*
X169875600Y-134072600D02*
X169875600Y-131306600D01*
X169915600Y-134132600D02*
X169915600Y-131246600D01*
X169955600Y-134188600D02*
X169955600Y-131190600D01*
X169995600Y-134242600D02*
X169995600Y-131136600D01*
X170035600Y-134293600D02*
X170035600Y-131085600D01*
X170075600Y-131649600D02*
X170075600Y-131037600D01*
X170075600Y-134341600D02*
X170075600Y-133729600D01*
X170115600Y-131649600D02*
X170115600Y-130990600D01*
X170115600Y-134388600D02*
X170115600Y-133729600D01*
X170155600Y-131649600D02*
X170155600Y-130946600D01*
X170155600Y-134432600D02*
X170155600Y-133729600D01*
X170195600Y-131649600D02*
X170195600Y-130904600D01*
X170195600Y-134474600D02*
X170195600Y-133729600D01*
X170235600Y-131649600D02*
X170235600Y-130864600D01*
X170235600Y-134514600D02*
X170235600Y-133729600D01*
X170275600Y-131649600D02*
X170275600Y-130825600D01*
X170275600Y-134553600D02*
X170275600Y-133729600D01*
X170315600Y-131649600D02*
X170315600Y-130788600D01*
X170315600Y-134590600D02*
X170315600Y-133729600D01*
X170355600Y-131649600D02*
X170355600Y-130753600D01*
X170355600Y-134625600D02*
X170355600Y-133729600D01*
X170395600Y-131649600D02*
X170395600Y-130719600D01*
X170395600Y-134659600D02*
X170395600Y-133729600D01*
X170435600Y-131649600D02*
X170435600Y-130686600D01*
X170435600Y-134692600D02*
X170435600Y-133729600D01*
X170475600Y-131649600D02*
X170475600Y-130654600D01*
X170475600Y-134724600D02*
X170475600Y-133729600D01*
X170515600Y-131649600D02*
X170515600Y-130624600D01*
X170515600Y-134754600D02*
X170515600Y-133729600D01*
X170555600Y-131649600D02*
X170555600Y-130595600D01*
X170555600Y-134783600D02*
X170555600Y-133729600D01*
X170595600Y-131649600D02*
X170595600Y-130567600D01*
X170595600Y-134811600D02*
X170595600Y-133729600D01*
X170635600Y-131649600D02*
X170635600Y-130540600D01*
X170635600Y-134838600D02*
X170635600Y-133729600D01*
X170675600Y-131649600D02*
X170675600Y-130514600D01*
X170675600Y-134864600D02*
X170675600Y-133729600D01*
X170715600Y-131649600D02*
X170715600Y-130490600D01*
X170715600Y-134888600D02*
X170715600Y-133729600D01*
X170755600Y-131649600D02*
X170755600Y-130466600D01*
X170755600Y-134912600D02*
X170755600Y-133729600D01*
X170795600Y-131649600D02*
X170795600Y-130443600D01*
X170795600Y-134935600D02*
X170795600Y-133729600D01*
X170835600Y-131649600D02*
X170835600Y-130421600D01*
X170835600Y-134957600D02*
X170835600Y-133729600D01*
X170875600Y-131649600D02*
X170875600Y-130400600D01*
X170875600Y-134978600D02*
X170875600Y-133729600D01*
X170915600Y-131649600D02*
X170915600Y-130380600D01*
X170915600Y-134998600D02*
X170915600Y-133729600D01*
X170955600Y-131649600D02*
X170955600Y-130360600D01*
X170955600Y-135018600D02*
X170955600Y-133729600D01*
X170995600Y-131649600D02*
X170995600Y-130342600D01*
X170995600Y-135036600D02*
X170995600Y-133729600D01*
X171035600Y-131649600D02*
X171035600Y-130324600D01*
X171035600Y-135054600D02*
X171035600Y-133729600D01*
X171075600Y-131649600D02*
X171075600Y-130307600D01*
X171075600Y-135071600D02*
X171075600Y-133729600D01*
X171115600Y-131649600D02*
X171115600Y-130291600D01*
X171115600Y-135087600D02*
X171115600Y-133729600D01*
X171155600Y-131649600D02*
X171155600Y-130276600D01*
X171155600Y-135102600D02*
X171155600Y-133729600D01*
X171195600Y-131649600D02*
X171195600Y-130261600D01*
X171195600Y-135117600D02*
X171195600Y-133729600D01*
X171235600Y-131649600D02*
X171235600Y-130247600D01*
X171235600Y-135131600D02*
X171235600Y-133729600D01*
X171275600Y-131649600D02*
X171275600Y-130234600D01*
X171275600Y-135144600D02*
X171275600Y-133729600D01*
X171315600Y-131649600D02*
X171315600Y-130222600D01*
X171315600Y-135156600D02*
X171315600Y-133729600D01*
X171355600Y-131649600D02*
X171355600Y-130210600D01*
X171355600Y-135168600D02*
X171355600Y-133729600D01*
X171395600Y-131649600D02*
X171395600Y-130199600D01*
X171395600Y-135179600D02*
X171395600Y-133729600D01*
X171435600Y-131649600D02*
X171435600Y-130188600D01*
X171435600Y-135190600D02*
X171435600Y-133729600D01*
X171475600Y-131649600D02*
X171475600Y-130179600D01*
X171475600Y-135199600D02*
X171475600Y-133729600D01*
X171515600Y-131649600D02*
X171515600Y-130170600D01*
X171515600Y-135208600D02*
X171515600Y-133729600D01*
X171555600Y-131649600D02*
X171555600Y-130161600D01*
X171555600Y-135217600D02*
X171555600Y-133729600D01*
X171595600Y-131649600D02*
X171595600Y-130153600D01*
X171595600Y-135225600D02*
X171595600Y-133729600D01*
X171635600Y-131649600D02*
X171635600Y-130146600D01*
X171635600Y-135232600D02*
X171635600Y-133729600D01*
X171675600Y-131649600D02*
X171675600Y-130140600D01*
X171675600Y-135238600D02*
X171675600Y-133729600D01*
X171715600Y-131649600D02*
X171715600Y-130134600D01*
X171715600Y-135244600D02*
X171715600Y-133729600D01*
X171755600Y-131649600D02*
X171755600Y-130129600D01*
X171755600Y-135249600D02*
X171755600Y-133729600D01*
X171795600Y-131649600D02*
X171795600Y-130124600D01*
X171795600Y-135254600D02*
X171795600Y-133729600D01*
X171835600Y-131649600D02*
X171835600Y-130120600D01*
X171835600Y-135258600D02*
X171835600Y-133729600D01*
X171875600Y-131649600D02*
X171875600Y-130117600D01*
X171875600Y-135261600D02*
X171875600Y-133729600D01*
X171915600Y-131649600D02*
X171915600Y-130114600D01*
X171915600Y-135264600D02*
X171915600Y-133729600D01*
X171955600Y-131649600D02*
X171955600Y-130112600D01*
X171955600Y-135266600D02*
X171955600Y-133729600D01*
X171995600Y-131649600D02*
X171995600Y-130110600D01*
X171995600Y-135268600D02*
X171995600Y-133729600D01*
X172035600Y-131649600D02*
X172035600Y-130109600D01*
X172035600Y-135269600D02*
X172035600Y-133729600D01*
X172075600Y-131649600D02*
X172075600Y-130109600D01*
X172075600Y-135269600D02*
X172075600Y-133729600D01*
X174630375Y-134414600D02*
X174630375Y-133914600D01*
X174880375Y-134164600D02*
X174380375Y-134164600D01*
X174695600Y-132689600D02*
G75*
G02*
X169455600Y-132689600I-2620000J0D01*
G01*
X169455600Y-132689600D02*
G75*
G02*
X174695600Y-132689600I2620000J0D01*
G01*
%TO.C,J7*%
X154680000Y-108740000D02*
X154680000Y-98340000D01*
X157700000Y-108740000D02*
X157700000Y-98340000D01*
X162600000Y-108740000D02*
X162600000Y-98340000D01*
X164100000Y-108740000D02*
X164100000Y-98340000D01*
X164720000Y-108740000D02*
X154680000Y-108740000D01*
X164720000Y-106380000D02*
X164720000Y-108740000D01*
X154680000Y-98340000D02*
X164720000Y-98340000D01*
X164720000Y-98340000D02*
X164720000Y-105780000D01*
X165330000Y-106520000D02*
X164720000Y-106080000D01*
X165330000Y-105640000D01*
X165330000Y-106520000D01*
G36*
X165330000Y-106520000D02*
G01*
X164720000Y-106080000D01*
X165330000Y-105640000D01*
X165330000Y-106520000D01*
G37*
%TO.C,J3*%
X61280000Y-107740000D02*
X61280000Y-100300000D01*
X71320000Y-107740000D02*
X61280000Y-107740000D01*
X61280000Y-99700000D02*
X61280000Y-97340000D01*
X61280000Y-97340000D02*
X71320000Y-97340000D01*
X61900000Y-97340000D02*
X61900000Y-107740000D01*
X63400000Y-97340000D02*
X63400000Y-107740000D01*
X68300000Y-97340000D02*
X68300000Y-107740000D01*
X71320000Y-97340000D02*
X71320000Y-107740000D01*
X61280000Y-100000000D02*
X60670000Y-100440000D01*
X60670000Y-99560000D01*
X61280000Y-100000000D01*
G36*
X61280000Y-100000000D02*
G01*
X60670000Y-100440000D01*
X60670000Y-99560000D01*
X61280000Y-100000000D01*
G37*
%TO.C,R3*%
X216244736Y-124457000D02*
X216698864Y-124457000D01*
X216244736Y-125927000D02*
X216698864Y-125927000D01*
%TO.C,J1*%
X60607500Y-70695000D02*
X60607500Y-63255000D01*
X70647500Y-70695000D02*
X60607500Y-70695000D01*
X60607500Y-62655000D02*
X60607500Y-60295000D01*
X60607500Y-60295000D02*
X70647500Y-60295000D01*
X61227500Y-60295000D02*
X61227500Y-70695000D01*
X62727500Y-60295000D02*
X62727500Y-70695000D01*
X67627500Y-60295000D02*
X67627500Y-70695000D01*
X70647500Y-60295000D02*
X70647500Y-70695000D01*
X60607500Y-62955000D02*
X59997500Y-63395000D01*
X59997500Y-62515000D01*
X60607500Y-62955000D01*
G36*
X60607500Y-62955000D02*
G01*
X59997500Y-63395000D01*
X59997500Y-62515000D01*
X60607500Y-62955000D01*
G37*
%TO.C,C13*%
X229760848Y-140408200D02*
X230283352Y-140408200D01*
X229760848Y-141878200D02*
X230283352Y-141878200D01*
%TO.C,C22*%
X201741048Y-62053800D02*
X202263552Y-62053800D01*
X201741048Y-63523800D02*
X202263552Y-63523800D01*
%TO.C,C6*%
X73195225Y-101525000D02*
X73695225Y-101525000D01*
X73445225Y-101275000D02*
X73445225Y-101775000D01*
X76000000Y-100420000D02*
X76000000Y-101960000D01*
X76000000Y-104040000D02*
X76000000Y-105580000D01*
X76040000Y-100420000D02*
X76040000Y-101960000D01*
X76040000Y-104040000D02*
X76040000Y-105580000D01*
X76080000Y-100421000D02*
X76080000Y-101960000D01*
X76080000Y-104040000D02*
X76080000Y-105579000D01*
X76120000Y-100423000D02*
X76120000Y-101960000D01*
X76120000Y-104040000D02*
X76120000Y-105577000D01*
X76160000Y-100425000D02*
X76160000Y-101960000D01*
X76160000Y-104040000D02*
X76160000Y-105575000D01*
X76200000Y-100428000D02*
X76200000Y-101960000D01*
X76200000Y-104040000D02*
X76200000Y-105572000D01*
X76240000Y-100431000D02*
X76240000Y-101960000D01*
X76240000Y-104040000D02*
X76240000Y-105569000D01*
X76280000Y-100435000D02*
X76280000Y-101960000D01*
X76280000Y-104040000D02*
X76280000Y-105565000D01*
X76320000Y-100440000D02*
X76320000Y-101960000D01*
X76320000Y-104040000D02*
X76320000Y-105560000D01*
X76360000Y-100445000D02*
X76360000Y-101960000D01*
X76360000Y-104040000D02*
X76360000Y-105555000D01*
X76400000Y-100451000D02*
X76400000Y-101960000D01*
X76400000Y-104040000D02*
X76400000Y-105549000D01*
X76440000Y-100457000D02*
X76440000Y-101960000D01*
X76440000Y-104040000D02*
X76440000Y-105543000D01*
X76480000Y-100464000D02*
X76480000Y-101960000D01*
X76480000Y-104040000D02*
X76480000Y-105536000D01*
X76520000Y-100472000D02*
X76520000Y-101960000D01*
X76520000Y-104040000D02*
X76520000Y-105528000D01*
X76560000Y-100481000D02*
X76560000Y-101960000D01*
X76560000Y-104040000D02*
X76560000Y-105519000D01*
X76600000Y-100490000D02*
X76600000Y-101960000D01*
X76600000Y-104040000D02*
X76600000Y-105510000D01*
X76640000Y-100499000D02*
X76640000Y-101960000D01*
X76640000Y-104040000D02*
X76640000Y-105501000D01*
X76680000Y-100510000D02*
X76680000Y-101960000D01*
X76680000Y-104040000D02*
X76680000Y-105490000D01*
X76720000Y-100521000D02*
X76720000Y-101960000D01*
X76720000Y-104040000D02*
X76720000Y-105479000D01*
X76760000Y-100533000D02*
X76760000Y-101960000D01*
X76760000Y-104040000D02*
X76760000Y-105467000D01*
X76800000Y-100545000D02*
X76800000Y-101960000D01*
X76800000Y-104040000D02*
X76800000Y-105455000D01*
X76840000Y-100558000D02*
X76840000Y-101960000D01*
X76840000Y-104040000D02*
X76840000Y-105442000D01*
X76880000Y-100572000D02*
X76880000Y-101960000D01*
X76880000Y-104040000D02*
X76880000Y-105428000D01*
X76920000Y-100587000D02*
X76920000Y-101960000D01*
X76920000Y-104040000D02*
X76920000Y-105413000D01*
X76960000Y-100602000D02*
X76960000Y-101960000D01*
X76960000Y-104040000D02*
X76960000Y-105398000D01*
X77000000Y-100618000D02*
X77000000Y-101960000D01*
X77000000Y-104040000D02*
X77000000Y-105382000D01*
X77040000Y-100635000D02*
X77040000Y-101960000D01*
X77040000Y-104040000D02*
X77040000Y-105365000D01*
X77080000Y-100653000D02*
X77080000Y-101960000D01*
X77080000Y-104040000D02*
X77080000Y-105347000D01*
X77120000Y-100671000D02*
X77120000Y-101960000D01*
X77120000Y-104040000D02*
X77120000Y-105329000D01*
X77160000Y-100691000D02*
X77160000Y-101960000D01*
X77160000Y-104040000D02*
X77160000Y-105309000D01*
X77200000Y-100711000D02*
X77200000Y-101960000D01*
X77200000Y-104040000D02*
X77200000Y-105289000D01*
X77240000Y-100732000D02*
X77240000Y-101960000D01*
X77240000Y-104040000D02*
X77240000Y-105268000D01*
X77280000Y-100754000D02*
X77280000Y-101960000D01*
X77280000Y-104040000D02*
X77280000Y-105246000D01*
X77320000Y-100777000D02*
X77320000Y-101960000D01*
X77320000Y-104040000D02*
X77320000Y-105223000D01*
X77360000Y-100801000D02*
X77360000Y-101960000D01*
X77360000Y-104040000D02*
X77360000Y-105199000D01*
X77400000Y-100825000D02*
X77400000Y-101960000D01*
X77400000Y-104040000D02*
X77400000Y-105175000D01*
X77440000Y-100851000D02*
X77440000Y-101960000D01*
X77440000Y-104040000D02*
X77440000Y-105149000D01*
X77480000Y-100878000D02*
X77480000Y-101960000D01*
X77480000Y-104040000D02*
X77480000Y-105122000D01*
X77520000Y-100906000D02*
X77520000Y-101960000D01*
X77520000Y-104040000D02*
X77520000Y-105094000D01*
X77560000Y-100935000D02*
X77560000Y-101960000D01*
X77560000Y-104040000D02*
X77560000Y-105065000D01*
X77600000Y-100965000D02*
X77600000Y-101960000D01*
X77600000Y-104040000D02*
X77600000Y-105035000D01*
X77640000Y-100997000D02*
X77640000Y-101960000D01*
X77640000Y-104040000D02*
X77640000Y-105003000D01*
X77680000Y-101030000D02*
X77680000Y-101960000D01*
X77680000Y-104040000D02*
X77680000Y-104970000D01*
X77720000Y-101064000D02*
X77720000Y-101960000D01*
X77720000Y-104040000D02*
X77720000Y-104936000D01*
X77760000Y-101099000D02*
X77760000Y-101960000D01*
X77760000Y-104040000D02*
X77760000Y-104901000D01*
X77800000Y-101136000D02*
X77800000Y-101960000D01*
X77800000Y-104040000D02*
X77800000Y-104864000D01*
X77840000Y-101175000D02*
X77840000Y-101960000D01*
X77840000Y-104040000D02*
X77840000Y-104825000D01*
X77880000Y-101215000D02*
X77880000Y-101960000D01*
X77880000Y-104040000D02*
X77880000Y-104785000D01*
X77920000Y-101257000D02*
X77920000Y-101960000D01*
X77920000Y-104040000D02*
X77920000Y-104743000D01*
X77960000Y-101301000D02*
X77960000Y-101960000D01*
X77960000Y-104040000D02*
X77960000Y-104699000D01*
X78000000Y-101348000D02*
X78000000Y-101960000D01*
X78000000Y-104040000D02*
X78000000Y-104652000D01*
X78040000Y-101396000D02*
X78040000Y-104604000D01*
X78080000Y-101447000D02*
X78080000Y-104553000D01*
X78120000Y-101501000D02*
X78120000Y-104499000D01*
X78160000Y-101557000D02*
X78160000Y-104443000D01*
X78200000Y-101617000D02*
X78200000Y-104383000D01*
X78240000Y-101681000D02*
X78240000Y-104319000D01*
X78280000Y-101749000D02*
X78280000Y-104251000D01*
X78320000Y-101823000D02*
X78320000Y-104177000D01*
X78360000Y-101902000D02*
X78360000Y-104098000D01*
X78400000Y-101989000D02*
X78400000Y-104011000D01*
X78440000Y-102086000D02*
X78440000Y-103914000D01*
X78480000Y-102195000D02*
X78480000Y-103805000D01*
X78520000Y-102323000D02*
X78520000Y-103677000D01*
X78560000Y-102483000D02*
X78560000Y-103517000D01*
X78600000Y-102717000D02*
X78600000Y-103283000D01*
X78620000Y-103000000D02*
G75*
G02*
X73380000Y-103000000I-2620000J0D01*
G01*
X73380000Y-103000000D02*
G75*
G02*
X78620000Y-103000000I2620000J0D01*
G01*
%TO.C,K4*%
X131331200Y-115544000D02*
X131331200Y-122144000D01*
X131331200Y-115544000D02*
X151131200Y-115544000D01*
X131331200Y-124544000D02*
X131331200Y-131144000D01*
X135381200Y-123394000D02*
X134581200Y-123394000D01*
X135381200Y-123394000D02*
X135381200Y-126994000D01*
X136281200Y-129394000D02*
X138781200Y-129394000D01*
X136781200Y-121594000D02*
X140781200Y-121594000D01*
X136781200Y-125194000D02*
X136781200Y-121594000D01*
X138781200Y-117394000D02*
X136281200Y-117394000D01*
X138781200Y-117394000D02*
X138781200Y-121594000D01*
X138781200Y-125194000D02*
X138781200Y-129394000D01*
X140781200Y-121594000D02*
X140781200Y-125194000D01*
X140781200Y-125194000D02*
X136781200Y-121594000D01*
X140781200Y-125194000D02*
X136781200Y-125194000D01*
X142181200Y-123394000D02*
X142181200Y-126994000D01*
X142181200Y-123394000D02*
X143681200Y-123394000D01*
X142181200Y-126994000D02*
X135381200Y-126994000D01*
X143681200Y-123394000D02*
X148281200Y-120894000D01*
X146881200Y-124844000D02*
X146881200Y-127344000D01*
X151131200Y-115544000D02*
X151131200Y-131144000D01*
X151131200Y-131144000D02*
X131331200Y-131144000D01*
%TO.C,C16*%
X169120000Y-112855800D02*
X169120000Y-112289800D01*
X169160000Y-113089800D02*
X169160000Y-112055800D01*
X169200000Y-113249800D02*
X169200000Y-111895800D01*
X169240000Y-113377800D02*
X169240000Y-111767800D01*
X169280000Y-113486800D02*
X169280000Y-111658800D01*
X169320000Y-113583800D02*
X169320000Y-111561800D01*
X169360000Y-113670800D02*
X169360000Y-111474800D01*
X169400000Y-113749800D02*
X169400000Y-111395800D01*
X169440000Y-113823800D02*
X169440000Y-111321800D01*
X169480000Y-113891800D02*
X169480000Y-111253800D01*
X169520000Y-113955800D02*
X169520000Y-111189800D01*
X169560000Y-114015800D02*
X169560000Y-111129800D01*
X169600000Y-114071800D02*
X169600000Y-111073800D01*
X169640000Y-114125800D02*
X169640000Y-111019800D01*
X169680000Y-114176800D02*
X169680000Y-110968800D01*
X169720000Y-111532800D02*
X169720000Y-110920800D01*
X169720000Y-114224800D02*
X169720000Y-113612800D01*
X169760000Y-111532800D02*
X169760000Y-110873800D01*
X169760000Y-114271800D02*
X169760000Y-113612800D01*
X169800000Y-111532800D02*
X169800000Y-110829800D01*
X169800000Y-114315800D02*
X169800000Y-113612800D01*
X169840000Y-111532800D02*
X169840000Y-110787800D01*
X169840000Y-114357800D02*
X169840000Y-113612800D01*
X169880000Y-111532800D02*
X169880000Y-110747800D01*
X169880000Y-114397800D02*
X169880000Y-113612800D01*
X169920000Y-111532800D02*
X169920000Y-110708800D01*
X169920000Y-114436800D02*
X169920000Y-113612800D01*
X169960000Y-111532800D02*
X169960000Y-110671800D01*
X169960000Y-114473800D02*
X169960000Y-113612800D01*
X170000000Y-111532800D02*
X170000000Y-110636800D01*
X170000000Y-114508800D02*
X170000000Y-113612800D01*
X170040000Y-111532800D02*
X170040000Y-110602800D01*
X170040000Y-114542800D02*
X170040000Y-113612800D01*
X170080000Y-111532800D02*
X170080000Y-110569800D01*
X170080000Y-114575800D02*
X170080000Y-113612800D01*
X170120000Y-111532800D02*
X170120000Y-110537800D01*
X170120000Y-114607800D02*
X170120000Y-113612800D01*
X170160000Y-111532800D02*
X170160000Y-110507800D01*
X170160000Y-114637800D02*
X170160000Y-113612800D01*
X170200000Y-111532800D02*
X170200000Y-110478800D01*
X170200000Y-114666800D02*
X170200000Y-113612800D01*
X170240000Y-111532800D02*
X170240000Y-110450800D01*
X170240000Y-114694800D02*
X170240000Y-113612800D01*
X170280000Y-111532800D02*
X170280000Y-110423800D01*
X170280000Y-114721800D02*
X170280000Y-113612800D01*
X170320000Y-111532800D02*
X170320000Y-110397800D01*
X170320000Y-114747800D02*
X170320000Y-113612800D01*
X170360000Y-111532800D02*
X170360000Y-110373800D01*
X170360000Y-114771800D02*
X170360000Y-113612800D01*
X170400000Y-111532800D02*
X170400000Y-110349800D01*
X170400000Y-114795800D02*
X170400000Y-113612800D01*
X170440000Y-111532800D02*
X170440000Y-110326800D01*
X170440000Y-114818800D02*
X170440000Y-113612800D01*
X170480000Y-111532800D02*
X170480000Y-110304800D01*
X170480000Y-114840800D02*
X170480000Y-113612800D01*
X170520000Y-111532800D02*
X170520000Y-110283800D01*
X170520000Y-114861800D02*
X170520000Y-113612800D01*
X170560000Y-111532800D02*
X170560000Y-110263800D01*
X170560000Y-114881800D02*
X170560000Y-113612800D01*
X170600000Y-111532800D02*
X170600000Y-110243800D01*
X170600000Y-114901800D02*
X170600000Y-113612800D01*
X170640000Y-111532800D02*
X170640000Y-110225800D01*
X170640000Y-114919800D02*
X170640000Y-113612800D01*
X170680000Y-111532800D02*
X170680000Y-110207800D01*
X170680000Y-114937800D02*
X170680000Y-113612800D01*
X170720000Y-111532800D02*
X170720000Y-110190800D01*
X170720000Y-114954800D02*
X170720000Y-113612800D01*
X170760000Y-111532800D02*
X170760000Y-110174800D01*
X170760000Y-114970800D02*
X170760000Y-113612800D01*
X170800000Y-111532800D02*
X170800000Y-110159800D01*
X170800000Y-114985800D02*
X170800000Y-113612800D01*
X170840000Y-111532800D02*
X170840000Y-110144800D01*
X170840000Y-115000800D02*
X170840000Y-113612800D01*
X170880000Y-111532800D02*
X170880000Y-110130800D01*
X170880000Y-115014800D02*
X170880000Y-113612800D01*
X170920000Y-111532800D02*
X170920000Y-110117800D01*
X170920000Y-115027800D02*
X170920000Y-113612800D01*
X170960000Y-111532800D02*
X170960000Y-110105800D01*
X170960000Y-115039800D02*
X170960000Y-113612800D01*
X171000000Y-111532800D02*
X171000000Y-110093800D01*
X171000000Y-115051800D02*
X171000000Y-113612800D01*
X171040000Y-111532800D02*
X171040000Y-110082800D01*
X171040000Y-115062800D02*
X171040000Y-113612800D01*
X171080000Y-111532800D02*
X171080000Y-110071800D01*
X171080000Y-115073800D02*
X171080000Y-113612800D01*
X171120000Y-111532800D02*
X171120000Y-110062800D01*
X171120000Y-115082800D02*
X171120000Y-113612800D01*
X171160000Y-111532800D02*
X171160000Y-110053800D01*
X171160000Y-115091800D02*
X171160000Y-113612800D01*
X171200000Y-111532800D02*
X171200000Y-110044800D01*
X171200000Y-115100800D02*
X171200000Y-113612800D01*
X171240000Y-111532800D02*
X171240000Y-110036800D01*
X171240000Y-115108800D02*
X171240000Y-113612800D01*
X171280000Y-111532800D02*
X171280000Y-110029800D01*
X171280000Y-115115800D02*
X171280000Y-113612800D01*
X171320000Y-111532800D02*
X171320000Y-110023800D01*
X171320000Y-115121800D02*
X171320000Y-113612800D01*
X171360000Y-111532800D02*
X171360000Y-110017800D01*
X171360000Y-115127800D02*
X171360000Y-113612800D01*
X171400000Y-111532800D02*
X171400000Y-110012800D01*
X171400000Y-115132800D02*
X171400000Y-113612800D01*
X171440000Y-111532800D02*
X171440000Y-110007800D01*
X171440000Y-115137800D02*
X171440000Y-113612800D01*
X171480000Y-111532800D02*
X171480000Y-110003800D01*
X171480000Y-115141800D02*
X171480000Y-113612800D01*
X171520000Y-111532800D02*
X171520000Y-110000800D01*
X171520000Y-115144800D02*
X171520000Y-113612800D01*
X171560000Y-111532800D02*
X171560000Y-109997800D01*
X171560000Y-115147800D02*
X171560000Y-113612800D01*
X171600000Y-111532800D02*
X171600000Y-109995800D01*
X171600000Y-115149800D02*
X171600000Y-113612800D01*
X171640000Y-111532800D02*
X171640000Y-109993800D01*
X171640000Y-115151800D02*
X171640000Y-113612800D01*
X171680000Y-111532800D02*
X171680000Y-109992800D01*
X171680000Y-115152800D02*
X171680000Y-113612800D01*
X171720000Y-111532800D02*
X171720000Y-109992800D01*
X171720000Y-115152800D02*
X171720000Y-113612800D01*
X174274775Y-114297800D02*
X174274775Y-113797800D01*
X174524775Y-114047800D02*
X174024775Y-114047800D01*
X174340000Y-112572800D02*
G75*
G02*
X169100000Y-112572800I-2620000J0D01*
G01*
X169100000Y-112572800D02*
G75*
G02*
X174340000Y-112572800I2620000J0D01*
G01*
%TO.C,J11*%
X188482000Y-56363200D02*
X189862000Y-56363200D01*
X188482000Y-57743200D02*
X188482000Y-56363200D01*
X188482000Y-59013200D02*
X188482000Y-76903200D01*
X188482000Y-59013200D02*
X191242000Y-59013200D01*
X188482000Y-76903200D02*
X191242000Y-76903200D01*
X191242000Y-59013200D02*
X191242000Y-76903200D01*
%TO.C,D2*%
X125686200Y-58276500D02*
X125686200Y-59296500D01*
X125686200Y-65756500D02*
X125686200Y-64736500D01*
X127156200Y-60076500D02*
X124216200Y-60076500D01*
X127156200Y-60196500D02*
X124216200Y-60196500D01*
X127156200Y-60316500D02*
X124216200Y-60316500D01*
X127156200Y-59296500D02*
X124216200Y-59296500D01*
X124216200Y-64736500D01*
X127156200Y-64736500D01*
X127156200Y-59296500D01*
%TO.C,R7*%
X225538064Y-140408200D02*
X225083936Y-140408200D01*
X225538064Y-141878200D02*
X225083936Y-141878200D01*
%TO.C,K3*%
X130831200Y-95544000D02*
X130831200Y-102144000D01*
X130831200Y-95544000D02*
X150631200Y-95544000D01*
X130831200Y-104544000D02*
X130831200Y-111144000D01*
X134881200Y-103394000D02*
X134081200Y-103394000D01*
X134881200Y-103394000D02*
X134881200Y-106994000D01*
X135781200Y-109394000D02*
X138281200Y-109394000D01*
X136281200Y-101594000D02*
X140281200Y-101594000D01*
X136281200Y-105194000D02*
X136281200Y-101594000D01*
X138281200Y-97394000D02*
X135781200Y-97394000D01*
X138281200Y-97394000D02*
X138281200Y-101594000D01*
X138281200Y-105194000D02*
X138281200Y-109394000D01*
X140281200Y-101594000D02*
X140281200Y-105194000D01*
X140281200Y-105194000D02*
X136281200Y-101594000D01*
X140281200Y-105194000D02*
X136281200Y-105194000D01*
X141681200Y-103394000D02*
X141681200Y-106994000D01*
X141681200Y-103394000D02*
X143181200Y-103394000D01*
X141681200Y-106994000D02*
X134881200Y-106994000D01*
X143181200Y-103394000D02*
X147781200Y-100894000D01*
X146381200Y-104844000D02*
X146381200Y-107344000D01*
X150631200Y-95544000D02*
X150631200Y-111144000D01*
X150631200Y-111144000D02*
X130831200Y-111144000D01*
%TO.C,C10*%
X81325000Y-124783000D02*
X81325000Y-124217000D01*
X81365000Y-125017000D02*
X81365000Y-123983000D01*
X81405000Y-125177000D02*
X81405000Y-123823000D01*
X81445000Y-125305000D02*
X81445000Y-123695000D01*
X81485000Y-125414000D02*
X81485000Y-123586000D01*
X81525000Y-125511000D02*
X81525000Y-123489000D01*
X81565000Y-125598000D02*
X81565000Y-123402000D01*
X81605000Y-125677000D02*
X81605000Y-123323000D01*
X81645000Y-125751000D02*
X81645000Y-123249000D01*
X81685000Y-125819000D02*
X81685000Y-123181000D01*
X81725000Y-125883000D02*
X81725000Y-123117000D01*
X81765000Y-125943000D02*
X81765000Y-123057000D01*
X81805000Y-125999000D02*
X81805000Y-123001000D01*
X81845000Y-126053000D02*
X81845000Y-122947000D01*
X81885000Y-126104000D02*
X81885000Y-122896000D01*
X81925000Y-123460000D02*
X81925000Y-122848000D01*
X81925000Y-126152000D02*
X81925000Y-125540000D01*
X81965000Y-123460000D02*
X81965000Y-122801000D01*
X81965000Y-126199000D02*
X81965000Y-125540000D01*
X82005000Y-123460000D02*
X82005000Y-122757000D01*
X82005000Y-126243000D02*
X82005000Y-125540000D01*
X82045000Y-123460000D02*
X82045000Y-122715000D01*
X82045000Y-126285000D02*
X82045000Y-125540000D01*
X82085000Y-123460000D02*
X82085000Y-122675000D01*
X82085000Y-126325000D02*
X82085000Y-125540000D01*
X82125000Y-123460000D02*
X82125000Y-122636000D01*
X82125000Y-126364000D02*
X82125000Y-125540000D01*
X82165000Y-123460000D02*
X82165000Y-122599000D01*
X82165000Y-126401000D02*
X82165000Y-125540000D01*
X82205000Y-123460000D02*
X82205000Y-122564000D01*
X82205000Y-126436000D02*
X82205000Y-125540000D01*
X82245000Y-123460000D02*
X82245000Y-122530000D01*
X82245000Y-126470000D02*
X82245000Y-125540000D01*
X82285000Y-123460000D02*
X82285000Y-122497000D01*
X82285000Y-126503000D02*
X82285000Y-125540000D01*
X82325000Y-123460000D02*
X82325000Y-122465000D01*
X82325000Y-126535000D02*
X82325000Y-125540000D01*
X82365000Y-123460000D02*
X82365000Y-122435000D01*
X82365000Y-126565000D02*
X82365000Y-125540000D01*
X82405000Y-123460000D02*
X82405000Y-122406000D01*
X82405000Y-126594000D02*
X82405000Y-125540000D01*
X82445000Y-123460000D02*
X82445000Y-122378000D01*
X82445000Y-126622000D02*
X82445000Y-125540000D01*
X82485000Y-123460000D02*
X82485000Y-122351000D01*
X82485000Y-126649000D02*
X82485000Y-125540000D01*
X82525000Y-123460000D02*
X82525000Y-122325000D01*
X82525000Y-126675000D02*
X82525000Y-125540000D01*
X82565000Y-123460000D02*
X82565000Y-122301000D01*
X82565000Y-126699000D02*
X82565000Y-125540000D01*
X82605000Y-123460000D02*
X82605000Y-122277000D01*
X82605000Y-126723000D02*
X82605000Y-125540000D01*
X82645000Y-123460000D02*
X82645000Y-122254000D01*
X82645000Y-126746000D02*
X82645000Y-125540000D01*
X82685000Y-123460000D02*
X82685000Y-122232000D01*
X82685000Y-126768000D02*
X82685000Y-125540000D01*
X82725000Y-123460000D02*
X82725000Y-122211000D01*
X82725000Y-126789000D02*
X82725000Y-125540000D01*
X82765000Y-123460000D02*
X82765000Y-122191000D01*
X82765000Y-126809000D02*
X82765000Y-125540000D01*
X82805000Y-123460000D02*
X82805000Y-122171000D01*
X82805000Y-126829000D02*
X82805000Y-125540000D01*
X82845000Y-123460000D02*
X82845000Y-122153000D01*
X82845000Y-126847000D02*
X82845000Y-125540000D01*
X82885000Y-123460000D02*
X82885000Y-122135000D01*
X82885000Y-126865000D02*
X82885000Y-125540000D01*
X82925000Y-123460000D02*
X82925000Y-122118000D01*
X82925000Y-126882000D02*
X82925000Y-125540000D01*
X82965000Y-123460000D02*
X82965000Y-122102000D01*
X82965000Y-126898000D02*
X82965000Y-125540000D01*
X83005000Y-123460000D02*
X83005000Y-122087000D01*
X83005000Y-126913000D02*
X83005000Y-125540000D01*
X83045000Y-123460000D02*
X83045000Y-122072000D01*
X83045000Y-126928000D02*
X83045000Y-125540000D01*
X83085000Y-123460000D02*
X83085000Y-122058000D01*
X83085000Y-126942000D02*
X83085000Y-125540000D01*
X83125000Y-123460000D02*
X83125000Y-122045000D01*
X83125000Y-126955000D02*
X83125000Y-125540000D01*
X83165000Y-123460000D02*
X83165000Y-122033000D01*
X83165000Y-126967000D02*
X83165000Y-125540000D01*
X83205000Y-123460000D02*
X83205000Y-122021000D01*
X83205000Y-126979000D02*
X83205000Y-125540000D01*
X83245000Y-123460000D02*
X83245000Y-122010000D01*
X83245000Y-126990000D02*
X83245000Y-125540000D01*
X83285000Y-123460000D02*
X83285000Y-121999000D01*
X83285000Y-127001000D02*
X83285000Y-125540000D01*
X83325000Y-123460000D02*
X83325000Y-121990000D01*
X83325000Y-127010000D02*
X83325000Y-125540000D01*
X83365000Y-123460000D02*
X83365000Y-121981000D01*
X83365000Y-127019000D02*
X83365000Y-125540000D01*
X83405000Y-123460000D02*
X83405000Y-121972000D01*
X83405000Y-127028000D02*
X83405000Y-125540000D01*
X83445000Y-123460000D02*
X83445000Y-121964000D01*
X83445000Y-127036000D02*
X83445000Y-125540000D01*
X83485000Y-123460000D02*
X83485000Y-121957000D01*
X83485000Y-127043000D02*
X83485000Y-125540000D01*
X83525000Y-123460000D02*
X83525000Y-121951000D01*
X83525000Y-127049000D02*
X83525000Y-125540000D01*
X83565000Y-123460000D02*
X83565000Y-121945000D01*
X83565000Y-127055000D02*
X83565000Y-125540000D01*
X83605000Y-123460000D02*
X83605000Y-121940000D01*
X83605000Y-127060000D02*
X83605000Y-125540000D01*
X83645000Y-123460000D02*
X83645000Y-121935000D01*
X83645000Y-127065000D02*
X83645000Y-125540000D01*
X83685000Y-123460000D02*
X83685000Y-121931000D01*
X83685000Y-127069000D02*
X83685000Y-125540000D01*
X83725000Y-123460000D02*
X83725000Y-121928000D01*
X83725000Y-127072000D02*
X83725000Y-125540000D01*
X83765000Y-123460000D02*
X83765000Y-121925000D01*
X83765000Y-127075000D02*
X83765000Y-125540000D01*
X83805000Y-123460000D02*
X83805000Y-121923000D01*
X83805000Y-127077000D02*
X83805000Y-125540000D01*
X83845000Y-123460000D02*
X83845000Y-121921000D01*
X83845000Y-127079000D02*
X83845000Y-125540000D01*
X83885000Y-123460000D02*
X83885000Y-121920000D01*
X83885000Y-127080000D02*
X83885000Y-125540000D01*
X83925000Y-123460000D02*
X83925000Y-121920000D01*
X83925000Y-127080000D02*
X83925000Y-125540000D01*
X86479775Y-126225000D02*
X86479775Y-125725000D01*
X86729775Y-125975000D02*
X86229775Y-125975000D01*
X86545000Y-124500000D02*
G75*
G02*
X81305000Y-124500000I-2620000J0D01*
G01*
X81305000Y-124500000D02*
G75*
G02*
X86545000Y-124500000I2620000J0D01*
G01*
%TO.C,TP3*%
X229875000Y-125039600D02*
G75*
G02*
X226875000Y-125039600I-1500000J0D01*
G01*
X226875000Y-125039600D02*
G75*
G02*
X229875000Y-125039600I1500000J0D01*
G01*
%TO.C,J5*%
X164160000Y-66820000D02*
X153760000Y-66820000D01*
X164160000Y-63800000D02*
X153760000Y-63800000D01*
X164160000Y-58900000D02*
X153760000Y-58900000D01*
X164160000Y-57400000D02*
X153760000Y-57400000D01*
X164160000Y-56780000D02*
X164160000Y-66820000D01*
X161800000Y-56780000D02*
X164160000Y-56780000D01*
X153760000Y-66820000D02*
X153760000Y-56780000D01*
X153760000Y-56780000D02*
X161200000Y-56780000D01*
X161500000Y-56780000D02*
X161060000Y-56170000D01*
X161940000Y-56170000D01*
X161500000Y-56780000D01*
G36*
X161500000Y-56780000D02*
G01*
X161060000Y-56170000D01*
X161940000Y-56170000D01*
X161500000Y-56780000D01*
G37*
%TO.C,C1*%
X69816200Y-54296000D02*
X69816200Y-53492000D01*
X69856200Y-54527000D02*
X69856200Y-53261000D01*
X69896200Y-54695000D02*
X69896200Y-53093000D01*
X69936200Y-54833000D02*
X69936200Y-52955000D01*
X69976200Y-54952000D02*
X69976200Y-52836000D01*
X70016200Y-55059000D02*
X70016200Y-52729000D01*
X70056200Y-55155000D02*
X70056200Y-52633000D01*
X70096200Y-55244000D02*
X70096200Y-52544000D01*
X70136200Y-55326000D02*
X70136200Y-52462000D01*
X70176200Y-55403000D02*
X70176200Y-52385000D01*
X70216200Y-55475000D02*
X70216200Y-52313000D01*
X70256200Y-55543000D02*
X70256200Y-52245000D01*
X70296200Y-55608000D02*
X70296200Y-52180000D01*
X70336200Y-55669000D02*
X70336200Y-52119000D01*
X70376200Y-55728000D02*
X70376200Y-52060000D01*
X70416200Y-55784000D02*
X70416200Y-52004000D01*
X70456200Y-55837000D02*
X70456200Y-51951000D01*
X70496200Y-55889000D02*
X70496200Y-51899000D01*
X70536200Y-55938000D02*
X70536200Y-51850000D01*
X70576200Y-55985000D02*
X70576200Y-51803000D01*
X70616200Y-56031000D02*
X70616200Y-51757000D01*
X70656200Y-56075000D02*
X70656200Y-51713000D01*
X70696200Y-56117000D02*
X70696200Y-51671000D01*
X70736200Y-56158000D02*
X70736200Y-51630000D01*
X70776200Y-52854000D02*
X70776200Y-51590000D01*
X70776200Y-56198000D02*
X70776200Y-54934000D01*
X70816200Y-52854000D02*
X70816200Y-51552000D01*
X70816200Y-56236000D02*
X70816200Y-54934000D01*
X70856200Y-52854000D02*
X70856200Y-51515000D01*
X70856200Y-56273000D02*
X70856200Y-54934000D01*
X70896200Y-52854000D02*
X70896200Y-51479000D01*
X70896200Y-56309000D02*
X70896200Y-54934000D01*
X70936200Y-52854000D02*
X70936200Y-51444000D01*
X70936200Y-56344000D02*
X70936200Y-54934000D01*
X70976200Y-52854000D02*
X70976200Y-51411000D01*
X70976200Y-56377000D02*
X70976200Y-54934000D01*
X71016200Y-52854000D02*
X71016200Y-51378000D01*
X71016200Y-56410000D02*
X71016200Y-54934000D01*
X71056200Y-52854000D02*
X71056200Y-51347000D01*
X71056200Y-56441000D02*
X71056200Y-54934000D01*
X71096200Y-52854000D02*
X71096200Y-51317000D01*
X71096200Y-56471000D02*
X71096200Y-54934000D01*
X71136200Y-52854000D02*
X71136200Y-51287000D01*
X71136200Y-56501000D02*
X71136200Y-54934000D01*
X71176200Y-52854000D02*
X71176200Y-51258000D01*
X71176200Y-56530000D02*
X71176200Y-54934000D01*
X71216200Y-52854000D02*
X71216200Y-51231000D01*
X71216200Y-56557000D02*
X71216200Y-54934000D01*
X71256200Y-52854000D02*
X71256200Y-51204000D01*
X71256200Y-56584000D02*
X71256200Y-54934000D01*
X71296200Y-52854000D02*
X71296200Y-51178000D01*
X71296200Y-56610000D02*
X71296200Y-54934000D01*
X71336200Y-52854000D02*
X71336200Y-51153000D01*
X71336200Y-56635000D02*
X71336200Y-54934000D01*
X71376200Y-52854000D02*
X71376200Y-51129000D01*
X71376200Y-56659000D02*
X71376200Y-54934000D01*
X71416200Y-52854000D02*
X71416200Y-51105000D01*
X71416200Y-56683000D02*
X71416200Y-54934000D01*
X71456200Y-52854000D02*
X71456200Y-51082000D01*
X71456200Y-56706000D02*
X71456200Y-54934000D01*
X71496200Y-52854000D02*
X71496200Y-51060000D01*
X71496200Y-56728000D02*
X71496200Y-54934000D01*
X71536200Y-52854000D02*
X71536200Y-51039000D01*
X71536200Y-56749000D02*
X71536200Y-54934000D01*
X71576200Y-52854000D02*
X71576200Y-51018000D01*
X71576200Y-56770000D02*
X71576200Y-54934000D01*
X71616200Y-52854000D02*
X71616200Y-50998000D01*
X71616200Y-56790000D02*
X71616200Y-54934000D01*
X71656200Y-52854000D02*
X71656200Y-50979000D01*
X71656200Y-56809000D02*
X71656200Y-54934000D01*
X71696200Y-52854000D02*
X71696200Y-50960000D01*
X71696200Y-56828000D02*
X71696200Y-54934000D01*
X71736200Y-52854000D02*
X71736200Y-50942000D01*
X71736200Y-56846000D02*
X71736200Y-54934000D01*
X71776200Y-52854000D02*
X71776200Y-50925000D01*
X71776200Y-56863000D02*
X71776200Y-54934000D01*
X71816200Y-52854000D02*
X71816200Y-50908000D01*
X71816200Y-56880000D02*
X71816200Y-54934000D01*
X71856200Y-52854000D02*
X71856200Y-50892000D01*
X71856200Y-56896000D02*
X71856200Y-54934000D01*
X71896200Y-52854000D02*
X71896200Y-50877000D01*
X71896200Y-56911000D02*
X71896200Y-54934000D01*
X71936200Y-52854000D02*
X71936200Y-50862000D01*
X71936200Y-56926000D02*
X71936200Y-54934000D01*
X71976200Y-52854000D02*
X71976200Y-50847000D01*
X71976200Y-56941000D02*
X71976200Y-54934000D01*
X72016200Y-52854000D02*
X72016200Y-50834000D01*
X72016200Y-56954000D02*
X72016200Y-54934000D01*
X72056200Y-52854000D02*
X72056200Y-50821000D01*
X72056200Y-56967000D02*
X72056200Y-54934000D01*
X72096200Y-52854000D02*
X72096200Y-50808000D01*
X72096200Y-56980000D02*
X72096200Y-54934000D01*
X72136200Y-52854000D02*
X72136200Y-50796000D01*
X72136200Y-56992000D02*
X72136200Y-54934000D01*
X72176200Y-52854000D02*
X72176200Y-50785000D01*
X72176200Y-57003000D02*
X72176200Y-54934000D01*
X72216200Y-52854000D02*
X72216200Y-50774000D01*
X72216200Y-57014000D02*
X72216200Y-54934000D01*
X72256200Y-52854000D02*
X72256200Y-50763000D01*
X72256200Y-57025000D02*
X72256200Y-54934000D01*
X72296200Y-52854000D02*
X72296200Y-50754000D01*
X72296200Y-57034000D02*
X72296200Y-54934000D01*
X72336200Y-52854000D02*
X72336200Y-50744000D01*
X72336200Y-57044000D02*
X72336200Y-54934000D01*
X72376200Y-52854000D02*
X72376200Y-50735000D01*
X72376200Y-57053000D02*
X72376200Y-54934000D01*
X72416200Y-52854000D02*
X72416200Y-50727000D01*
X72416200Y-57061000D02*
X72416200Y-54934000D01*
X72456200Y-52854000D02*
X72456200Y-50720000D01*
X72456200Y-57068000D02*
X72456200Y-54934000D01*
X72496200Y-52854000D02*
X72496200Y-50712000D01*
X72496200Y-57076000D02*
X72496200Y-54934000D01*
X72536200Y-52854000D02*
X72536200Y-50706000D01*
X72536200Y-57082000D02*
X72536200Y-54934000D01*
X72576200Y-52854000D02*
X72576200Y-50699000D01*
X72576200Y-57089000D02*
X72576200Y-54934000D01*
X72616200Y-52854000D02*
X72616200Y-50694000D01*
X72616200Y-57094000D02*
X72616200Y-54934000D01*
X72656200Y-52854000D02*
X72656200Y-50689000D01*
X72656200Y-57099000D02*
X72656200Y-54934000D01*
X72696200Y-52854000D02*
X72696200Y-50684000D01*
X72696200Y-57104000D02*
X72696200Y-54934000D01*
X72736200Y-52854000D02*
X72736200Y-50680000D01*
X72736200Y-57108000D02*
X72736200Y-54934000D01*
X72776200Y-52854000D02*
X72776200Y-50676000D01*
X72776200Y-57112000D02*
X72776200Y-54934000D01*
X72816200Y-52854000D02*
X72816200Y-50673000D01*
X72816200Y-57115000D02*
X72816200Y-54934000D01*
X72856200Y-57118000D02*
X72856200Y-50670000D01*
X72896200Y-57120000D02*
X72896200Y-50668000D01*
X72936200Y-57122000D02*
X72936200Y-50666000D01*
X72976200Y-57123000D02*
X72976200Y-50665000D01*
X73016200Y-57124000D02*
X73016200Y-50664000D01*
X73056200Y-57124000D02*
X73056200Y-50664000D01*
X76241441Y-56048000D02*
X76241441Y-55418000D01*
X76556441Y-55733000D02*
X75926441Y-55733000D01*
X76326200Y-53894000D02*
G75*
G02*
X69786200Y-53894000I-3270000J0D01*
G01*
X69786200Y-53894000D02*
G75*
G02*
X76326200Y-53894000I3270000J0D01*
G01*
%TO.C,TP7*%
X226166600Y-137028400D02*
G75*
G02*
X223166600Y-137028400I-1500000J0D01*
G01*
X223166600Y-137028400D02*
G75*
G02*
X226166600Y-137028400I1500000J0D01*
G01*
%TO.C,TP16*%
X186310400Y-62890400D02*
G75*
G02*
X183310400Y-62890400I-1500000J0D01*
G01*
X183310400Y-62890400D02*
G75*
G02*
X186310400Y-62890400I1500000J0D01*
G01*
%TO.C,C3*%
X65104952Y-78486500D02*
X64582448Y-78486500D01*
X65104952Y-79956500D02*
X64582448Y-79956500D01*
%TO.C,TP1*%
X217987800Y-122194800D02*
G75*
G02*
X214987800Y-122194800I-1500000J0D01*
G01*
X214987800Y-122194800D02*
G75*
G02*
X217987800Y-122194800I1500000J0D01*
G01*
%TO.C,K2*%
X130831200Y-54544000D02*
X130831200Y-61144000D01*
X130831200Y-54544000D02*
X150631200Y-54544000D01*
X130831200Y-63544000D02*
X130831200Y-70144000D01*
X134881200Y-62394000D02*
X134081200Y-62394000D01*
X134881200Y-62394000D02*
X134881200Y-65994000D01*
X135781200Y-68394000D02*
X138281200Y-68394000D01*
X136281200Y-60594000D02*
X140281200Y-60594000D01*
X136281200Y-64194000D02*
X136281200Y-60594000D01*
X138281200Y-56394000D02*
X135781200Y-56394000D01*
X138281200Y-56394000D02*
X138281200Y-60594000D01*
X138281200Y-64194000D02*
X138281200Y-68394000D01*
X140281200Y-60594000D02*
X140281200Y-64194000D01*
X140281200Y-64194000D02*
X136281200Y-60594000D01*
X140281200Y-64194000D02*
X136281200Y-64194000D01*
X141681200Y-62394000D02*
X141681200Y-65994000D01*
X141681200Y-62394000D02*
X143181200Y-62394000D01*
X141681200Y-65994000D02*
X134881200Y-65994000D01*
X143181200Y-62394000D02*
X147781200Y-59894000D01*
X146381200Y-63844000D02*
X146381200Y-66344000D01*
X150631200Y-54544000D02*
X150631200Y-70144000D01*
X150631200Y-70144000D02*
X130831200Y-70144000D01*
%TO.C,F1*%
X82271200Y-52484000D02*
X82271200Y-55644000D01*
X82271200Y-59144000D02*
X82271200Y-62304000D01*
X104991200Y-52484000D02*
X82271200Y-52484000D01*
X104991200Y-52484000D02*
X104991200Y-55644000D01*
X104991200Y-59144000D02*
X104991200Y-62304000D01*
X104991200Y-62304000D02*
X82271200Y-62304000D01*
%TO.C,R2*%
X224893664Y-121713800D02*
X224439536Y-121713800D01*
X224893664Y-123183800D02*
X224439536Y-123183800D01*
%TO.C,C4*%
X69209800Y-77537200D02*
X69209800Y-76733200D01*
X69249800Y-77768200D02*
X69249800Y-76502200D01*
X69289800Y-77936200D02*
X69289800Y-76334200D01*
X69329800Y-78074200D02*
X69329800Y-76196200D01*
X69369800Y-78193200D02*
X69369800Y-76077200D01*
X69409800Y-78300200D02*
X69409800Y-75970200D01*
X69449800Y-78396200D02*
X69449800Y-75874200D01*
X69489800Y-78485200D02*
X69489800Y-75785200D01*
X69529800Y-78567200D02*
X69529800Y-75703200D01*
X69569800Y-78644200D02*
X69569800Y-75626200D01*
X69609800Y-78716200D02*
X69609800Y-75554200D01*
X69649800Y-78784200D02*
X69649800Y-75486200D01*
X69689800Y-78849200D02*
X69689800Y-75421200D01*
X69729800Y-78910200D02*
X69729800Y-75360200D01*
X69769800Y-78969200D02*
X69769800Y-75301200D01*
X69809800Y-79025200D02*
X69809800Y-75245200D01*
X69849800Y-79078200D02*
X69849800Y-75192200D01*
X69889800Y-79130200D02*
X69889800Y-75140200D01*
X69929800Y-79179200D02*
X69929800Y-75091200D01*
X69969800Y-79226200D02*
X69969800Y-75044200D01*
X70009800Y-79272200D02*
X70009800Y-74998200D01*
X70049800Y-79316200D02*
X70049800Y-74954200D01*
X70089800Y-79358200D02*
X70089800Y-74912200D01*
X70129800Y-79399200D02*
X70129800Y-74871200D01*
X70169800Y-76095200D02*
X70169800Y-74831200D01*
X70169800Y-79439200D02*
X70169800Y-78175200D01*
X70209800Y-76095200D02*
X70209800Y-74793200D01*
X70209800Y-79477200D02*
X70209800Y-78175200D01*
X70249800Y-76095200D02*
X70249800Y-74756200D01*
X70249800Y-79514200D02*
X70249800Y-78175200D01*
X70289800Y-76095200D02*
X70289800Y-74720200D01*
X70289800Y-79550200D02*
X70289800Y-78175200D01*
X70329800Y-76095200D02*
X70329800Y-74685200D01*
X70329800Y-79585200D02*
X70329800Y-78175200D01*
X70369800Y-76095200D02*
X70369800Y-74652200D01*
X70369800Y-79618200D02*
X70369800Y-78175200D01*
X70409800Y-76095200D02*
X70409800Y-74619200D01*
X70409800Y-79651200D02*
X70409800Y-78175200D01*
X70449800Y-76095200D02*
X70449800Y-74588200D01*
X70449800Y-79682200D02*
X70449800Y-78175200D01*
X70489800Y-76095200D02*
X70489800Y-74558200D01*
X70489800Y-79712200D02*
X70489800Y-78175200D01*
X70529800Y-76095200D02*
X70529800Y-74528200D01*
X70529800Y-79742200D02*
X70529800Y-78175200D01*
X70569800Y-76095200D02*
X70569800Y-74499200D01*
X70569800Y-79771200D02*
X70569800Y-78175200D01*
X70609800Y-76095200D02*
X70609800Y-74472200D01*
X70609800Y-79798200D02*
X70609800Y-78175200D01*
X70649800Y-76095200D02*
X70649800Y-74445200D01*
X70649800Y-79825200D02*
X70649800Y-78175200D01*
X70689800Y-76095200D02*
X70689800Y-74419200D01*
X70689800Y-79851200D02*
X70689800Y-78175200D01*
X70729800Y-76095200D02*
X70729800Y-74394200D01*
X70729800Y-79876200D02*
X70729800Y-78175200D01*
X70769800Y-76095200D02*
X70769800Y-74370200D01*
X70769800Y-79900200D02*
X70769800Y-78175200D01*
X70809800Y-76095200D02*
X70809800Y-74346200D01*
X70809800Y-79924200D02*
X70809800Y-78175200D01*
X70849800Y-76095200D02*
X70849800Y-74323200D01*
X70849800Y-79947200D02*
X70849800Y-78175200D01*
X70889800Y-76095200D02*
X70889800Y-74301200D01*
X70889800Y-79969200D02*
X70889800Y-78175200D01*
X70929800Y-76095200D02*
X70929800Y-74280200D01*
X70929800Y-79990200D02*
X70929800Y-78175200D01*
X70969800Y-76095200D02*
X70969800Y-74259200D01*
X70969800Y-80011200D02*
X70969800Y-78175200D01*
X71009800Y-76095200D02*
X71009800Y-74239200D01*
X71009800Y-80031200D02*
X71009800Y-78175200D01*
X71049800Y-76095200D02*
X71049800Y-74220200D01*
X71049800Y-80050200D02*
X71049800Y-78175200D01*
X71089800Y-76095200D02*
X71089800Y-74201200D01*
X71089800Y-80069200D02*
X71089800Y-78175200D01*
X71129800Y-76095200D02*
X71129800Y-74183200D01*
X71129800Y-80087200D02*
X71129800Y-78175200D01*
X71169800Y-76095200D02*
X71169800Y-74166200D01*
X71169800Y-80104200D02*
X71169800Y-78175200D01*
X71209800Y-76095200D02*
X71209800Y-74149200D01*
X71209800Y-80121200D02*
X71209800Y-78175200D01*
X71249800Y-76095200D02*
X71249800Y-74133200D01*
X71249800Y-80137200D02*
X71249800Y-78175200D01*
X71289800Y-76095200D02*
X71289800Y-74118200D01*
X71289800Y-80152200D02*
X71289800Y-78175200D01*
X71329800Y-76095200D02*
X71329800Y-74103200D01*
X71329800Y-80167200D02*
X71329800Y-78175200D01*
X71369800Y-76095200D02*
X71369800Y-74088200D01*
X71369800Y-80182200D02*
X71369800Y-78175200D01*
X71409800Y-76095200D02*
X71409800Y-74075200D01*
X71409800Y-80195200D02*
X71409800Y-78175200D01*
X71449800Y-76095200D02*
X71449800Y-74062200D01*
X71449800Y-80208200D02*
X71449800Y-78175200D01*
X71489800Y-76095200D02*
X71489800Y-74049200D01*
X71489800Y-80221200D02*
X71489800Y-78175200D01*
X71529800Y-76095200D02*
X71529800Y-74037200D01*
X71529800Y-80233200D02*
X71529800Y-78175200D01*
X71569800Y-76095200D02*
X71569800Y-74026200D01*
X71569800Y-80244200D02*
X71569800Y-78175200D01*
X71609800Y-76095200D02*
X71609800Y-74015200D01*
X71609800Y-80255200D02*
X71609800Y-78175200D01*
X71649800Y-76095200D02*
X71649800Y-74004200D01*
X71649800Y-80266200D02*
X71649800Y-78175200D01*
X71689800Y-76095200D02*
X71689800Y-73995200D01*
X71689800Y-80275200D02*
X71689800Y-78175200D01*
X71729800Y-76095200D02*
X71729800Y-73985200D01*
X71729800Y-80285200D02*
X71729800Y-78175200D01*
X71769800Y-76095200D02*
X71769800Y-73976200D01*
X71769800Y-80294200D02*
X71769800Y-78175200D01*
X71809800Y-76095200D02*
X71809800Y-73968200D01*
X71809800Y-80302200D02*
X71809800Y-78175200D01*
X71849800Y-76095200D02*
X71849800Y-73961200D01*
X71849800Y-80309200D02*
X71849800Y-78175200D01*
X71889800Y-76095200D02*
X71889800Y-73953200D01*
X71889800Y-80317200D02*
X71889800Y-78175200D01*
X71929800Y-76095200D02*
X71929800Y-73947200D01*
X71929800Y-80323200D02*
X71929800Y-78175200D01*
X71969800Y-76095200D02*
X71969800Y-73940200D01*
X71969800Y-80330200D02*
X71969800Y-78175200D01*
X72009800Y-76095200D02*
X72009800Y-73935200D01*
X72009800Y-80335200D02*
X72009800Y-78175200D01*
X72049800Y-76095200D02*
X72049800Y-73930200D01*
X72049800Y-80340200D02*
X72049800Y-78175200D01*
X72089800Y-76095200D02*
X72089800Y-73925200D01*
X72089800Y-80345200D02*
X72089800Y-78175200D01*
X72129800Y-76095200D02*
X72129800Y-73921200D01*
X72129800Y-80349200D02*
X72129800Y-78175200D01*
X72169800Y-76095200D02*
X72169800Y-73917200D01*
X72169800Y-80353200D02*
X72169800Y-78175200D01*
X72209800Y-76095200D02*
X72209800Y-73914200D01*
X72209800Y-80356200D02*
X72209800Y-78175200D01*
X72249800Y-80359200D02*
X72249800Y-73911200D01*
X72289800Y-80361200D02*
X72289800Y-73909200D01*
X72329800Y-80363200D02*
X72329800Y-73907200D01*
X72369800Y-80364200D02*
X72369800Y-73906200D01*
X72409800Y-80365200D02*
X72409800Y-73905200D01*
X72449800Y-80365200D02*
X72449800Y-73905200D01*
X75635041Y-79289200D02*
X75635041Y-78659200D01*
X75950041Y-78974200D02*
X75320041Y-78974200D01*
X75719800Y-77135200D02*
G75*
G02*
X69179800Y-77135200I-3270000J0D01*
G01*
X69179800Y-77135200D02*
G75*
G02*
X75719800Y-77135200I3270000J0D01*
G01*
%TO.C,TP18*%
X186259600Y-73304400D02*
G75*
G02*
X183259600Y-73304400I-1500000J0D01*
G01*
X183259600Y-73304400D02*
G75*
G02*
X186259600Y-73304400I1500000J0D01*
G01*
%TO.C,TP17*%
X186259600Y-68122800D02*
G75*
G02*
X183259600Y-68122800I-1500000J0D01*
G01*
X183259600Y-68122800D02*
G75*
G02*
X186259600Y-68122800I1500000J0D01*
G01*
%TO.C,C12*%
X212460352Y-134667800D02*
X211937848Y-134667800D01*
X212460352Y-136137800D02*
X211937848Y-136137800D01*
%TO.C,J6*%
X154180000Y-86740000D02*
X154180000Y-76340000D01*
X157200000Y-86740000D02*
X157200000Y-76340000D01*
X162100000Y-86740000D02*
X162100000Y-76340000D01*
X163600000Y-86740000D02*
X163600000Y-76340000D01*
X164220000Y-86740000D02*
X154180000Y-86740000D01*
X164220000Y-84380000D02*
X164220000Y-86740000D01*
X154180000Y-76340000D02*
X164220000Y-76340000D01*
X164220000Y-76340000D02*
X164220000Y-83780000D01*
X164830000Y-84520000D02*
X164220000Y-84080000D01*
X164830000Y-83640000D01*
X164830000Y-84520000D01*
G36*
X164830000Y-84520000D02*
G01*
X164220000Y-84080000D01*
X164830000Y-83640000D01*
X164830000Y-84520000D01*
G37*
%TO.C,J8*%
X155026200Y-118196500D02*
X165426200Y-118196500D01*
X155026200Y-121216500D02*
X165426200Y-121216500D01*
X155026200Y-126116500D02*
X165426200Y-126116500D01*
X155026200Y-127616500D02*
X165426200Y-127616500D01*
X155026200Y-128236500D02*
X155026200Y-118196500D01*
X157386200Y-128236500D02*
X155026200Y-128236500D01*
X165426200Y-118196500D02*
X165426200Y-128236500D01*
X165426200Y-128236500D02*
X157986200Y-128236500D01*
X158126200Y-128846500D02*
X157246200Y-128846500D01*
X157686200Y-128236500D01*
X158126200Y-128846500D01*
G36*
X158126200Y-128846500D02*
G01*
X157246200Y-128846500D01*
X157686200Y-128236500D01*
X158126200Y-128846500D01*
G37*
%TO.C,TP4*%
X211739400Y-125852400D02*
G75*
G02*
X208739400Y-125852400I-1500000J0D01*
G01*
X208739400Y-125852400D02*
G75*
G02*
X211739400Y-125852400I1500000J0D01*
G01*
%TO.C,TP6*%
X208132600Y-132710400D02*
G75*
G02*
X205132600Y-132710400I-1500000J0D01*
G01*
X205132600Y-132710400D02*
G75*
G02*
X208132600Y-132710400I1500000J0D01*
G01*
%TO.C,C8*%
X73695225Y-124025000D02*
X74195225Y-124025000D01*
X73945225Y-123775000D02*
X73945225Y-124275000D01*
X76500000Y-122920000D02*
X76500000Y-124460000D01*
X76500000Y-126540000D02*
X76500000Y-128080000D01*
X76540000Y-122920000D02*
X76540000Y-124460000D01*
X76540000Y-126540000D02*
X76540000Y-128080000D01*
X76580000Y-122921000D02*
X76580000Y-124460000D01*
X76580000Y-126540000D02*
X76580000Y-128079000D01*
X76620000Y-122923000D02*
X76620000Y-124460000D01*
X76620000Y-126540000D02*
X76620000Y-128077000D01*
X76660000Y-122925000D02*
X76660000Y-124460000D01*
X76660000Y-126540000D02*
X76660000Y-128075000D01*
X76700000Y-122928000D02*
X76700000Y-124460000D01*
X76700000Y-126540000D02*
X76700000Y-128072000D01*
X76740000Y-122931000D02*
X76740000Y-124460000D01*
X76740000Y-126540000D02*
X76740000Y-128069000D01*
X76780000Y-122935000D02*
X76780000Y-124460000D01*
X76780000Y-126540000D02*
X76780000Y-128065000D01*
X76820000Y-122940000D02*
X76820000Y-124460000D01*
X76820000Y-126540000D02*
X76820000Y-128060000D01*
X76860000Y-122945000D02*
X76860000Y-124460000D01*
X76860000Y-126540000D02*
X76860000Y-128055000D01*
X76900000Y-122951000D02*
X76900000Y-124460000D01*
X76900000Y-126540000D02*
X76900000Y-128049000D01*
X76940000Y-122957000D02*
X76940000Y-124460000D01*
X76940000Y-126540000D02*
X76940000Y-128043000D01*
X76980000Y-122964000D02*
X76980000Y-124460000D01*
X76980000Y-126540000D02*
X76980000Y-128036000D01*
X77020000Y-122972000D02*
X77020000Y-124460000D01*
X77020000Y-126540000D02*
X77020000Y-128028000D01*
X77060000Y-122981000D02*
X77060000Y-124460000D01*
X77060000Y-126540000D02*
X77060000Y-128019000D01*
X77100000Y-122990000D02*
X77100000Y-124460000D01*
X77100000Y-126540000D02*
X77100000Y-128010000D01*
X77140000Y-122999000D02*
X77140000Y-124460000D01*
X77140000Y-126540000D02*
X77140000Y-128001000D01*
X77180000Y-123010000D02*
X77180000Y-124460000D01*
X77180000Y-126540000D02*
X77180000Y-127990000D01*
X77220000Y-123021000D02*
X77220000Y-124460000D01*
X77220000Y-126540000D02*
X77220000Y-127979000D01*
X77260000Y-123033000D02*
X77260000Y-124460000D01*
X77260000Y-126540000D02*
X77260000Y-127967000D01*
X77300000Y-123045000D02*
X77300000Y-124460000D01*
X77300000Y-126540000D02*
X77300000Y-127955000D01*
X77340000Y-123058000D02*
X77340000Y-124460000D01*
X77340000Y-126540000D02*
X77340000Y-127942000D01*
X77380000Y-123072000D02*
X77380000Y-124460000D01*
X77380000Y-126540000D02*
X77380000Y-127928000D01*
X77420000Y-123087000D02*
X77420000Y-124460000D01*
X77420000Y-126540000D02*
X77420000Y-127913000D01*
X77460000Y-123102000D02*
X77460000Y-124460000D01*
X77460000Y-126540000D02*
X77460000Y-127898000D01*
X77500000Y-123118000D02*
X77500000Y-124460000D01*
X77500000Y-126540000D02*
X77500000Y-127882000D01*
X77540000Y-123135000D02*
X77540000Y-124460000D01*
X77540000Y-126540000D02*
X77540000Y-127865000D01*
X77580000Y-123153000D02*
X77580000Y-124460000D01*
X77580000Y-126540000D02*
X77580000Y-127847000D01*
X77620000Y-123171000D02*
X77620000Y-124460000D01*
X77620000Y-126540000D02*
X77620000Y-127829000D01*
X77660000Y-123191000D02*
X77660000Y-124460000D01*
X77660000Y-126540000D02*
X77660000Y-127809000D01*
X77700000Y-123211000D02*
X77700000Y-124460000D01*
X77700000Y-126540000D02*
X77700000Y-127789000D01*
X77740000Y-123232000D02*
X77740000Y-124460000D01*
X77740000Y-126540000D02*
X77740000Y-127768000D01*
X77780000Y-123254000D02*
X77780000Y-124460000D01*
X77780000Y-126540000D02*
X77780000Y-127746000D01*
X77820000Y-123277000D02*
X77820000Y-124460000D01*
X77820000Y-126540000D02*
X77820000Y-127723000D01*
X77860000Y-123301000D02*
X77860000Y-124460000D01*
X77860000Y-126540000D02*
X77860000Y-127699000D01*
X77900000Y-123325000D02*
X77900000Y-124460000D01*
X77900000Y-126540000D02*
X77900000Y-127675000D01*
X77940000Y-123351000D02*
X77940000Y-124460000D01*
X77940000Y-126540000D02*
X77940000Y-127649000D01*
X77980000Y-123378000D02*
X77980000Y-124460000D01*
X77980000Y-126540000D02*
X77980000Y-127622000D01*
X78020000Y-123406000D02*
X78020000Y-124460000D01*
X78020000Y-126540000D02*
X78020000Y-127594000D01*
X78060000Y-123435000D02*
X78060000Y-124460000D01*
X78060000Y-126540000D02*
X78060000Y-127565000D01*
X78100000Y-123465000D02*
X78100000Y-124460000D01*
X78100000Y-126540000D02*
X78100000Y-127535000D01*
X78140000Y-123497000D02*
X78140000Y-124460000D01*
X78140000Y-126540000D02*
X78140000Y-127503000D01*
X78180000Y-123530000D02*
X78180000Y-124460000D01*
X78180000Y-126540000D02*
X78180000Y-127470000D01*
X78220000Y-123564000D02*
X78220000Y-124460000D01*
X78220000Y-126540000D02*
X78220000Y-127436000D01*
X78260000Y-123599000D02*
X78260000Y-124460000D01*
X78260000Y-126540000D02*
X78260000Y-127401000D01*
X78300000Y-123636000D02*
X78300000Y-124460000D01*
X78300000Y-126540000D02*
X78300000Y-127364000D01*
X78340000Y-123675000D02*
X78340000Y-124460000D01*
X78340000Y-126540000D02*
X78340000Y-127325000D01*
X78380000Y-123715000D02*
X78380000Y-124460000D01*
X78380000Y-126540000D02*
X78380000Y-127285000D01*
X78420000Y-123757000D02*
X78420000Y-124460000D01*
X78420000Y-126540000D02*
X78420000Y-127243000D01*
X78460000Y-123801000D02*
X78460000Y-124460000D01*
X78460000Y-126540000D02*
X78460000Y-127199000D01*
X78500000Y-123848000D02*
X78500000Y-124460000D01*
X78500000Y-126540000D02*
X78500000Y-127152000D01*
X78540000Y-123896000D02*
X78540000Y-127104000D01*
X78580000Y-123947000D02*
X78580000Y-127053000D01*
X78620000Y-124001000D02*
X78620000Y-126999000D01*
X78660000Y-124057000D02*
X78660000Y-126943000D01*
X78700000Y-124117000D02*
X78700000Y-126883000D01*
X78740000Y-124181000D02*
X78740000Y-126819000D01*
X78780000Y-124249000D02*
X78780000Y-126751000D01*
X78820000Y-124323000D02*
X78820000Y-126677000D01*
X78860000Y-124402000D02*
X78860000Y-126598000D01*
X78900000Y-124489000D02*
X78900000Y-126511000D01*
X78940000Y-124586000D02*
X78940000Y-126414000D01*
X78980000Y-124695000D02*
X78980000Y-126305000D01*
X79020000Y-124823000D02*
X79020000Y-126177000D01*
X79060000Y-124983000D02*
X79060000Y-126017000D01*
X79100000Y-125217000D02*
X79100000Y-125783000D01*
X79120000Y-125500000D02*
G75*
G02*
X73880000Y-125500000I-2620000J0D01*
G01*
X73880000Y-125500000D02*
G75*
G02*
X79120000Y-125500000I2620000J0D01*
G01*
%TO.C,J4*%
X71820000Y-113760000D02*
X71820000Y-129240000D01*
X68800000Y-113760000D02*
X68800000Y-129240000D01*
X63900000Y-113760000D02*
X63900000Y-129240000D01*
X62400000Y-113760000D02*
X62400000Y-129240000D01*
X61780000Y-113760000D02*
X71820000Y-113760000D01*
X61780000Y-116120000D02*
X61780000Y-113760000D01*
X71820000Y-129240000D02*
X61780000Y-129240000D01*
X61780000Y-129240000D02*
X61780000Y-116720000D01*
X61780000Y-116420000D02*
X61170000Y-116860000D01*
X61170000Y-115980000D01*
X61780000Y-116420000D01*
G36*
X61780000Y-116420000D02*
G01*
X61170000Y-116860000D01*
X61170000Y-115980000D01*
X61780000Y-116420000D01*
G37*
%TO.C,C7*%
X76201248Y-116265000D02*
X76723752Y-116265000D01*
X76201248Y-117735000D02*
X76723752Y-117735000D01*
%TD*%
M02*
