M48
; DRILL file {KiCad 9.0.6} date 2026-01-14T23:40:34-0800
; FORMAT={-:-/ absolute / metric / decimal}
; #@! TF.CreationDate,2026-01-14T23:40:34-08:00
; #@! TF.GenerationSoftware,Kicad,Pcbnew,9.0.6
; #@! TF.FileFunction,Plated,1,2,PTH
FMAT,2
METRIC
; #@! TA.AperFunction,Plated,PTH,ViaDrill
T1C0.300
; #@! TA.AperFunction,Plated,PTH,ComponentDrill
T2C0.500
; #@! TA.AperFunction,Plated,PTH,ComponentDrill
T3C0.800
; #@! TA.AperFunction,Plated,PTH,ComponentDrill
T4C1.000
; #@! TA.AperFunction,Plated,PTH,ComponentDrill
T5C1.100
; #@! TA.AperFunction,Plated,PTH,ComponentDrill
T6C1.300
; #@! TA.AperFunction,Plated,PTH,ComponentDrill
T7C3.200
%
G90
G05
T1
X68.5Y-128.0
X75.425Y-117.0
X82.925Y-117.5
X82.925Y-117.5
X85.039Y-118.778
X85.074Y-103.106
X86.462Y-117.5
X89.5Y-135.5
X171.5Y-120.5
X178.582Y-92.731
X178.582Y-92.731
X182.0Y-68.0
X194.005Y-60.3
X195.0Y-60.0
X200.99Y-63.99
X209.5Y-88.5
X209.5Y-135.5
X212.496Y-112.014
X213.237Y-135.403
X217.453Y-135.403
X220.5Y-98.5
X224.434Y-85.242
X224.434Y-85.242
X230.653Y-132.863
X233.0Y-90.0
X233.0Y-141.0
T2
X59.1Y-47.5
X59.6Y-145.0
X59.803Y-45.803
X59.803Y-49.197
X60.303Y-143.303
X60.303Y-146.697
X61.5Y-45.1
X61.5Y-49.9
X62.0Y-142.6
X62.0Y-147.4
X63.197Y-45.803
X63.197Y-49.197
X63.697Y-143.303
X63.697Y-146.697
X63.9Y-47.5
X64.4Y-145.0
X249.6Y-47.0
X250.1Y-145.0
X250.303Y-45.303
X250.303Y-48.697
X250.803Y-143.303
X250.803Y-146.697
X252.0Y-44.6
X252.0Y-49.4
X252.5Y-142.6
X252.5Y-147.4
X253.697Y-45.303
X253.697Y-48.697
X254.197Y-143.303
X254.197Y-146.697
X254.4Y-47.0
X254.9Y-145.0
T3
X71.2Y-77.135
X71.806Y-53.894
X73.7Y-77.135
X74.306Y-53.894
X75.0Y-103.0
X75.5Y-125.5
X77.0Y-103.0
X77.5Y-125.5
X82.925Y-124.5
X84.925Y-124.5
X170.72Y-112.573
X171.076Y-132.69
X171.639Y-64.313
X172.72Y-112.573
X173.076Y-132.69
X174.139Y-64.313
T4
X134.181Y-56.394
X134.181Y-68.394
X134.181Y-97.394
X134.181Y-109.394
X134.531Y-77.344
X134.531Y-89.344
X134.681Y-117.394
X134.681Y-129.394
X184.76Y-68.123
X184.76Y-73.304
X184.81Y-62.89
X184.861Y-57.658
X189.862Y-57.743
X189.862Y-60.283
X189.862Y-62.823
X189.862Y-65.363
X189.862Y-67.903
X189.862Y-70.443
X189.862Y-72.983
X189.862Y-75.523
X204.622Y-88.514
X206.633Y-132.71
X210.239Y-125.852
X211.085Y-93.669
X212.47Y-96.509
X213.855Y-93.669
X214.732Y-89.103
X215.24Y-96.509
X215.421Y-139.721
X216.488Y-122.195
X216.625Y-93.669
X216.793Y-130.221
X218.01Y-96.509
X219.395Y-93.669
X220.523Y-89.002
X220.675Y-122.631
X220.675Y-125.171
X220.675Y-127.711
X220.675Y-130.251
X220.675Y-132.791
X220.675Y-135.331
X220.675Y-137.871
X220.675Y-140.411
X220.78Y-96.509
X221.0Y-78.0
X222.165Y-93.669
X223.55Y-96.509
X224.667Y-137.028
X224.935Y-93.669
X226.32Y-96.509
X227.705Y-93.669
X228.375Y-125.04
X229.09Y-96.509
X230.475Y-93.669
X230.835Y-86.127
T5
X125.686Y-56.936
X125.686Y-67.096
X127.181Y-97.963
X127.181Y-108.123
X127.186Y-77.948
X127.186Y-88.108
X127.186Y-118.436
X127.186Y-128.596
T6
X65.328Y-62.955
X65.328Y-68.035
X66.0Y-86.455
X66.0Y-91.535
X66.0Y-100.0
X66.0Y-105.08
X66.5Y-116.42
X66.5Y-121.5
X66.5Y-126.58
X82.381Y-57.394
X85.631Y-74.894
X104.881Y-57.394
X108.131Y-74.894
X132.231Y-62.344
X132.231Y-103.344
X132.581Y-83.294
X132.731Y-123.344
X146.381Y-68.394
X146.381Y-109.394
X146.731Y-89.344
X146.881Y-129.394
X156.42Y-61.5
X157.686Y-123.516
X159.5Y-79.0
X159.5Y-84.08
X160.0Y-101.0
X160.0Y-106.08
X161.5Y-61.5
X162.766Y-123.516
T7
X61.5Y-47.5
X62.0Y-145.0
X204.13Y-96.509
X237.43Y-96.509
X252.0Y-47.0
X252.5Y-145.0
M30
