%TF.GenerationSoftware,KiCad,Pcbnew,9.0.6*%
%TF.CreationDate,2026-01-14T23:40:17-08:00*%
%TF.ProjectId,ald_control_board,616c645f-636f-46e7-9472-6f6c5f626f61,rev?*%
%TF.SameCoordinates,Original*%
%TF.FileFunction,Copper,L1,Top*%
%TF.FilePolarity,Positive*%
%FSLAX46Y46*%
G04 Gerber Fmt 4.6, Leading zero omitted, Abs format (unit mm)*
G04 Created by KiCad (PCBNEW 9.0.6) date 2026-01-14 23:40:17*
%MOMM*%
%LPD*%
G01*
G04 APERTURE LIST*
G04 Aperture macros list*
%AMRoundRect*
0 Rectangle with rounded corners*
0 $1 Rounding radius*
0 $2 $3 $4 $5 $6 $7 $8 $9 X,Y pos of 4 corners*
0 Add a 4 corners polygon primitive as box body*
4,1,4,$2,$3,$4,$5,$6,$7,$8,$9,$2,$3,0*
0 Add four circle primitives for the rounded corners*
1,1,$1+$1,$2,$3*
1,1,$1+$1,$4,$5*
1,1,$1+$1,$6,$7*
1,1,$1+$1,$8,$9*
0 Add four rect primitives between the rounded corners*
20,1,$1+$1,$2,$3,$4,$5,0*
20,1,$1+$1,$4,$5,$6,$7,0*
20,1,$1+$1,$6,$7,$8,$9,0*
20,1,$1+$1,$8,$9,$2,$3,0*%
G04 Aperture macros list end*
%TA.AperFunction,EtchedComponent*%
%ADD10C,0.000000*%
%TD*%
%TA.AperFunction,ComponentPad*%
%ADD11C,0.800000*%
%TD*%
%TA.AperFunction,ComponentPad*%
%ADD12C,6.400000*%
%TD*%
%TA.AperFunction,ComponentPad*%
%ADD13C,2.000000*%
%TD*%
%TA.AperFunction,SMDPad,CuDef*%
%ADD14RoundRect,0.250000X0.475000X-0.337500X0.475000X0.337500X-0.475000X0.337500X-0.475000X-0.337500X0*%
%TD*%
%TA.AperFunction,SMDPad,CuDef*%
%ADD15RoundRect,0.250000X-0.450000X0.350000X-0.450000X-0.350000X0.450000X-0.350000X0.450000X0.350000X0*%
%TD*%
%TA.AperFunction,ComponentPad*%
%ADD16C,1.600000*%
%TD*%
%TA.AperFunction,ComponentPad*%
%ADD17R,1.600000X1.600000*%
%TD*%
%TA.AperFunction,ComponentPad*%
%ADD18C,4.000000*%
%TD*%
%TA.AperFunction,SMDPad,CuDef*%
%ADD19RoundRect,0.250000X-0.337500X-0.475000X0.337500X-0.475000X0.337500X0.475000X-0.337500X0.475000X0*%
%TD*%
%TA.AperFunction,ComponentPad*%
%ADD20C,2.500000*%
%TD*%
%TA.AperFunction,ComponentPad*%
%ADD21C,3.000000*%
%TD*%
%TA.AperFunction,SMDPad,CuDef*%
%ADD22RoundRect,0.250000X0.350000X0.450000X-0.350000X0.450000X-0.350000X-0.450000X0.350000X-0.450000X0*%
%TD*%
%TA.AperFunction,ComponentPad*%
%ADD23RoundRect,0.249999X-0.850001X0.850001X-0.850001X-0.850001X0.850001X-0.850001X0.850001X0.850001X0*%
%TD*%
%TA.AperFunction,ComponentPad*%
%ADD24C,2.200000*%
%TD*%
%TA.AperFunction,SMDPad,CuDef*%
%ADD25RoundRect,0.250000X-0.475000X0.337500X-0.475000X-0.337500X0.475000X-0.337500X0.475000X0.337500X0*%
%TD*%
%TA.AperFunction,SMDPad,CuDef*%
%ADD26C,0.500000*%
%TD*%
%TA.AperFunction,SMDPad,CuDef*%
%ADD27RoundRect,0.250000X0.337500X0.475000X-0.337500X0.475000X-0.337500X-0.475000X0.337500X-0.475000X0*%
%TD*%
%TA.AperFunction,ComponentPad*%
%ADD28RoundRect,0.250000X-0.550000X-0.550000X0.550000X-0.550000X0.550000X0.550000X-0.550000X0.550000X0*%
%TD*%
%TA.AperFunction,ComponentPad*%
%ADD29R,1.700000X1.700000*%
%TD*%
%TA.AperFunction,ComponentPad*%
%ADD30C,1.700000*%
%TD*%
%TA.AperFunction,ComponentPad*%
%ADD31RoundRect,0.250000X-1.050000X1.050000X-1.050000X-1.050000X1.050000X-1.050000X1.050000X1.050000X0*%
%TD*%
%TA.AperFunction,ComponentPad*%
%ADD32C,2.600000*%
%TD*%
%TA.AperFunction,SMDPad,CuDef*%
%ADD33RoundRect,0.250000X-0.350000X-0.450000X0.350000X-0.450000X0.350000X0.450000X-0.350000X0.450000X0*%
%TD*%
%TA.AperFunction,ComponentPad*%
%ADD34RoundRect,0.250000X0.550000X0.550000X-0.550000X0.550000X-0.550000X-0.550000X0.550000X-0.550000X0*%
%TD*%
%TA.AperFunction,ComponentPad*%
%ADD35RoundRect,0.250000X1.050000X-1.050000X1.050000X1.050000X-1.050000X1.050000X-1.050000X-1.050000X0*%
%TD*%
%TA.AperFunction,ComponentPad*%
%ADD36RoundRect,0.250000X1.050000X1.050000X-1.050000X1.050000X-1.050000X-1.050000X1.050000X-1.050000X0*%
%TD*%
%TA.AperFunction,ComponentPad*%
%ADD37RoundRect,0.250000X-1.050000X-1.050000X1.050000X-1.050000X1.050000X1.050000X-1.050000X1.050000X0*%
%TD*%
%TA.AperFunction,ViaPad*%
%ADD38C,0.600000*%
%TD*%
%TA.AperFunction,Conductor*%
%ADD39C,0.200000*%
%TD*%
%TA.AperFunction,Conductor*%
%ADD40C,0.350000*%
%TD*%
%TA.AperFunction,Conductor*%
%ADD41C,1.000000*%
%TD*%
%TA.AperFunction,Conductor*%
%ADD42C,0.500000*%
%TD*%
G04 APERTURE END LIST*
D10*
%TA.AperFunction,EtchedComponent*%
%TO.C,R_GND_TIE1*%
G36*
X178532200Y-92980800D02*
G01*
X177532200Y-92980800D01*
X177532200Y-92480800D01*
X178532200Y-92480800D01*
X178532200Y-92980800D01*
G37*
%TD.AperFunction*%
%TD*%
D11*
%TO.P,REF\u002A\u002A,1*%
%TO.N,N/C*%
X59100000Y-47500000D03*
X59802944Y-45802944D03*
X59802944Y-49197056D03*
X61500000Y-45100000D03*
D12*
X61500000Y-47500000D03*
D11*
X61500000Y-49900000D03*
X63197056Y-45802944D03*
X63197056Y-49197056D03*
X63900000Y-47500000D03*
%TD*%
%TO.P,REF\u002A\u002A,1*%
%TO.N,N/C*%
X59600000Y-145000000D03*
X60302944Y-143302944D03*
X60302944Y-146697056D03*
X62000000Y-142600000D03*
D12*
X62000000Y-145000000D03*
D11*
X62000000Y-147400000D03*
X63697056Y-143302944D03*
X63697056Y-146697056D03*
X64400000Y-145000000D03*
%TD*%
%TO.P,REF\u002A\u002A,1*%
%TO.N,N/C*%
X250100000Y-145000000D03*
X250802944Y-143302944D03*
X250802944Y-146697056D03*
X252500000Y-142600000D03*
D12*
X252500000Y-145000000D03*
D11*
X252500000Y-147400000D03*
X254197056Y-143302944D03*
X254197056Y-146697056D03*
X254900000Y-145000000D03*
%TD*%
%TO.P,REF\u002A\u002A,1*%
%TO.N,N/C*%
X249600000Y-47000000D03*
X250302944Y-45302944D03*
X250302944Y-48697056D03*
X252000000Y-44600000D03*
D12*
X252000000Y-47000000D03*
D11*
X252000000Y-49400000D03*
X253697056Y-45302944D03*
X253697056Y-48697056D03*
X254400000Y-47000000D03*
%TD*%
D13*
%TO.P,TP13,1,1*%
%TO.N,GND_SIG*%
X221000000Y-78000000D03*
%TD*%
%TO.P,TP9,1,1*%
%TO.N,Net-(C15-Pad1)*%
X230834900Y-86126800D03*
%TD*%
%TO.P,TP11,1,1*%
%TO.N,-15V*%
X220522800Y-89001600D03*
%TD*%
D14*
%TO.P,C14,1*%
%TO.N,Net-(C14-Pad1)*%
X208279700Y-90292400D03*
%TO.P,C14,2*%
%TO.N,GND_SIG*%
X208279700Y-88217400D03*
%TD*%
D15*
%TO.P,R9,1*%
%TO.N,/daq_interface/AI_MFC_FLOW*%
X227786900Y-88241600D03*
%TO.P,R9,2*%
%TO.N,Net-(C15-Pad1)*%
X227786900Y-90241600D03*
%TD*%
D16*
%TO.P,J10,15,P15*%
%TO.N,CHASSIS_GND*%
X212470100Y-96508800D03*
%TO.P,J10,14,P14*%
%TO.N,unconnected-(J10-P14-Pad14)*%
X215240100Y-96508800D03*
%TO.P,J10,13,P13*%
%TO.N,unconnected-(J10-P13-Pad13)*%
X218010100Y-96508800D03*
%TO.P,J10,12,P12*%
%TO.N,GND_SIG*%
X220780100Y-96508800D03*
%TO.P,J10,11,P111*%
X223550100Y-96508800D03*
%TO.P,J10,10,P10*%
%TO.N,unconnected-(J10-P10-Pad10)*%
X226320100Y-96508800D03*
%TO.P,J10,9,P9*%
%TO.N,unconnected-(J10-P9-Pad9)*%
X229090100Y-96508800D03*
%TO.P,J10,8,8*%
%TO.N,Net-(C14-Pad1)*%
X211085100Y-93668800D03*
%TO.P,J10,7,7*%
%TO.N,+15V*%
X213855100Y-93668800D03*
%TO.P,J10,6,6*%
%TO.N,-15V*%
X216625100Y-93668800D03*
%TO.P,J10,5,5*%
%TO.N,GND_PWR*%
X219395100Y-93668800D03*
%TO.P,J10,4,4*%
%TO.N,unconnected-(J10-Pad4)*%
X222165100Y-93668800D03*
%TO.P,J10,3,3*%
%TO.N,unconnected-(J10-Pad3)*%
X224935100Y-93668800D03*
%TO.P,J10,2,2*%
%TO.N,Net-(C15-Pad1)*%
X227705100Y-93668800D03*
D17*
%TO.P,J10,1,1*%
%TO.N,unconnected-(J10-Pad1)*%
X230475100Y-93668800D03*
D18*
%TO.P,J10,0*%
%TO.N,N/C*%
X237430100Y-96508800D03*
X204130100Y-96508800D03*
%TD*%
D13*
%TO.P,TP10,1,1*%
%TO.N,Net-(C14-Pad1)*%
X204622100Y-88514400D03*
%TD*%
D15*
%TO.P,R8,1*%
%TO.N,/daq_interface/AO_MFC_SETPOINT*%
X211022900Y-88292400D03*
%TO.P,R8,2*%
%TO.N,Net-(C14-Pad1)*%
X211022900Y-90292400D03*
%TD*%
D19*
%TO.P,C15,1*%
%TO.N,Net-(C15-Pad1)*%
X229920500Y-90089200D03*
%TO.P,C15,2*%
%TO.N,GND_SIG*%
X231995500Y-90089200D03*
%TD*%
D13*
%TO.P,TP12,1,1*%
%TO.N,+15V*%
X214731600Y-89103200D03*
%TD*%
D20*
%TO.P,K1,5*%
%TO.N,+24V*%
X134531200Y-77344000D03*
D21*
%TO.P,K1,3*%
%TO.N,GND_PWR*%
X146731200Y-89344000D03*
D20*
%TO.P,K1,2*%
%TO.N,/relay_board/P0.1*%
X134531200Y-89344000D03*
D21*
%TO.P,K1,1*%
%TO.N,Net-(J6-Pin_1)*%
X132581200Y-83294000D03*
%TD*%
D22*
%TO.P,R10,1*%
%TO.N,/vacuum_gauge_interface/AI_PRESSURE_FILT*%
X197630800Y-62788800D03*
%TO.P,R10,2*%
%TO.N,/vacuum_gauge_interface/AI_PRESSURE*%
X195630800Y-62788800D03*
%TD*%
%TO.P,R4,1*%
%TO.N,/daq_interface/DO_N2_DRV*%
X225666600Y-127833600D03*
%TO.P,R4,2*%
%TO.N,/daq_interface/DO_N2*%
X223666600Y-127833600D03*
%TD*%
D21*
%TO.P,F2,1*%
%TO.N,GND_PWR*%
X108131200Y-74894000D03*
%TO.P,F2,2*%
%TO.N,+12V*%
X85631200Y-74894000D03*
%TD*%
D23*
%TO.P,D1,1,K*%
%TO.N,+24V*%
X127186200Y-77948000D03*
D24*
%TO.P,D1,2,A*%
%TO.N,/relay_board/P0.1*%
X127186200Y-88108000D03*
%TD*%
D13*
%TO.P,TP15,1,1*%
%TO.N,+24V*%
X184861200Y-57658000D03*
%TD*%
D25*
%TO.P,C20,1*%
%TO.N,+24V*%
X172944700Y-56112500D03*
%TO.P,C20,2*%
%TO.N,GND_PWR*%
X172944700Y-58187500D03*
%TD*%
D26*
%TO.P,R_GND_TIE1,1*%
%TO.N,GND_PWR*%
X177532200Y-92730800D03*
%TO.P,R_GND_TIE1,2*%
%TO.N,GND_SIG*%
X178532200Y-92730800D03*
%TD*%
D19*
%TO.P,C5,1*%
%TO.N,+5V*%
X81380112Y-103000000D03*
%TO.P,C5,2*%
%TO.N,GND_SIG*%
X83455112Y-103000000D03*
%TD*%
%TO.P,C11,1*%
%TO.N,/daq_interface/AO_MFC_SP_FILT*%
X228578200Y-132862800D03*
%TO.P,C11,2*%
%TO.N,GND_SIG*%
X230653200Y-132862800D03*
%TD*%
D22*
%TO.P,R5,1*%
%TO.N,/daq_interface/AO_MFC_SP_FILT*%
X225717400Y-132862800D03*
%TO.P,R5,2*%
%TO.N,/daq_interface/AO_MFC_SETPOINT*%
X223717400Y-132862800D03*
%TD*%
D23*
%TO.P,D3,1,K*%
%TO.N,+24V*%
X127181400Y-97963200D03*
D24*
%TO.P,D3,2,A*%
%TO.N,/relay_board/P0.2*%
X127181400Y-108123200D03*
%TD*%
D23*
%TO.P,D4,1,K*%
%TO.N,+24V*%
X127186200Y-118435600D03*
D24*
%TO.P,D4,2,A*%
%TO.N,/relay_board/P0.3*%
X127186200Y-128595600D03*
%TD*%
D27*
%TO.P,C2,1*%
%TO.N,GND_PWR*%
X67075000Y-56000000D03*
%TO.P,C2,2*%
%TO.N,+24V*%
X65000000Y-56000000D03*
%TD*%
D28*
%TO.P,C21,1*%
%TO.N,+24V*%
X171639221Y-64312800D03*
D16*
%TO.P,C21,2*%
%TO.N,GND_PWR*%
X174139221Y-64312800D03*
%TD*%
D29*
%TO.P,J9,1,Pin_1*%
%TO.N,/daq_interface/DO_FORELINE*%
X220675200Y-122631200D03*
D30*
%TO.P,J9,2,Pin_2*%
%TO.N,/daq_interface/DO_PRECURSOR*%
X220675200Y-125171200D03*
%TO.P,J9,3,Pin_3*%
%TO.N,/daq_interface/DO_N2*%
X220675200Y-127711200D03*
%TO.P,J9,4,Pin_4*%
%TO.N,GND_SIG*%
X220675200Y-130251200D03*
%TO.P,J9,5,Pin_5*%
%TO.N,/daq_interface/AO_MFC_SETPOINT*%
X220675200Y-132791200D03*
%TO.P,J9,6,Pin_6*%
%TO.N,/vacuum_gauge_interface/AI_PRESSURE*%
X220675200Y-135331200D03*
%TO.P,J9,7,Pin_7*%
%TO.N,/daq_interface/AI_MFC_FLOW*%
X220675200Y-137871200D03*
%TO.P,J9,8,Pin_8*%
%TO.N,GND_SIG*%
X220675200Y-140411200D03*
%TD*%
D19*
%TO.P,C18,1*%
%TO.N,Net-(C18-Pad1)*%
X171082987Y-138125200D03*
%TO.P,C18,2*%
%TO.N,+15V*%
X173157987Y-138125200D03*
%TD*%
D31*
%TO.P,J2,1,Pin_1*%
%TO.N,+12V*%
X66000000Y-86455000D03*
D32*
%TO.P,J2,2,Pin_2*%
%TO.N,GND_PWR*%
X66000000Y-91535000D03*
%TD*%
D19*
%TO.P,C17,1*%
%TO.N,Net-(C16-Pad2)*%
X170575400Y-117195600D03*
%TO.P,C17,2*%
%TO.N,-15V*%
X172650400Y-117195600D03*
%TD*%
D33*
%TO.P,R6,1*%
%TO.N,/vacuum_gauge_interface/AI_PRESSURE_FILT*%
X215453000Y-135402800D03*
%TO.P,R6,2*%
%TO.N,/vacuum_gauge_interface/AI_PRESSURE*%
X217453000Y-135402800D03*
%TD*%
D13*
%TO.P,TP8,1,1*%
%TO.N,/daq_interface/AI_MFC_FLOW*%
X215421000Y-139720800D03*
%TD*%
%TO.P,TP5,1,1*%
%TO.N,GND_SIG*%
X216792600Y-130221200D03*
%TD*%
D19*
%TO.P,C9,1*%
%TO.N,-15V*%
X82925000Y-117500000D03*
%TO.P,C9,2*%
%TO.N,GND_SIG*%
X85000000Y-117500000D03*
%TD*%
D34*
%TO.P,C19,1*%
%TO.N,GND_PWR*%
X173075600Y-132689600D03*
D16*
%TO.P,C19,2*%
%TO.N,Net-(C18-Pad1)*%
X171075600Y-132689600D03*
%TD*%
D35*
%TO.P,J7,1,Pin_1*%
%TO.N,Net-(J7-Pin_1)*%
X160000000Y-106080000D03*
D32*
%TO.P,J7,2,Pin_2*%
%TO.N,GND_PWR*%
X160000000Y-101000000D03*
%TD*%
D31*
%TO.P,J3,1,Pin_1*%
%TO.N,+5V*%
X66000000Y-100000000D03*
D32*
%TO.P,J3,2,Pin_2*%
%TO.N,GND_SIG*%
X66000000Y-105080000D03*
%TD*%
D33*
%TO.P,R3,1*%
%TO.N,/daq_interface/DO_PRECURSOR_DRV*%
X215471800Y-125192000D03*
%TO.P,R3,2*%
%TO.N,/daq_interface/DO_PRECURSOR*%
X217471800Y-125192000D03*
%TD*%
D31*
%TO.P,J1,1,Pin_1*%
%TO.N,+24V*%
X65327500Y-62955000D03*
D32*
%TO.P,J1,2,Pin_2*%
%TO.N,GND_PWR*%
X65327500Y-68035000D03*
%TD*%
D19*
%TO.P,C13,1*%
%TO.N,/daq_interface/AI_MFC_FLOW_FILT*%
X228984600Y-141143200D03*
%TO.P,C13,2*%
%TO.N,GND_SIG*%
X231059600Y-141143200D03*
%TD*%
%TO.P,C22,1*%
%TO.N,/vacuum_gauge_interface/AI_PRESSURE_FILT*%
X200964800Y-62788800D03*
%TO.P,C22,2*%
%TO.N,GND_SIG*%
X203039800Y-62788800D03*
%TD*%
D28*
%TO.P,C6,1*%
%TO.N,+5V*%
X75000000Y-103000000D03*
D16*
%TO.P,C6,2*%
%TO.N,GND_SIG*%
X77000000Y-103000000D03*
%TD*%
D21*
%TO.P,K4,1*%
%TO.N,Net-(J8-Pin_1)*%
X132731200Y-123344000D03*
D20*
%TO.P,K4,2*%
%TO.N,/relay_board/P0.3*%
X134681200Y-129394000D03*
D21*
%TO.P,K4,3*%
%TO.N,GND_PWR*%
X146881200Y-129394000D03*
D20*
%TO.P,K4,5*%
%TO.N,+24V*%
X134681200Y-117394000D03*
%TD*%
D34*
%TO.P,C16,1*%
%TO.N,GND_PWR*%
X172720000Y-112572800D03*
D16*
%TO.P,C16,2*%
%TO.N,Net-(C16-Pad2)*%
X170720000Y-112572800D03*
%TD*%
D29*
%TO.P,J11,1,Pin_1*%
%TO.N,+24V*%
X189862000Y-57743200D03*
D30*
%TO.P,J11,2,Pin_2*%
%TO.N,GND_PWR*%
X189862000Y-60283200D03*
%TO.P,J11,3,Pin_3*%
%TO.N,/vacuum_gauge_interface/AI_PRESSURE*%
X189862000Y-62823200D03*
%TO.P,J11,4,Pin_4*%
%TO.N,GND_SIG*%
X189862000Y-65363200D03*
%TO.P,J11,5,Pin_5*%
%TO.N,unconnected-(J11-Pin_5-Pad5)*%
X189862000Y-67903200D03*
%TO.P,J11,6,Pin_6*%
%TO.N,unconnected-(J11-Pin_6-Pad6)*%
X189862000Y-70443200D03*
%TO.P,J11,7,Pin_7*%
%TO.N,unconnected-(J11-Pin_7-Pad7)*%
X189862000Y-72983200D03*
%TO.P,J11,8,Pin_8*%
%TO.N,unconnected-(J11-Pin_8-Pad8)*%
X189862000Y-75523200D03*
%TD*%
D23*
%TO.P,D2,1,K*%
%TO.N,+12V*%
X125686200Y-56936500D03*
D24*
%TO.P,D2,2,A*%
%TO.N,/relay_board/P0.0*%
X125686200Y-67096500D03*
%TD*%
D22*
%TO.P,R7,1*%
%TO.N,/daq_interface/AI_MFC_FLOW_FILT*%
X226311000Y-141143200D03*
%TO.P,R7,2*%
%TO.N,/daq_interface/AI_MFC_FLOW*%
X224311000Y-141143200D03*
%TD*%
D21*
%TO.P,K3,1*%
%TO.N,Net-(J7-Pin_1)*%
X132231200Y-103344000D03*
%TO.P,K3,3*%
%TO.N,GND_PWR*%
X146381200Y-109394000D03*
D20*
%TO.P,K3,5*%
%TO.N,+24V*%
X134181200Y-97394000D03*
%TO.P,K3,P0.2*%
%TO.N,/relay_board/P0.2*%
X134181200Y-109394000D03*
%TD*%
D34*
%TO.P,C10,1*%
%TO.N,GND_SIG*%
X84925000Y-124500000D03*
D16*
%TO.P,C10,2*%
%TO.N,-15V*%
X82925000Y-124500000D03*
%TD*%
D13*
%TO.P,TP3,1,1*%
%TO.N,/daq_interface/DO_PRECURSOR*%
X228375000Y-125039600D03*
%TD*%
D36*
%TO.P,J5,1,Pin_1*%
%TO.N,Net-(J5-Pin_1)*%
X161500000Y-61500000D03*
D32*
%TO.P,J5,2,Pin_2*%
%TO.N,GND_PWR*%
X156420000Y-61500000D03*
%TD*%
D34*
%TO.P,C1,1*%
%TO.N,+24V*%
X74306200Y-53894000D03*
D16*
%TO.P,C1,2*%
%TO.N,GND_PWR*%
X71806200Y-53894000D03*
%TD*%
D13*
%TO.P,TP7,1,1*%
%TO.N,/vacuum_gauge_interface/AI_PRESSURE*%
X224666600Y-137028400D03*
%TD*%
%TO.P,TP16,1,1*%
%TO.N,GND_PWR*%
X184810400Y-62890400D03*
%TD*%
D27*
%TO.P,C3,1*%
%TO.N,GND_PWR*%
X65881200Y-79221500D03*
%TO.P,C3,2*%
%TO.N,+12V*%
X63806200Y-79221500D03*
%TD*%
D13*
%TO.P,TP1,1,1*%
%TO.N,/daq_interface/DO_FORELINE*%
X216487800Y-122194800D03*
%TD*%
D21*
%TO.P,K2,1*%
%TO.N,Net-(J5-Pin_1)*%
X132231200Y-62344000D03*
D20*
%TO.P,K2,2*%
%TO.N,/relay_board/P0.0*%
X134181200Y-68394000D03*
D21*
%TO.P,K2,3*%
%TO.N,GND_PWR*%
X146381200Y-68394000D03*
D20*
%TO.P,K2,5*%
%TO.N,+12V*%
X134181200Y-56394000D03*
%TD*%
D21*
%TO.P,F1,1*%
%TO.N,GND_PWR*%
X104881200Y-57394000D03*
%TO.P,F1,2*%
%TO.N,+24V*%
X82381200Y-57394000D03*
%TD*%
D22*
%TO.P,R2,1*%
%TO.N,/daq_interface/DO_FORELINE_DRV*%
X225666600Y-122448800D03*
%TO.P,R2,2*%
%TO.N,/daq_interface/DO_FORELINE*%
X223666600Y-122448800D03*
%TD*%
D34*
%TO.P,C4,1*%
%TO.N,+12V*%
X73699800Y-77135200D03*
D16*
%TO.P,C4,2*%
%TO.N,GND_PWR*%
X71199800Y-77135200D03*
%TD*%
D13*
%TO.P,TP18,1,1*%
%TO.N,GND_SIG*%
X184759600Y-73304400D03*
%TD*%
%TO.P,TP17,1,1*%
%TO.N,/vacuum_gauge_interface/AI_PRESSURE*%
X184759600Y-68122800D03*
%TD*%
D27*
%TO.P,C12,1*%
%TO.N,/vacuum_gauge_interface/AI_PRESSURE_FILT*%
X213236600Y-135402800D03*
%TO.P,C12,2*%
%TO.N,GND_SIG*%
X211161600Y-135402800D03*
%TD*%
D35*
%TO.P,J6,1,Pin_1*%
%TO.N,Net-(J6-Pin_1)*%
X159500000Y-84080000D03*
D32*
%TO.P,J6,2,Pin_2*%
%TO.N,GND_PWR*%
X159500000Y-79000000D03*
%TD*%
D37*
%TO.P,J8,1,Pin_1*%
%TO.N,Net-(J8-Pin_1)*%
X157686200Y-123516500D03*
D32*
%TO.P,J8,2,Pin_2*%
%TO.N,GND_PWR*%
X162766200Y-123516500D03*
%TD*%
D13*
%TO.P,TP4,1,1*%
%TO.N,/daq_interface/DO_N2*%
X210239400Y-125852400D03*
%TD*%
%TO.P,TP6,1,1*%
%TO.N,/daq_interface/AO_MFC_SETPOINT*%
X206632600Y-132710400D03*
%TD*%
D28*
%TO.P,C8,1*%
%TO.N,+15V*%
X75500000Y-125500000D03*
D16*
%TO.P,C8,2*%
%TO.N,GND_SIG*%
X77500000Y-125500000D03*
%TD*%
D31*
%TO.P,J4,1,Pin_1*%
%TO.N,+15V*%
X66500000Y-116420000D03*
D32*
%TO.P,J4,2,Pin_2*%
%TO.N,GND_SIG*%
X66500000Y-121500000D03*
%TO.P,J4,3,Pin_3*%
%TO.N,-15V*%
X66500000Y-126580000D03*
%TD*%
D19*
%TO.P,C7,1*%
%TO.N,+15V*%
X75425000Y-117000000D03*
%TO.P,C7,2*%
%TO.N,GND_SIG*%
X77500000Y-117000000D03*
%TD*%
D38*
%TO.N,-15V*%
X68500000Y-128000000D03*
X171500000Y-120500000D03*
X82925000Y-117500000D03*
%TO.N,GND_SIG*%
X233000000Y-90000000D03*
%TO.N,GND_PWR*%
X224434400Y-85242400D03*
%TO.N,GND_SIG*%
X209500000Y-88500000D03*
%TO.N,GND_PWR*%
X224434400Y-85242400D03*
%TO.N,CHASSIS_GND*%
X212496400Y-112014000D03*
%TO.N,-15V*%
X82925000Y-117500000D03*
%TO.N,+15V*%
X75425000Y-117000000D03*
%TO.N,GND_SIG*%
X86462500Y-117500000D03*
X178582200Y-92730800D03*
%TO.N,/vacuum_gauge_interface/AI_PRESSURE_FILT*%
X200990035Y-63990035D03*
X213236600Y-135402800D03*
%TO.N,GND_SIG*%
X233000000Y-141000000D03*
X230653200Y-132862800D03*
X209500000Y-135500000D03*
%TO.N,/vacuum_gauge_interface/AI_PRESSURE*%
X182000000Y-68000000D03*
X217453000Y-135402800D03*
%TO.N,GND_SIG*%
X85073912Y-103106000D03*
X178582200Y-92730800D03*
%TO.N,GND_PWR*%
X195000000Y-60000000D03*
%TO.N,GND_SIG*%
X85038800Y-118778500D03*
%TO.N,GND_PWR*%
X194005200Y-60299600D03*
%TO.N,GND_SIG*%
X220500000Y-98500000D03*
%TO.N,+15V*%
X89500000Y-135500000D03*
%TD*%
D39*
%TO.N,-15V*%
X67920000Y-128000000D02*
X68500000Y-128000000D01*
X67800000Y-127880000D02*
X67920000Y-128000000D01*
%TO.N,+15V*%
X89500000Y-135500000D02*
X96341600Y-142341600D01*
X96341600Y-142341600D02*
X173177200Y-142341600D01*
D40*
%TO.N,-15V*%
X171502400Y-120497600D02*
X171500000Y-120500000D01*
X172567600Y-120497600D02*
X171502400Y-120497600D01*
D39*
X66500000Y-126580000D02*
X67800000Y-127880000D01*
%TO.N,+15V*%
X66500000Y-116420000D02*
X74845000Y-116420000D01*
X74845000Y-116420000D02*
X75425000Y-117000000D01*
D41*
%TO.N,GND_PWR*%
X65327500Y-68035000D02*
X73509382Y-68035000D01*
X81899382Y-59645000D02*
X102630200Y-59645000D01*
X102630200Y-59645000D02*
X104881200Y-57394000D01*
X73509382Y-68035000D02*
X81899382Y-59645000D01*
X66000000Y-91535000D02*
X91490200Y-91535000D01*
X91490200Y-91535000D02*
X108131200Y-74894000D01*
%TO.N,+24V*%
X73384200Y-58440800D02*
X66715800Y-58440800D01*
X66715800Y-58440800D02*
X65000000Y-56725000D01*
X65000000Y-56725000D02*
X65000000Y-56000000D01*
%TO.N,GND_PWR*%
X67075000Y-56000000D02*
X69700200Y-56000000D01*
X69700200Y-56000000D02*
X71806200Y-53894000D01*
D39*
%TO.N,+24V*%
X65327500Y-62955000D02*
X65327500Y-56327500D01*
X65327500Y-56327500D02*
X65000000Y-56000000D01*
%TO.N,+5V*%
X66000000Y-100000000D02*
X66500000Y-100000000D01*
X66500000Y-100000000D02*
X69500000Y-103000000D01*
X69500000Y-103000000D02*
X75000000Y-103000000D01*
%TO.N,GND_SIG*%
X66000000Y-105080000D02*
X68000000Y-107080000D01*
X68000000Y-107080000D02*
X72920000Y-107080000D01*
D41*
%TO.N,GND_PWR*%
X146381200Y-109394000D02*
X160208556Y-109394000D01*
X160208556Y-109394000D02*
X162051000Y-107551556D01*
X162051000Y-107551556D02*
X162051000Y-103051000D01*
X162051000Y-103051000D02*
X160000000Y-101000000D01*
D39*
%TO.N,GND_SIG*%
X208279700Y-88217400D02*
X209217400Y-88217400D01*
X209217400Y-88217400D02*
X209500000Y-88500000D01*
%TO.N,/daq_interface/AI_MFC_FLOW*%
X227786900Y-86634800D02*
X227786900Y-88241600D01*
X240792000Y-88158800D02*
X240639300Y-88158800D01*
X243839700Y-88158800D02*
X240792000Y-88158800D01*
X236504000Y-83870800D02*
X240792000Y-88158800D01*
X227939300Y-84404350D02*
X228472850Y-83870800D01*
X231571950Y-83870800D02*
X228472850Y-83870800D01*
X227939300Y-86482400D02*
X227786900Y-86634800D01*
X231546400Y-83870800D02*
X236504000Y-83870800D01*
X227939300Y-86482400D02*
X227939300Y-84404350D01*
%TO.N,/daq_interface/AO_MFC_SETPOINT*%
X209212900Y-86482400D02*
X206450900Y-86482400D01*
X211022900Y-88292400D02*
X209212900Y-86482400D01*
X206450900Y-86482400D02*
X204672900Y-84704400D01*
X201523300Y-84704400D02*
X201523300Y-90068100D01*
X201523300Y-90068100D02*
X207365600Y-95910400D01*
X204672900Y-84704400D02*
X201523300Y-84704400D01*
%TO.N,CHASSIS_GND*%
X212470100Y-96508800D02*
X212496400Y-96535100D01*
X212496400Y-96535100D02*
X212496400Y-112014000D01*
%TO.N,/daq_interface/AI_MFC_FLOW*%
X243687300Y-88311200D02*
X243839700Y-88158800D01*
%TO.N,-15V*%
X216625100Y-93668800D02*
X220522800Y-89771100D01*
D40*
X217322400Y-81584800D02*
X217322400Y-90525600D01*
X216625100Y-91426100D02*
X216625100Y-93668800D01*
X217322400Y-90525600D02*
X217424000Y-90627200D01*
%TO.N,+15V*%
X213855100Y-93668800D02*
X213855100Y-93586500D01*
X210972400Y-86868000D02*
X212496400Y-86868000D01*
X214731600Y-92710000D02*
X214731600Y-89103200D01*
X207873600Y-83769200D02*
X210972400Y-86868000D01*
X212496400Y-86868000D02*
X212547200Y-86918800D01*
X212547200Y-92405200D02*
X212591500Y-92405200D01*
X212547200Y-86918800D02*
X212547200Y-92405200D01*
X212591500Y-92405200D02*
X213855100Y-93668800D01*
X213855100Y-93586500D02*
X214731600Y-92710000D01*
D39*
%TO.N,-15V*%
X220522800Y-89771100D02*
X220522800Y-89001600D01*
D41*
%TO.N,GND_PWR*%
X219395100Y-93668800D02*
X224434400Y-88629500D01*
X224434400Y-88629500D02*
X224434400Y-85242400D01*
D39*
%TO.N,Net-(C14-Pad1)*%
X204622100Y-88514400D02*
X204622100Y-92121200D01*
X206169700Y-93668800D02*
X211085100Y-93668800D01*
X204622100Y-92121200D02*
X206169700Y-93668800D01*
X211022900Y-90292400D02*
X208279700Y-90292400D01*
%TO.N,Net-(C15-Pad1)*%
X227786900Y-90241600D02*
X229768100Y-90241600D01*
X233832100Y-89124000D02*
X230834900Y-86126800D01*
X229768100Y-90241600D02*
X229920500Y-90089200D01*
X227705100Y-93668800D02*
X229201900Y-92172000D01*
X233832100Y-92172000D02*
X233832100Y-89124000D01*
X227705100Y-93668800D02*
X227661700Y-93668800D01*
X229201900Y-92172000D02*
X233832100Y-92172000D01*
X227661700Y-93668800D02*
X227634500Y-93696000D01*
D40*
%TO.N,-15V*%
X217424000Y-90627200D02*
X216625100Y-91426100D01*
D39*
%TO.N,Net-(C14-Pad1)*%
X211022900Y-90977100D02*
X211085100Y-91039300D01*
%TO.N,Net-(C15-Pad1)*%
X229920500Y-91079500D02*
X229920500Y-90089200D01*
X229201900Y-92172000D02*
X229201900Y-91798100D01*
%TO.N,Net-(C14-Pad1)*%
X211022900Y-90292400D02*
X211022900Y-90977100D01*
%TO.N,Net-(C15-Pad1)*%
X229201900Y-91798100D02*
X229920500Y-91079500D01*
%TO.N,Net-(C14-Pad1)*%
X211085100Y-91039300D02*
X211085100Y-93668800D01*
%TO.N,GND_SIG*%
X232910800Y-90089200D02*
X233000000Y-90000000D01*
X231995500Y-90089200D02*
X232910800Y-90089200D01*
%TO.N,/daq_interface/AO_MFC_SETPOINT*%
X207365600Y-95910400D02*
X207365600Y-128494300D01*
D40*
%TO.N,-15V*%
X195326000Y-81584800D02*
X217322400Y-81584800D01*
%TO.N,+15V*%
X198221600Y-83769200D02*
X207873600Y-83769200D01*
X197866000Y-84124800D02*
X198221600Y-83769200D01*
D39*
%TO.N,Net-(J7-Pin_1)*%
X160000000Y-106080000D02*
X160000000Y-106000000D01*
X159920000Y-106080000D02*
X134967200Y-106080000D01*
X134967200Y-106080000D02*
X132231200Y-103344000D01*
X160000000Y-106000000D02*
X159920000Y-106080000D01*
D41*
%TO.N,GND_PWR*%
X160000000Y-101000000D02*
X168269200Y-92730800D01*
X168269200Y-92730800D02*
X177532200Y-92730800D01*
D39*
%TO.N,Net-(J6-Pin_1)*%
X159500000Y-84080000D02*
X152385000Y-91195000D01*
X152385000Y-91195000D02*
X140482200Y-91195000D01*
X140482200Y-91195000D02*
X132581200Y-83294000D01*
D41*
%TO.N,GND_PWR*%
X146731200Y-89344000D02*
X149156000Y-89344000D01*
X149156000Y-89344000D02*
X159500000Y-79000000D01*
X156420000Y-61500000D02*
X149526000Y-68394000D01*
X149526000Y-68394000D02*
X146381200Y-68394000D01*
D39*
%TO.N,Net-(J5-Pin_1)*%
X132231200Y-62344000D02*
X137075200Y-57500000D01*
X157500000Y-57500000D02*
X161500000Y-61500000D01*
X137075200Y-57500000D02*
X157500000Y-57500000D01*
%TO.N,GND_SIG*%
X66500000Y-121500000D02*
X64700000Y-119700000D01*
X64700000Y-119700000D02*
X64700000Y-106380000D01*
X64700000Y-106380000D02*
X66000000Y-105080000D01*
%TO.N,-15V*%
X82399000Y-118026000D02*
X82925000Y-117500000D01*
%TO.N,GND_SIG*%
X85000000Y-117500000D02*
X86462500Y-117500000D01*
%TO.N,Net-(C18-Pad1)*%
X171082987Y-138125200D02*
X171082987Y-132696987D01*
X171082987Y-132696987D02*
X171075600Y-132689600D01*
%TO.N,-15V*%
X82925000Y-117500000D02*
X82925000Y-124500000D01*
%TO.N,GND_SIG*%
X85037500Y-108237700D02*
X85037500Y-117000000D01*
%TO.N,+15V*%
X66500000Y-116420000D02*
X66946000Y-115974000D01*
%TO.N,+12V*%
X66000000Y-86455000D02*
X66000000Y-83263800D01*
X66000000Y-83263800D02*
X64951400Y-82215200D01*
D41*
%TO.N,+24V*%
X82381200Y-57394000D02*
X85332200Y-54443000D01*
%TO.N,GND_PWR*%
X174139221Y-64312800D02*
X183388000Y-64312800D01*
X183388000Y-64312800D02*
X184810400Y-62890400D01*
D39*
%TO.N,Net-(C16-Pad2)*%
X170720000Y-112572800D02*
X170720000Y-117051000D01*
X170720000Y-117051000D02*
X170575400Y-117195600D01*
%TO.N,/vacuum_gauge_interface/AI_PRESSURE_FILT*%
X200964800Y-63964800D02*
X200990035Y-63990035D01*
X200964800Y-62788800D02*
X200964800Y-63964800D01*
%TO.N,GND_SIG*%
X232856800Y-141143200D02*
X233000000Y-141000000D01*
X231059600Y-141143200D02*
X232856800Y-141143200D01*
X220675200Y-130251200D02*
X228041600Y-130251200D01*
X228041600Y-130251200D02*
X230653200Y-132862800D01*
X209597200Y-135402800D02*
X209500000Y-135500000D01*
X211161600Y-135402800D02*
X209597200Y-135402800D01*
%TO.N,/vacuum_gauge_interface/AI_PRESSURE*%
X182122800Y-68122800D02*
X182000000Y-68000000D01*
X184759600Y-68122800D02*
X182122800Y-68122800D01*
%TO.N,GND_SIG*%
X84967912Y-103000000D02*
X85073912Y-103106000D01*
X83455112Y-103000000D02*
X84967912Y-103000000D01*
D41*
%TO.N,GND_PWR*%
X194005200Y-60299600D02*
X194700400Y-60299600D01*
X194005200Y-60299600D02*
X193988800Y-60283200D01*
D39*
%TO.N,GND_SIG*%
X85000000Y-118739700D02*
X85038800Y-118778500D01*
X85000000Y-117500000D02*
X85000000Y-118739700D01*
X77500000Y-117000000D02*
X78721500Y-115778500D01*
X78721500Y-115778500D02*
X83278500Y-115778500D01*
X83278500Y-115778500D02*
X85000000Y-117500000D01*
X77000000Y-103000000D02*
X78106000Y-104106000D01*
X82349112Y-104106000D02*
X83455112Y-103000000D01*
X78106000Y-104106000D02*
X82349112Y-104106000D01*
X77000000Y-103000000D02*
X72920000Y-107080000D01*
D41*
%TO.N,GND_PWR*%
X172944700Y-58187500D02*
X174139221Y-59382021D01*
X174139221Y-59382021D02*
X174139221Y-64312800D01*
D39*
%TO.N,+24V*%
X184861200Y-57658000D02*
X189776800Y-57658000D01*
X189776800Y-57658000D02*
X189862000Y-57743200D01*
D41*
%TO.N,GND_PWR*%
X184810400Y-62890400D02*
X187254800Y-62890400D01*
X187254800Y-62890400D02*
X189862000Y-60283200D01*
D39*
%TO.N,/vacuum_gauge_interface/AI_PRESSURE*%
X184759600Y-68122800D02*
X189862000Y-63020400D01*
X189862000Y-63020400D02*
X189862000Y-62823200D01*
%TO.N,GND_SIG*%
X203039800Y-62788800D02*
X200465400Y-65363200D01*
X200465400Y-65363200D02*
X189862000Y-65363200D01*
X184759600Y-73304400D02*
X178532200Y-79531800D01*
X178532200Y-79531800D02*
X178532200Y-92730800D01*
X77500000Y-125500000D02*
X77778500Y-125778500D01*
X77778500Y-125778500D02*
X83646500Y-125778500D01*
X83646500Y-125778500D02*
X84925000Y-124500000D01*
D41*
%TO.N,GND_PWR*%
X65881200Y-79221500D02*
X65881200Y-79118800D01*
X67864800Y-77135200D02*
X71199800Y-77135200D01*
X65881200Y-79118800D02*
X67864800Y-77135200D01*
X189862000Y-60283200D02*
X193988800Y-60283200D01*
X146881200Y-129394000D02*
X156888700Y-129394000D01*
X156888700Y-129394000D02*
X162766200Y-123516500D01*
D39*
%TO.N,GND_SIG*%
X220645200Y-130221200D02*
X220675200Y-130251200D01*
X216792600Y-130221200D02*
X220645200Y-130221200D01*
%TO.N,/daq_interface/AO_MFC_SP_FILT*%
X225717400Y-132862800D02*
X228578200Y-132862800D01*
%TO.N,/daq_interface/AI_MFC_FLOW_FILT*%
X226311000Y-141143200D02*
X228984600Y-141143200D01*
D40*
%TO.N,-15V*%
X172567600Y-120497600D02*
X172650400Y-120414800D01*
X172650400Y-120414800D02*
X172650400Y-117195600D01*
%TO.N,+15V*%
X173177200Y-141986000D02*
X173157987Y-141966787D01*
D39*
X173157987Y-142322387D02*
X173177200Y-142341600D01*
D42*
X75500000Y-125500000D02*
X75500000Y-117075000D01*
D39*
X75500000Y-117075000D02*
X75425000Y-117000000D01*
X75500000Y-125367500D02*
X75500000Y-125500000D01*
D40*
X173177200Y-142341600D02*
X173177200Y-141986000D01*
X173157987Y-141966787D02*
X173157987Y-138125200D01*
D39*
%TO.N,/vacuum_gauge_interface/AI_PRESSURE_FILT*%
X213236600Y-135402800D02*
X215453000Y-135402800D01*
X197630800Y-62788800D02*
X200964800Y-62788800D01*
%TO.N,/relay_board/P0.1*%
X133295200Y-88108000D02*
X134531200Y-89344000D01*
X127186200Y-88108000D02*
X133295200Y-88108000D01*
D41*
%TO.N,+24V*%
X127186200Y-118435600D02*
X133639600Y-118435600D01*
X189941200Y-52984400D02*
X189862000Y-53063600D01*
X127186200Y-77948000D02*
X133927200Y-77948000D01*
X131216400Y-50393600D02*
X168910000Y-50393600D01*
X172720000Y-50393600D02*
X187350400Y-50393600D01*
X168910000Y-61583579D02*
X171639221Y-64312800D01*
X129184400Y-52425600D02*
X131216400Y-50393600D01*
X134989331Y-58345000D02*
X131890701Y-58345000D01*
X79213500Y-60561700D02*
X82381200Y-57394000D01*
X168910000Y-50393600D02*
X168910000Y-61583579D01*
X168910000Y-50393600D02*
X172720000Y-50393600D01*
X123885200Y-94667000D02*
X127181400Y-97963200D01*
X74306200Y-55654400D02*
X79213500Y-60561700D01*
X134989331Y-54443000D02*
X136132200Y-55585869D01*
X129184400Y-54443000D02*
X129184400Y-52425600D01*
X123885200Y-74647000D02*
X127186200Y-77948000D01*
X187350400Y-50393600D02*
X189941200Y-52984400D01*
X123885200Y-94667000D02*
X123885200Y-115134600D01*
X129184400Y-54443000D02*
X134989331Y-54443000D01*
X136132200Y-57202131D02*
X134989331Y-58345000D01*
X123885200Y-115134600D02*
X127186200Y-118435600D01*
X73384200Y-58440800D02*
X77359300Y-62415900D01*
X133612000Y-97963200D02*
X134181200Y-97394000D01*
X136132200Y-55585869D02*
X136132200Y-57202131D01*
D39*
X74306200Y-53927200D02*
X74552600Y-54173600D01*
D41*
X123885200Y-66350501D02*
X123885200Y-74647000D01*
X189862000Y-53063600D02*
X189862000Y-57743200D01*
D39*
X74552600Y-54173600D02*
X74816814Y-54173600D01*
D41*
X85332200Y-54443000D02*
X129184400Y-54443000D01*
X123885200Y-74647000D02*
X123885200Y-94667000D01*
X74306200Y-53894000D02*
X74306200Y-55654400D01*
X133639600Y-118435600D02*
X134681200Y-117394000D01*
X131890701Y-58345000D02*
X123885200Y-66350501D01*
D39*
X74306200Y-53894000D02*
X74306200Y-53927200D01*
D41*
X133927200Y-77948000D02*
X134531200Y-77344000D01*
X172944700Y-50618300D02*
X172944700Y-56112500D01*
X77359300Y-62415900D02*
X79213500Y-60561700D01*
X127181400Y-97963200D02*
X133612000Y-97963200D01*
X172720000Y-50393600D02*
X172944700Y-50618300D01*
%TO.N,+12V*%
X133638700Y-56936500D02*
X134181200Y-56394000D01*
X73699800Y-77135200D02*
X75213000Y-77135200D01*
X64951400Y-82215200D02*
X78285500Y-82239700D01*
X75213000Y-77135200D02*
X79301500Y-81223700D01*
D39*
X107318600Y-65248000D02*
X116950900Y-56936500D01*
X82501900Y-66975200D02*
X82501900Y-65274300D01*
X82501900Y-65274300D02*
X107318600Y-65248000D01*
D41*
X82501900Y-78023300D02*
X85631200Y-74894000D01*
D39*
X82501900Y-65274300D02*
X82579000Y-65197200D01*
X82501900Y-78023300D02*
X82501900Y-66975200D01*
D41*
X78285500Y-82239700D02*
X79301500Y-81223700D01*
X63806200Y-79221500D02*
X64951400Y-82215200D01*
D39*
X116950900Y-56936500D02*
X125686200Y-56936500D01*
X125686200Y-56936500D02*
X133638700Y-56936500D01*
D41*
X79301500Y-81223700D02*
X82501900Y-78023300D01*
D39*
%TO.N,/relay_board/P0.0*%
X125686200Y-67096500D02*
X132883700Y-67096500D01*
X132883700Y-67096500D02*
X134181200Y-68394000D01*
%TO.N,/relay_board/P0.2*%
X127181400Y-108123200D02*
X132910400Y-108123200D01*
X132910400Y-108123200D02*
X134181200Y-109394000D01*
%TO.N,/relay_board/P0.3*%
X127186200Y-128595600D02*
X133882800Y-128595600D01*
X133882800Y-128595600D02*
X134681200Y-129394000D01*
%TO.N,GND_PWR*%
X156686200Y-61516500D02*
X154895100Y-61516500D01*
%TO.N,Net-(J8-Pin_1)*%
X157686200Y-123516500D02*
X156747900Y-123516500D01*
X156747900Y-123516500D02*
X152987800Y-119756400D01*
X136318800Y-119756400D02*
X132731200Y-123344000D01*
X152987800Y-119756400D02*
X136318800Y-119756400D01*
%TO.N,/daq_interface/DO_PRECURSOR*%
X217492600Y-125171200D02*
X217471800Y-125192000D01*
X220675200Y-125171200D02*
X217492600Y-125171200D01*
X228243400Y-125171200D02*
X228375000Y-125039600D01*
X220675200Y-125171200D02*
X228243400Y-125171200D01*
%TO.N,/daq_interface/DO_FORELINE*%
X223484200Y-122631200D02*
X223666600Y-122448800D01*
X220675200Y-122631200D02*
X223484200Y-122631200D01*
X218316600Y-122194800D02*
X218753000Y-122631200D01*
X220675200Y-122631200D02*
X218753000Y-122631200D01*
X216487800Y-122194800D02*
X218316600Y-122194800D01*
%TO.N,/daq_interface/AO_MFC_SETPOINT*%
X214223300Y-131796000D02*
X214782100Y-132354800D01*
X219730800Y-131846800D02*
X220675200Y-132791200D01*
X220675200Y-132791200D02*
X223645800Y-132791200D01*
X220594400Y-132710400D02*
X220675200Y-132791200D01*
X206632600Y-132710400D02*
X220594400Y-132710400D01*
X214782100Y-132354800D02*
X219100100Y-132354800D01*
X219608100Y-131846800D02*
X219730800Y-131846800D01*
X223645800Y-132791200D02*
X223717400Y-132862800D01*
X207365300Y-128494000D02*
X207507450Y-128636150D01*
X207507450Y-128636150D02*
X210667300Y-131796000D01*
X210667300Y-131796000D02*
X214223300Y-131796000D01*
X219100100Y-132354800D02*
X219608100Y-131846800D01*
%TO.N,/daq_interface/DO_N2*%
X212098200Y-127711200D02*
X220675200Y-127711200D01*
X210239400Y-125852400D02*
X212098200Y-127711200D01*
X223544200Y-127711200D02*
X223666600Y-127833600D01*
X220675200Y-127711200D02*
X223544200Y-127711200D01*
%TO.N,/daq_interface/AI_MFC_FLOW*%
X220675200Y-137871200D02*
X223947200Y-141143200D01*
X217270600Y-137871200D02*
X220675200Y-137871200D01*
X220675200Y-137871200D02*
X221525200Y-138721200D01*
X223947200Y-141143200D02*
X224311000Y-141143200D01*
X215421000Y-139720800D02*
X217270600Y-137871200D01*
%TO.N,/vacuum_gauge_interface/AI_PRESSURE*%
X220675200Y-135331200D02*
X222372400Y-137028400D01*
X217503800Y-135402800D02*
X217575400Y-135331200D01*
X189862000Y-62823200D02*
X195596400Y-62823200D01*
X195596400Y-62823200D02*
X195630800Y-62788800D01*
X222372400Y-137028400D02*
X224666600Y-137028400D01*
X217575400Y-135331200D02*
X220675200Y-135331200D01*
X217453000Y-135402800D02*
X217503800Y-135402800D01*
D42*
%TO.N,+5V*%
X76800000Y-101200000D02*
X75000000Y-103000000D01*
X79580112Y-101200000D02*
X76800000Y-101200000D01*
X81380112Y-103000000D02*
X79580112Y-101200000D01*
D41*
%TO.N,GND_PWR*%
X194700400Y-60299600D02*
X195000000Y-60000000D01*
D39*
%TO.N,/daq_interface/AI_MFC_FLOW*%
X243839700Y-88158800D02*
X243839700Y-127862900D01*
X221801000Y-137871200D02*
X223396600Y-139466800D01*
X228527400Y-138298400D02*
X233201000Y-138298400D01*
X227409800Y-139466800D02*
X228527400Y-138349200D01*
X233201000Y-138298400D02*
X233302600Y-138400000D01*
X220675200Y-137871200D02*
X221801000Y-137871200D01*
X223396600Y-139466800D02*
X227409800Y-139466800D01*
X228527400Y-138349200D02*
X228527400Y-138298400D01*
X243839700Y-127862900D02*
X233302600Y-138400000D01*
%TO.N,/daq_interface/AO_MFC_SETPOINT*%
X207365600Y-128494300D02*
X207507450Y-128636150D01*
D40*
%TO.N,+15V*%
X173177200Y-142341600D02*
X197866000Y-142341600D01*
X197866000Y-142341600D02*
X197866000Y-84124800D01*
%TO.N,-15V*%
X172567600Y-120497600D02*
X194462400Y-120497600D01*
X194462400Y-120497600D02*
X194462400Y-82448400D01*
X194462400Y-82448400D02*
X195326000Y-81584800D01*
D39*
%TO.N,GND_SIG*%
X220780100Y-96508800D02*
X220780100Y-98219900D01*
X220780100Y-98219900D02*
X220500000Y-98500000D01*
%TO.N,+15V*%
X85500000Y-135500000D02*
X89500000Y-135500000D01*
X75500000Y-125500000D02*
X85500000Y-135500000D01*
%TD*%
M02*
