%TF.GenerationSoftware,KiCad,Pcbnew,9.0.6*%
%TF.CreationDate,2026-01-14T23:40:17-08:00*%
%TF.ProjectId,ald_control_board,616c645f-636f-46e7-9472-6f6c5f626f61,rev?*%
%TF.SameCoordinates,Original*%
%TF.FileFunction,Soldermask,Top*%
%TF.FilePolarity,Negative*%
%FSLAX46Y46*%
G04 Gerber Fmt 4.6, Leading zero omitted, Abs format (unit mm)*
G04 Created by KiCad (PCBNEW 9.0.6) date 2026-01-14 23:40:17*
%MOMM*%
%LPD*%
G01*
G04 APERTURE LIST*
G04 Aperture macros list*
%AMRoundRect*
0 Rectangle with rounded corners*
0 $1 Rounding radius*
0 $2 $3 $4 $5 $6 $7 $8 $9 X,Y pos of 4 corners*
0 Add a 4 corners polygon primitive as box body*
4,1,4,$2,$3,$4,$5,$6,$7,$8,$9,$2,$3,0*
0 Add four circle primitives for the rounded corners*
1,1,$1+$1,$2,$3*
1,1,$1+$1,$4,$5*
1,1,$1+$1,$6,$7*
1,1,$1+$1,$8,$9*
0 Add four rect primitives between the rounded corners*
20,1,$1+$1,$2,$3,$4,$5,0*
20,1,$1+$1,$4,$5,$6,$7,0*
20,1,$1+$1,$6,$7,$8,$9,0*
20,1,$1+$1,$8,$9,$2,$3,0*%
G04 Aperture macros list end*
%ADD10C,0.800000*%
%ADD11C,6.400000*%
%ADD12C,2.000000*%
%ADD13RoundRect,0.250000X0.475000X-0.337500X0.475000X0.337500X-0.475000X0.337500X-0.475000X-0.337500X0*%
%ADD14RoundRect,0.250000X-0.450000X0.350000X-0.450000X-0.350000X0.450000X-0.350000X0.450000X0.350000X0*%
%ADD15C,1.600000*%
%ADD16R,1.600000X1.600000*%
%ADD17C,4.000000*%
%ADD18RoundRect,0.250000X-0.337500X-0.475000X0.337500X-0.475000X0.337500X0.475000X-0.337500X0.475000X0*%
%ADD19C,2.500000*%
%ADD20C,3.000000*%
%ADD21RoundRect,0.250000X0.350000X0.450000X-0.350000X0.450000X-0.350000X-0.450000X0.350000X-0.450000X0*%
%ADD22C,2.700000*%
%ADD23RoundRect,0.249999X-0.850001X0.850001X-0.850001X-0.850001X0.850001X-0.850001X0.850001X0.850001X0*%
%ADD24C,2.200000*%
%ADD25RoundRect,0.250000X-0.475000X0.337500X-0.475000X-0.337500X0.475000X-0.337500X0.475000X0.337500X0*%
%ADD26RoundRect,0.250000X0.337500X0.475000X-0.337500X0.475000X-0.337500X-0.475000X0.337500X-0.475000X0*%
%ADD27RoundRect,0.250000X-0.550000X-0.550000X0.550000X-0.550000X0.550000X0.550000X-0.550000X0.550000X0*%
%ADD28R,1.700000X1.700000*%
%ADD29C,1.700000*%
%ADD30RoundRect,0.250000X-1.050000X1.050000X-1.050000X-1.050000X1.050000X-1.050000X1.050000X1.050000X0*%
%ADD31C,2.600000*%
%ADD32RoundRect,0.250000X-0.350000X-0.450000X0.350000X-0.450000X0.350000X0.450000X-0.350000X0.450000X0*%
%ADD33RoundRect,0.250000X0.550000X0.550000X-0.550000X0.550000X-0.550000X-0.550000X0.550000X-0.550000X0*%
%ADD34RoundRect,0.250000X1.050000X-1.050000X1.050000X1.050000X-1.050000X1.050000X-1.050000X-1.050000X0*%
%ADD35RoundRect,0.250000X1.050000X1.050000X-1.050000X1.050000X-1.050000X-1.050000X1.050000X-1.050000X0*%
%ADD36RoundRect,0.250000X-1.050000X-1.050000X1.050000X-1.050000X1.050000X1.050000X-1.050000X1.050000X0*%
G04 APERTURE END LIST*
D10*
%TO.C,REF\u002A\u002A*%
X59100000Y-47500000D03*
X59802944Y-45802944D03*
X59802944Y-49197056D03*
X61500000Y-45100000D03*
D11*
X61500000Y-47500000D03*
D10*
X61500000Y-49900000D03*
X63197056Y-45802944D03*
X63197056Y-49197056D03*
X63900000Y-47500000D03*
%TD*%
%TO.C,REF\u002A\u002A*%
X59600000Y-145000000D03*
X60302944Y-143302944D03*
X60302944Y-146697056D03*
X62000000Y-142600000D03*
D11*
X62000000Y-145000000D03*
D10*
X62000000Y-147400000D03*
X63697056Y-143302944D03*
X63697056Y-146697056D03*
X64400000Y-145000000D03*
%TD*%
%TO.C,REF\u002A\u002A*%
X250100000Y-145000000D03*
X250802944Y-143302944D03*
X250802944Y-146697056D03*
X252500000Y-142600000D03*
D11*
X252500000Y-145000000D03*
D10*
X252500000Y-147400000D03*
X254197056Y-143302944D03*
X254197056Y-146697056D03*
X254900000Y-145000000D03*
%TD*%
%TO.C,REF\u002A\u002A*%
X249600000Y-47000000D03*
X250302944Y-45302944D03*
X250302944Y-48697056D03*
X252000000Y-44600000D03*
D11*
X252000000Y-47000000D03*
D10*
X252000000Y-49400000D03*
X253697056Y-45302944D03*
X253697056Y-48697056D03*
X254400000Y-47000000D03*
%TD*%
D12*
%TO.C,TP13*%
X221000000Y-78000000D03*
%TD*%
%TO.C,TP9*%
X230834900Y-86126800D03*
%TD*%
%TO.C,TP11*%
X220522800Y-89001600D03*
%TD*%
D13*
%TO.C,C14*%
X208279700Y-90292400D03*
X208279700Y-88217400D03*
%TD*%
D14*
%TO.C,R9*%
X227786900Y-88241600D03*
X227786900Y-90241600D03*
%TD*%
D15*
%TO.C,J10*%
X212470100Y-96508800D03*
X215240100Y-96508800D03*
X218010100Y-96508800D03*
X220780100Y-96508800D03*
X223550100Y-96508800D03*
X226320100Y-96508800D03*
X229090100Y-96508800D03*
X211085100Y-93668800D03*
X213855100Y-93668800D03*
X216625100Y-93668800D03*
X219395100Y-93668800D03*
X222165100Y-93668800D03*
X224935100Y-93668800D03*
X227705100Y-93668800D03*
D16*
X230475100Y-93668800D03*
D17*
X237430100Y-96508800D03*
X204130100Y-96508800D03*
%TD*%
D12*
%TO.C,TP10*%
X204622100Y-88514400D03*
%TD*%
D14*
%TO.C,R8*%
X211022900Y-88292400D03*
X211022900Y-90292400D03*
%TD*%
D18*
%TO.C,C15*%
X229920500Y-90089200D03*
X231995500Y-90089200D03*
%TD*%
D12*
%TO.C,TP12*%
X214731600Y-89103200D03*
%TD*%
D19*
%TO.C,K1*%
X134531200Y-77344000D03*
D20*
X146731200Y-89344000D03*
D19*
X134531200Y-89344000D03*
D20*
X132581200Y-83294000D03*
%TD*%
D21*
%TO.C,R10*%
X197630800Y-62788800D03*
X195630800Y-62788800D03*
%TD*%
%TO.C,R4*%
X225666600Y-127833600D03*
X223666600Y-127833600D03*
%TD*%
D22*
%TO.C,F2*%
X96881200Y-74894000D03*
D20*
X108131200Y-74894000D03*
X85631200Y-74894000D03*
%TD*%
D23*
%TO.C,D1*%
X127186200Y-77948000D03*
D24*
X127186200Y-88108000D03*
%TD*%
D12*
%TO.C,TP15*%
X184861200Y-57658000D03*
%TD*%
D25*
%TO.C,C20*%
X172944700Y-56112500D03*
X172944700Y-58187500D03*
%TD*%
D18*
%TO.C,C5*%
X81380112Y-103000000D03*
X83455112Y-103000000D03*
%TD*%
%TO.C,C11*%
X228578200Y-132862800D03*
X230653200Y-132862800D03*
%TD*%
D21*
%TO.C,R5*%
X225717400Y-132862800D03*
X223717400Y-132862800D03*
%TD*%
D23*
%TO.C,D3*%
X127181400Y-97963200D03*
D24*
X127181400Y-108123200D03*
%TD*%
D23*
%TO.C,D4*%
X127186200Y-118435600D03*
D24*
X127186200Y-128595600D03*
%TD*%
D26*
%TO.C,C2*%
X67075000Y-56000000D03*
X65000000Y-56000000D03*
%TD*%
D27*
%TO.C,C21*%
X171639221Y-64312800D03*
D15*
X174139221Y-64312800D03*
%TD*%
D28*
%TO.C,J9*%
X220675200Y-122631200D03*
D29*
X220675200Y-125171200D03*
X220675200Y-127711200D03*
X220675200Y-130251200D03*
X220675200Y-132791200D03*
X220675200Y-135331200D03*
X220675200Y-137871200D03*
X220675200Y-140411200D03*
%TD*%
D18*
%TO.C,C18*%
X171082987Y-138125200D03*
X173157987Y-138125200D03*
%TD*%
D30*
%TO.C,J2*%
X66000000Y-86455000D03*
D31*
X66000000Y-91535000D03*
%TD*%
D18*
%TO.C,C17*%
X170575400Y-117195600D03*
X172650400Y-117195600D03*
%TD*%
D32*
%TO.C,R6*%
X215453000Y-135402800D03*
X217453000Y-135402800D03*
%TD*%
D12*
%TO.C,TP8*%
X215421000Y-139720800D03*
%TD*%
%TO.C,TP5*%
X216792600Y-130221200D03*
%TD*%
D18*
%TO.C,C9*%
X82925000Y-117500000D03*
X85000000Y-117500000D03*
%TD*%
D33*
%TO.C,C19*%
X173075600Y-132689600D03*
D15*
X171075600Y-132689600D03*
%TD*%
D34*
%TO.C,J7*%
X160000000Y-106080000D03*
D31*
X160000000Y-101000000D03*
%TD*%
D30*
%TO.C,J3*%
X66000000Y-100000000D03*
D31*
X66000000Y-105080000D03*
%TD*%
D32*
%TO.C,R3*%
X215471800Y-125192000D03*
X217471800Y-125192000D03*
%TD*%
D30*
%TO.C,J1*%
X65327500Y-62955000D03*
D31*
X65327500Y-68035000D03*
%TD*%
D18*
%TO.C,C13*%
X228984600Y-141143200D03*
X231059600Y-141143200D03*
%TD*%
%TO.C,C22*%
X200964800Y-62788800D03*
X203039800Y-62788800D03*
%TD*%
D27*
%TO.C,C6*%
X75000000Y-103000000D03*
D15*
X77000000Y-103000000D03*
%TD*%
D20*
%TO.C,K4*%
X132731200Y-123344000D03*
D19*
X134681200Y-129394000D03*
D20*
X146881200Y-129394000D03*
D19*
X134681200Y-117394000D03*
%TD*%
D33*
%TO.C,C16*%
X172720000Y-112572800D03*
D15*
X170720000Y-112572800D03*
%TD*%
D28*
%TO.C,J11*%
X189862000Y-57743200D03*
D29*
X189862000Y-60283200D03*
X189862000Y-62823200D03*
X189862000Y-65363200D03*
X189862000Y-67903200D03*
X189862000Y-70443200D03*
X189862000Y-72983200D03*
X189862000Y-75523200D03*
%TD*%
D23*
%TO.C,D2*%
X125686200Y-56936500D03*
D24*
X125686200Y-67096500D03*
%TD*%
D21*
%TO.C,R7*%
X226311000Y-141143200D03*
X224311000Y-141143200D03*
%TD*%
D20*
%TO.C,K3*%
X132231200Y-103344000D03*
X146381200Y-109394000D03*
D19*
X134181200Y-97394000D03*
X134181200Y-109394000D03*
%TD*%
D33*
%TO.C,C10*%
X84925000Y-124500000D03*
D15*
X82925000Y-124500000D03*
%TD*%
D12*
%TO.C,TP3*%
X228375000Y-125039600D03*
%TD*%
D35*
%TO.C,J5*%
X161500000Y-61500000D03*
D31*
X156420000Y-61500000D03*
%TD*%
D33*
%TO.C,C1*%
X74306200Y-53894000D03*
D15*
X71806200Y-53894000D03*
%TD*%
D12*
%TO.C,TP7*%
X224666600Y-137028400D03*
%TD*%
%TO.C,TP16*%
X184810400Y-62890400D03*
%TD*%
D26*
%TO.C,C3*%
X65881200Y-79221500D03*
X63806200Y-79221500D03*
%TD*%
D12*
%TO.C,TP1*%
X216487800Y-122194800D03*
%TD*%
D20*
%TO.C,K2*%
X132231200Y-62344000D03*
D19*
X134181200Y-68394000D03*
D20*
X146381200Y-68394000D03*
D19*
X134181200Y-56394000D03*
%TD*%
D22*
%TO.C,F1*%
X93631200Y-57394000D03*
D20*
X104881200Y-57394000D03*
X82381200Y-57394000D03*
%TD*%
D21*
%TO.C,R2*%
X225666600Y-122448800D03*
X223666600Y-122448800D03*
%TD*%
D33*
%TO.C,C4*%
X73699800Y-77135200D03*
D15*
X71199800Y-77135200D03*
%TD*%
D12*
%TO.C,TP18*%
X184759600Y-73304400D03*
%TD*%
%TO.C,TP17*%
X184759600Y-68122800D03*
%TD*%
D26*
%TO.C,C12*%
X213236600Y-135402800D03*
X211161600Y-135402800D03*
%TD*%
D34*
%TO.C,J6*%
X159500000Y-84080000D03*
D31*
X159500000Y-79000000D03*
%TD*%
D36*
%TO.C,J8*%
X157686200Y-123516500D03*
D31*
X162766200Y-123516500D03*
%TD*%
D12*
%TO.C,TP4*%
X210239400Y-125852400D03*
%TD*%
%TO.C,TP6*%
X206632600Y-132710400D03*
%TD*%
D27*
%TO.C,C8*%
X75500000Y-125500000D03*
D15*
X77500000Y-125500000D03*
%TD*%
D30*
%TO.C,J4*%
X66500000Y-116420000D03*
D31*
X66500000Y-121500000D03*
X66500000Y-126580000D03*
%TD*%
D18*
%TO.C,C7*%
X75425000Y-117000000D03*
X77500000Y-117000000D03*
%TD*%
M02*
