%TF.GenerationSoftware,KiCad,Pcbnew,9.0.6*%
%TF.CreationDate,2026-01-14T23:40:17-08:00*%
%TF.ProjectId,ald_control_board,616c645f-636f-46e7-9472-6f6c5f626f61,rev?*%
%TF.SameCoordinates,Original*%
%TF.FileFunction,Paste,Top*%
%TF.FilePolarity,Positive*%
%FSLAX46Y46*%
G04 Gerber Fmt 4.6, Leading zero omitted, Abs format (unit mm)*
G04 Created by KiCad (PCBNEW 9.0.6) date 2026-01-14 23:40:17*
%MOMM*%
%LPD*%
G01*
G04 APERTURE LIST*
G04 Aperture macros list*
%AMRoundRect*
0 Rectangle with rounded corners*
0 $1 Rounding radius*
0 $2 $3 $4 $5 $6 $7 $8 $9 X,Y pos of 4 corners*
0 Add a 4 corners polygon primitive as box body*
4,1,4,$2,$3,$4,$5,$6,$7,$8,$9,$2,$3,0*
0 Add four circle primitives for the rounded corners*
1,1,$1+$1,$2,$3*
1,1,$1+$1,$4,$5*
1,1,$1+$1,$6,$7*
1,1,$1+$1,$8,$9*
0 Add four rect primitives between the rounded corners*
20,1,$1+$1,$2,$3,$4,$5,0*
20,1,$1+$1,$4,$5,$6,$7,0*
20,1,$1+$1,$6,$7,$8,$9,0*
20,1,$1+$1,$8,$9,$2,$3,0*%
G04 Aperture macros list end*
%ADD10RoundRect,0.250000X0.475000X-0.337500X0.475000X0.337500X-0.475000X0.337500X-0.475000X-0.337500X0*%
%ADD11RoundRect,0.250000X-0.450000X0.350000X-0.450000X-0.350000X0.450000X-0.350000X0.450000X0.350000X0*%
%ADD12RoundRect,0.250000X-0.337500X-0.475000X0.337500X-0.475000X0.337500X0.475000X-0.337500X0.475000X0*%
%ADD13RoundRect,0.250000X0.350000X0.450000X-0.350000X0.450000X-0.350000X-0.450000X0.350000X-0.450000X0*%
%ADD14RoundRect,0.250000X-0.475000X0.337500X-0.475000X-0.337500X0.475000X-0.337500X0.475000X0.337500X0*%
%ADD15RoundRect,0.250000X0.337500X0.475000X-0.337500X0.475000X-0.337500X-0.475000X0.337500X-0.475000X0*%
%ADD16RoundRect,0.250000X-0.350000X-0.450000X0.350000X-0.450000X0.350000X0.450000X-0.350000X0.450000X0*%
G04 APERTURE END LIST*
D10*
%TO.C,C14*%
X208279700Y-90292400D03*
X208279700Y-88217400D03*
%TD*%
D11*
%TO.C,R9*%
X227786900Y-88241600D03*
X227786900Y-90241600D03*
%TD*%
%TO.C,R8*%
X211022900Y-88292400D03*
X211022900Y-90292400D03*
%TD*%
D12*
%TO.C,C15*%
X229920500Y-90089200D03*
X231995500Y-90089200D03*
%TD*%
D13*
%TO.C,R10*%
X197630800Y-62788800D03*
X195630800Y-62788800D03*
%TD*%
%TO.C,R4*%
X225666600Y-127833600D03*
X223666600Y-127833600D03*
%TD*%
D14*
%TO.C,C20*%
X172944700Y-56112500D03*
X172944700Y-58187500D03*
%TD*%
D12*
%TO.C,C5*%
X81380112Y-103000000D03*
X83455112Y-103000000D03*
%TD*%
%TO.C,C11*%
X228578200Y-132862800D03*
X230653200Y-132862800D03*
%TD*%
D13*
%TO.C,R5*%
X225717400Y-132862800D03*
X223717400Y-132862800D03*
%TD*%
D15*
%TO.C,C2*%
X67075000Y-56000000D03*
X65000000Y-56000000D03*
%TD*%
D12*
%TO.C,C18*%
X171082987Y-138125200D03*
X173157987Y-138125200D03*
%TD*%
%TO.C,C17*%
X170575400Y-117195600D03*
X172650400Y-117195600D03*
%TD*%
D16*
%TO.C,R6*%
X215453000Y-135402800D03*
X217453000Y-135402800D03*
%TD*%
D12*
%TO.C,C9*%
X82925000Y-117500000D03*
X85000000Y-117500000D03*
%TD*%
D16*
%TO.C,R3*%
X215471800Y-125192000D03*
X217471800Y-125192000D03*
%TD*%
D12*
%TO.C,C13*%
X228984600Y-141143200D03*
X231059600Y-141143200D03*
%TD*%
%TO.C,C22*%
X200964800Y-62788800D03*
X203039800Y-62788800D03*
%TD*%
D13*
%TO.C,R7*%
X226311000Y-141143200D03*
X224311000Y-141143200D03*
%TD*%
D15*
%TO.C,C3*%
X65881200Y-79221500D03*
X63806200Y-79221500D03*
%TD*%
D13*
%TO.C,R2*%
X225666600Y-122448800D03*
X223666600Y-122448800D03*
%TD*%
D15*
%TO.C,C12*%
X213236600Y-135402800D03*
X211161600Y-135402800D03*
%TD*%
D12*
%TO.C,C7*%
X75425000Y-117000000D03*
X77500000Y-117000000D03*
%TD*%
M02*
